SeanSlab-NarrowRegular.ufo
<glyph name="exclam" format="1">
  <advance width="248"/>
  <unicode hex="0021"/>
  <outline>
    <contour>
      <point x="160" y="229" type="line"/>
      <point x="167" y="722" type="line"/>
      <point x="81" y="722" type="line"/>
      <point x="88" y="229" type="line"/>
    </contour>
    <contour>
      <point x="168" y="33" type="curve"/>
      <point x="168" y="60"/>
      <point x="150" y="74"/>
      <point x="124" y="74" type="curve"/>
      <point x="98" y="74"/>
      <point x="81" y="59"/>
      <point x="81" y="33" type="curve"/>
      <point x="165" y="33"/>
      <point x="84" y="33"/>
      <point x="168" y="33" type="curve"/>
      <point x="168" y="6"/>
      <point x="150" y="-7"/>
      <point x="124" y="-7" type="curve"/>
      <point x="97" y="-7"/>
      <point x="81" y="7"/>
      <point x="81" y="33" type="curve"/>
      <point x="165" y="33"/>
      <point x="84" y="33"/>
    </contour>
  </outline>
</glyph>
<glyph name="quotedbl" format="1">
  <advance width="409"/>
  <unicode hex="0022"/>
  <outline>
    <contour>
      <point x="152" y="591" type="line"/>
      <point x="157" y="793" type="line"/>
      <point x="76" y="793" type="line"/>
      <point x="82" y="591" type="line"/>
    </contour>
    <contour>
      <point x="327" y="591" type="line"/>
      <point x="333" y="793" type="line"/>
      <point x="252" y="793" type="line"/>
      <point x="258" y="591" type="line"/>
    </contour>
  </outline>
</glyph>
<glyph name="numbersign" format="1">
  <advance width="624"/>
  <unicode hex="0023"/>
  <outline>
    <contour>
      <point x="46" y="234" type="curve"/>
      <point x="499" y="234" type="curve"/>
      <point x="516" y="294" type="curve"/>
      <point x="64" y="294" type="curve"/>
    </contour>
    <contour>
      <point x="107" y="465" type="curve"/>
      <point x="561" y="465" type="curve"/>
      <point x="578" y="525" type="curve"/>
      <point x="124" y="525" type="curve"/>
    </contour>
    <contour>
      <point x="377" y="39" type="curve"/>
      <point x="568" y="722" type="curve"/>
      <point x="492" y="722" type="curve"/>
      <point x="301" y="39" type="curve"/>
    </contour>
    <contour>
      <point x="140" y="46" type="curve"/>
      <point x="329" y="722" type="curve"/>
      <point x="253" y="722" type="curve"/>
      <point x="67" y="46" type="curve"/>
    </contour>
  </outline>
</glyph>
<glyph name="dollar" format="1">
  <advance width="527"/>
  <unicode hex="0024"/>
  <outline>
    <contour>
      <point x="123" y="96" type="curve"/>
      <point x="123" y="216"/>
      <point x="123" y="99"/>
      <point x="123" y="219" type="curve"/>
      <point x="62" y="219"/>
      <point x="123" y="219"/>
      <point x="62" y="219" type="curve"/>
      <point x="62" y="99"/>
      <point x="62" y="216"/>
      <point x="62" y="96" type="curve"/>
      <point x="123" y="96"/>
      <point x="62" y="96"/>
    </contour>
    <contour>
      <point x="388" y="633" type="curve"/>
      <point x="388" y="513"/>
      <point x="388" y="630"/>
      <point x="388" y="510" type="curve"/>
      <point x="448" y="510"/>
      <point x="388" y="510"/>
      <point x="448" y="510" type="curve"/>
      <point x="448" y="630"/>
      <point x="448" y="513"/>
      <point x="448" y="633" type="curve"/>
      <point x="388" y="633"/>
      <point x="448" y="633"/>
    </contour>
    <contour>
      <point x="287" y="-42" type="curve"/>
      <point x="287" y="-10"/>
      <point x="287" y="43"/>
      <point x="287" y="75" type="curve"/>
      <point x="211" y="75"/>
      <point x="287" y="75"/>
      <point x="211" y="75" type="curve"/>
      <point x="211" y="43"/>
      <point x="211" y="-10"/>
      <point x="211" y="-42" type="curve"/>
      <point x="287" y="-42"/>
      <point x="211" y="-42"/>
    </contour>
    <contour>
      <point x="298" y="654" type="curve"/>
      <point x="298" y="686"/>
      <point x="298" y="741"/>
      <point x="298" y="773" type="curve"/>
      <point x="222" y="773"/>
      <point x="298" y="773"/>
      <point x="222" y="773" type="curve"/>
      <point x="222" y="741"/>
      <point x="222" y="686"/>
      <point x="222" y="654" type="curve"/>
      <point x="298" y="654"/>
      <point x="222" y="654"/>
    </contour>
    <contour>
      <point x="62" y="96" type="curve"/>
      <point x="112" y="69"/>
      <point x="174" y="45"/>
      <point x="246" y="45" type="curve"/>
      <point x="376" y="45"/>
      <point x="477" y="101"/>
      <point x="477" y="208" type="curve"/>
      <point x="477" y="306"/>
      <point x="386" y="354"/>
      <point x="284" y="401" type="curve"/>
      <point x="209" y="437"/>
      <point x="147" y="465"/>
      <point x="147" y="533" type="curve"/>
      <point x="147" y="591"/>
      <point x="195" y="626"/>
      <point x="263" y="626" type="curve"/>
      <point x="321" y="626"/>
      <point x="361" y="610"/>
      <point x="411" y="583" type="curve"/>
      <point x="448" y="633"/>
      <point x="411" y="583"/>
      <point x="448" y="633" type="curve"/>
      <point x="388" y="667"/>
      <point x="338" y="685"/>
      <point x="266" y="685" type="curve"/>
      <point x="152" y="685"/>
      <point x="71" y="630"/>
      <point x="71" y="533" type="curve"/>
      <point x="71" y="438"/>
      <point x="143" y="392"/>
      <point x="240" y="347" type="curve"/>
      <point x="321" y="311"/>
      <point x="401" y="279"/>
      <point x="401" y="205" type="curve"/>
      <point x="401" y="138"/>
      <point x="336" y="105"/>
      <point x="253" y="105" type="curve"/>
      <point x="194" y="105"/>
      <point x="144" y="128"/>
      <point x="103" y="149" type="curve"/>
      <point x="62" y="96"/>
      <point x="103" y="149"/>
    </contour>
  </outline>
</glyph>
<glyph name="percent" format="1">
  <advance width="976"/>
  <unicode hex="0025"/>
  <outline>
    <contour>
      <point x="343" y="-68" type="line"/>
      <point x="719" y="736" type="line"/>
      <point x="647" y="736" type="line"/>
      <point x="271" y="-68" type="line"/>
    </contour>
    <contour>
      <point x="106" y="528" type="curve"/>
      <point x="106" y="616"/>
      <point x="134" y="684"/>
      <point x="214" y="684" type="curve"/>
      <point x="295" y="685"/>
      <point x="322" y="617"/>
      <point x="322" y="528" type="curve"/>
      <point x="322" y="439"/>
      <point x="298" y="369"/>
      <point x="218" y="369" type="curve"/>
      <point x="135" y="369"/>
      <point x="106" y="437"/>
      <point x="106" y="528" type="curve"/>
      <point x="81" y="528"/>
      <point x="65" y="528"/>
      <point x="39" y="528" type="curve"/>
      <point x="39" y="402"/>
      <point x="96" y="313"/>
      <point x="215" y="313" type="curve"/>
      <point x="335" y="313"/>
      <point x="392" y="403"/>
      <point x="392" y="530" type="curve"/>
      <point x="392" y="654"/>
      <point x="335" y="741"/>
      <point x="217" y="740" type="curve"/>
      <point x="97" y="740"/>
      <point x="39" y="653"/>
      <point x="39" y="528" type="curve"/>
      <point x="65" y="528"/>
      <point x="81" y="528"/>
    </contour>
    <contour>
      <point x="651" y="142" type="curve"/>
      <point x="651" y="231"/>
      <point x="678" y="298"/>
      <point x="758" y="298" type="curve"/>
      <point x="839" y="299"/>
      <point x="866" y="231"/>
      <point x="866" y="142" type="curve"/>
      <point x="866" y="53"/>
      <point x="842" y="-17"/>
      <point x="762" y="-17" type="curve"/>
      <point x="679" y="-17"/>
      <point x="651" y="52"/>
      <point x="651" y="142" type="curve"/>
      <point x="625" y="142"/>
      <point x="609" y="142"/>
      <point x="583" y="142" type="curve"/>
      <point x="583" y="16"/>
      <point x="640" y="-73"/>
      <point x="759" y="-73" type="curve"/>
      <point x="879" y="-73"/>
      <point x="936" y="17"/>
      <point x="936" y="145" type="curve"/>
      <point x="936" y="269"/>
      <point x="879" y="355"/>
      <point x="761" y="355" type="curve"/>
      <point x="642" y="355"/>
      <point x="583" y="267"/>
      <point x="583" y="142" type="curve"/>
      <point x="609" y="142"/>
      <point x="625" y="142"/>
    </contour>
  </outline>
</glyph>
<glyph name="parenleft" format="1">
  <advance width="335"/>
  <unicode hex="0028"/>
  <outline>
    <contour>
      <point x="325" y="-223" type="curve"/>
      <point x="178" y="-54"/>
      <point x="126" y="102"/>
      <point x="126" y="326" type="curve"/>
      <point x="126" y="551"/>
      <point x="179" y="706"/>
      <point x="324" y="877" type="curve"/>
      <point x="278" y="915"/>
      <point x="324" y="877"/>
      <point x="278" y="915" type="curve"/>
      <point x="119" y="734"/>
      <point x="51" y="570"/>
      <point x="51" y="326" type="curve"/>
      <point x="51" y="82"/>
      <point x="120" y="-82"/>
      <point x="279" y="-264" type="curve"/>
      <point x="325" y="-223"/>
      <point x="279" y="-264"/>
    </contour>
  </outline>
</glyph>
<glyph name="parenright" format="1">
  <advance width="343"/>
  <unicode hex="0029"/>
  <outline>
    <contour>
      <point x="52" y="-279" type="curve"/>
      <point x="214" y="-89"/>
      <point x="293" y="76"/>
      <point x="293" y="328" type="curve"/>
      <point x="293" y="574"/>
      <point x="221" y="736"/>
      <point x="55" y="916" type="curve"/>
      <point x="10" y="875"/>
      <point x="55" y="916"/>
      <point x="10" y="875" type="curve"/>
      <point x="159" y="706"/>
      <point x="217" y="551"/>
      <point x="217" y="325" type="curve"/>
      <point x="217" y="94"/>
      <point x="151" y="-61"/>
      <point x="5" y="-240" type="curve"/>
      <point x="52" y="-279"/>
      <point x="5" y="-240"/>
    </contour>
  </outline>
</glyph>
<glyph name="asterisk" format="1">
  <advance width="578"/>
  <unicode hex="002A"/>
  <outline>
    <contour>
      <point x="315" y="560" type="line"/>
      <point x="320" y="763" type="line"/>
      <point x="257" y="763" type="line"/>
      <point x="262" y="560" type="line"/>
    </contour>
    <contour>
      <point x="316" y="523" type="line"/>
      <point x="510" y="585" type="line"/>
      <point x="489" y="643" type="line"/>
      <point x="299" y="573" type="line"/>
    </contour>
    <contour>
      <point x="282" y="510" type="line"/>
      <point x="403" y="347" type="line"/>
      <point x="451" y="386" type="line"/>
      <point x="323" y="543" type="line"/>
    </contour>
    <contour>
      <point x="259" y="542" type="line"/>
      <point x="131" y="385" type="line"/>
      <point x="179" y="345" type="line"/>
      <point x="300" y="508" type="line"/>
    </contour>
    <contour>
      <point x="280" y="570" type="line"/>
      <point x="90" y="640" type="line"/>
      <point x="69" y="582" type="line"/>
      <point x="262" y="521" type="line"/>
    </contour>
  </outline>
</glyph>
<glyph name="plus" format="1">
  <advance width="633"/>
  <unicode hex="002B"/>
  <outline>
    <contour>
      <point x="49" y="279" type="curve"/>
      <point x="584" y="279" type="line"/>
      <point x="584" y="344"/>
      <point x="584" y="279"/>
      <point x="584" y="344" type="curve"/>
      <point x="49" y="344" type="line"/>
      <point x="49" y="279"/>
      <point x="49" y="344"/>
    </contour>
    <contour>
      <point x="352" y="30" type="curve"/>
      <point x="352" y="585" type="line"/>
      <point x="276" y="585"/>
      <point x="356" y="585"/>
      <point x="280" y="585" type="curve"/>
      <point x="280" y="30" type="line"/>
      <point x="356" y="30"/>
      <point x="276" y="30"/>
    </contour>
  </outline>
</glyph>
<glyph name="comma" format="1">
  <advance width="236"/>
  <unicode hex="002C"/>
  <outline>
    <contour>
      <point x="53" y="-113" type="line"/>
      <point x="112" y="-98"/>
      <point x="154" y="-52"/>
      <point x="154" y="22" type="curve"/>
      <point x="154" y="70"/>
      <point x="137" y="102"/>
      <point x="104" y="102" type="curve"/>
      <point x="77" y="102"/>
      <point x="60" y="88"/>
      <point x="60" y="61" type="curve"/>
      <point x="60" y="37"/>
      <point x="73" y="22"/>
      <point x="98" y="19" type="curve"/>
      <point x="98" y="-8"/>
      <point x="89" y="-50"/>
      <point x="44" y="-69" type="curve"/>
    </contour>
  </outline>
</glyph>
<glyph name="hyphen" format="1">
  <advance width="414"/>
  <unicode hex="002D"/>
  <outline>
    <contour>
      <point x="79" y="244" type="curve"/>
      <point x="164" y="244"/>
      <point x="250" y="244"/>
      <point x="336" y="244" type="curve"/>
      <point x="336" y="310"/>
      <point x="336" y="244"/>
      <point x="336" y="310" type="curve"/>
      <point x="250" y="310"/>
      <point x="164" y="310"/>
      <point x="79" y="310" type="curve"/>
      <point x="79" y="244"/>
      <point x="79" y="310"/>
    </contour>
  </outline>
</glyph>
<glyph name="zero" format="1">
  <advance width="671"/>
  <unicode hex="0030"/>
  <outline>
    <contour>
      <point x="137" y="360" type="curve"/>
      <point x="137" y="532"/>
      <point x="180" y="664"/>
      <point x="333" y="664" type="curve"/>
      <point x="487" y="664"/>
      <point x="534" y="534"/>
      <point x="534" y="363" type="curve"/>
      <point x="534" y="191"/>
      <point x="490" y="58"/>
      <point x="340" y="58" type="curve"/>
      <point x="189" y="58"/>
      <point x="137" y="188"/>
      <point x="137" y="360" type="curve"/>
      <point x="63" y="360"/>
      <point x="136" y="360"/>
      <point x="62" y="360" type="curve"/>
      <point x="62" y="148"/>
      <point x="140" y="-5"/>
      <point x="337" y="-5" type="curve"/>
      <point x="533" y="-5"/>
      <point x="608" y="149"/>
      <point x="608" y="363" type="curve"/>
      <point x="608" y="574"/>
      <point x="535" y="727"/>
      <point x="341" y="727" type="curve"/>
      <point x="142" y="727"/>
      <point x="62" y="574"/>
      <point x="62" y="360" type="curve"/>
      <point x="136" y="360"/>
      <point x="63" y="360"/>
    </contour>
  </outline>
</glyph>
<glyph name="one" format="1">
  <advance width="422"/>
  <unicode hex="0031"/>
  <outline>
    <contour>
      <point x="250" y="0" type="curve"/>
      <point x="296" y="0"/>
      <point x="342" y="0"/>
      <point x="389" y="0" type="curve"/>
      <point x="389" y="60"/>
      <point x="389" y="0"/>
      <point x="389" y="60" type="curve"/>
      <point x="250" y="60"/>
      <point x="389" y="60"/>
      <point x="250" y="60" type="curve"/>
      <point x="250" y="0"/>
      <point x="250" y="60"/>
    </contour>
    <contour>
      <point x="250" y="60" type="curve"/>
      <point x="108" y="60"/>
      <point x="250" y="60"/>
      <point x="108" y="60" type="curve"/>
      <point x="108" y="0"/>
      <point x="108" y="60"/>
      <point x="108" y="0" type="curve"/>
      <point x="156" y="0"/>
      <point x="203" y="0"/>
      <point x="250" y="0" type="curve"/>
      <point x="250" y="60"/>
      <point x="250" y="0"/>
    </contour>
    <contour>
      <point x="77" y="511" type="curve"/>
      <point x="268" y="684"/>
      <point x="77" y="511"/>
      <point x="268" y="684" type="curve"/>
      <point x="211" y="722"/>
      <point x="268" y="684"/>
      <point x="211" y="722" type="curve"/>
      <point x="34" y="560"/>
      <point x="211" y="722"/>
      <point x="34" y="560" type="curve"/>
      <point x="77" y="511"/>
      <point x="34" y="560"/>
    </contour>
    <contour>
      <point x="287" y="0" type="curve"/>
      <point x="287" y="241"/>
      <point x="287" y="481"/>
      <point x="287" y="722" type="curve"/>
      <point x="211" y="722"/>
      <point x="287" y="722"/>
      <point x="211" y="722" type="curve"/>
      <point x="211" y="481"/>
      <point x="211" y="241"/>
      <point x="211" y="0" type="curve"/>
      <point x="287" y="0"/>
      <point x="211" y="0"/>
    </contour>
  </outline>
</glyph>
<glyph name="two" format="1">
  <advance width="549"/>
  <unicode hex="0032"/>
  <outline>
    <contour>
      <point x="482" y="60" type="curve"/>
      <point x="482" y="172"/>
      <point x="482" y="55"/>
      <point x="482" y="167" type="curve"/>
      <point x="422" y="167"/>
      <point x="482" y="167"/>
      <point x="422" y="167" type="curve"/>
      <point x="422" y="55"/>
      <point x="422" y="172"/>
      <point x="422" y="60" type="curve"/>
      <point x="482" y="60"/>
      <point x="422" y="60"/>
    </contour>
    <contour>
      <point x="50" y="0" type="curve"/>
      <point x="215" y="0"/>
      <point x="352" y="0"/>
      <point x="482" y="0" type="curve"/>
      <point x="482" y="60"/>
      <point x="482" y="0"/>
      <point x="482" y="60" type="curve"/>
      <point x="340" y="60"/>
      <point x="193" y="60"/>
      <point x="50" y="60" type="curve"/>
      <point x="50" y="0"/>
      <point x="50" y="60"/>
    </contour>
    <contour>
      <point x="113" y="542" type="curve"/>
      <point x="153" y="612"/>
      <point x="188" y="664"/>
      <point x="264" y="664" type="curve"/>
      <point x="347" y="664"/>
      <point x="386" y="607"/>
      <point x="386" y="516" type="curve"/>
      <point x="386" y="404"/>
      <point x="313" y="320"/>
      <point x="247" y="257" type="curve"/>
      <point x="181" y="191"/>
      <point x="117" y="126"/>
      <point x="50" y="60" type="curve"/>
      <point x="56" y="0"/>
      <point x="50" y="60"/>
      <point x="56" y="0" type="curve"/>
      <point x="156" y="66"/>
      <point x="225" y="141"/>
      <point x="294" y="212" type="curve"/>
      <point x="377" y="288"/>
      <point x="457" y="382"/>
      <point x="457" y="519" type="curve"/>
      <point x="457" y="649"/>
      <point x="391" y="727"/>
      <point x="267" y="727" type="curve"/>
      <point x="165" y="727"/>
      <point x="102" y="666"/>
      <point x="59" y="575" type="curve"/>
      <point x="113" y="542"/>
      <point x="59" y="575"/>
    </contour>
  </outline>
</glyph>
<glyph name="three" format="1">
  <advance width="511"/>
  <unicode hex="0033"/>
  <outline>
    <contour>
      <point x="52" y="57" type="curve"/>
      <point x="105" y="19"/>
      <point x="155" y="-5"/>
      <point x="225" y="-5" type="curve"/>
      <point x="365" y="-5"/>
      <point x="451" y="63"/>
      <point x="451" y="203" type="curve"/>
      <point x="451" y="333"/>
      <point x="327" y="399"/>
      <point x="149" y="399" type="curve"/>
      <point x="149" y="353"/>
      <point x="149" y="394"/>
      <point x="149" y="348" type="curve"/>
      <point x="274" y="348"/>
      <point x="378" y="298"/>
      <point x="378" y="200" type="curve"/>
      <point x="378" y="104"/>
      <point x="312" y="58"/>
      <point x="228" y="58" type="curve"/>
      <point x="177" y="58"/>
      <point x="138" y="75"/>
      <point x="91" y="104" type="curve"/>
      <point x="52" y="57"/>
      <point x="91" y="104"/>
    </contour>
    <contour>
      <point x="102" y="599" type="curve"/>
      <point x="127" y="629"/>
      <point x="170" y="664"/>
      <point x="223" y="664" type="curve"/>
      <point x="302" y="664"/>
      <point x="349" y="621"/>
      <point x="349" y="540" type="curve"/>
      <point x="349" y="454"/>
      <point x="260" y="409"/>
      <point x="149" y="409" type="curve"/>
      <point x="149" y="363"/>
      <point x="149" y="403"/>
      <point x="149" y="358" type="curve"/>
      <point x="304" y="358"/>
      <point x="422" y="419"/>
      <point x="422" y="543" type="curve"/>
      <point x="422" y="662"/>
      <point x="348" y="727"/>
      <point x="229" y="727" type="curve"/>
      <point x="152" y="727"/>
      <point x="89" y="684"/>
      <point x="56" y="638" type="curve"/>
      <point x="102" y="599"/>
      <point x="56" y="638"/>
    </contour>
  </outline>
</glyph>
<glyph name="four" format="1">
  <advance width="567"/>
  <unicode hex="0034"/>
  <outline>
    <contour>
      <point x="348" y="60" type="line"/>
      <point x="219" y="60" type="line"/>
      <point x="219" y="0" type="line"/>
      <point x="348" y="0" type="line"/>
    </contour>
    <contour>
      <point x="348" y="0" type="line"/>
      <point x="475" y="0" type="line"/>
      <point x="475" y="60" type="line"/>
      <point x="348" y="60" type="line"/>
    </contour>
    <contour>
      <point x="67" y="262" type="line"/>
      <point x="374" y="702" type="line"/>
      <point x="311" y="711" type="line"/>
      <point x="32" y="313" type="line"/>
    </contour>
    <contour>
      <point x="522" y="313" type="line"/>
      <point x="32" y="313" type="line"/>
      <point x="33" y="248" type="line"/>
      <point x="522" y="248" type="line"/>
    </contour>
    <contour>
      <point x="387" y="20" type="line"/>
      <point x="387" y="711" type="line"/>
      <point x="312" y="711" type="line"/>
      <point x="312" y="20" type="line"/>
    </contour>
  </outline>
</glyph>
<glyph name="five" format="1">
  <advance width="498"/>
  <unicode hex="0035"/>
  <outline>
    <contour>
      <point x="85" y="722" type="curve"/>
      <point x="85" y="622"/>
      <point x="85" y="514"/>
      <point x="85" y="392" type="curve"/>
      <point x="157" y="370"/>
      <point x="85" y="392"/>
      <point x="157" y="370" type="curve"/>
      <point x="157" y="466"/>
      <point x="157" y="567"/>
      <point x="157" y="662" type="curve"/>
      <point x="85" y="722"/>
      <point x="157" y="662"/>
    </contour>
    <contour>
      <point x="157" y="370" type="curve"/>
      <point x="174" y="385"/>
      <point x="209" y="398"/>
      <point x="238" y="398" type="curve"/>
      <point x="327" y="398"/>
      <point x="368" y="328"/>
      <point x="368" y="232" type="curve"/>
      <point x="368" y="135"/>
      <point x="314" y="58"/>
      <point x="221" y="58" type="curve"/>
      <point x="171" y="58"/>
      <point x="135" y="71"/>
      <point x="89" y="97" type="curve"/>
      <point x="52" y="44"/>
      <point x="89" y="97"/>
      <point x="52" y="44" type="curve"/>
      <point x="105" y="12"/>
      <point x="155" y="-5"/>
      <point x="218" y="-5" type="curve"/>
      <point x="354" y="-5"/>
      <point x="444" y="93"/>
      <point x="444" y="232" type="curve"/>
      <point x="444" y="365"/>
      <point x="373" y="462"/>
      <point x="246" y="462" type="curve"/>
      <point x="190" y="462"/>
      <point x="129" y="444"/>
      <point x="85" y="394" type="curve"/>
      <point x="157" y="370"/>
      <point x="85" y="394"/>
    </contour>
    <contour>
      <point x="420" y="722" type="curve"/>
      <point x="308" y="722"/>
      <point x="194" y="722"/>
      <point x="85" y="722" type="curve"/>
      <point x="157" y="662"/>
      <point x="85" y="722"/>
      <point x="157" y="662" type="curve"/>
      <point x="242" y="662"/>
      <point x="332" y="662"/>
      <point x="420" y="662" type="curve"/>
      <point x="420" y="722"/>
      <point x="420" y="662"/>
    </contour>
  </outline>
</glyph>
<glyph name="six" format="1">
  <advance width="554"/>
  <unicode hex="0036"/>
  <outline>
    <contour>
      <point x="119" y="223" type="curve"/>
      <point x="145" y="302"/>
      <point x="199" y="364"/>
      <point x="285" y="364" type="curve"/>
      <point x="374" y="364"/>
      <point x="417" y="305"/>
      <point x="417" y="212" type="curve"/>
      <point x="417" y="127"/>
      <point x="373" y="62"/>
      <point x="288" y="62" type="curve"/>
      <point x="182" y="62"/>
      <point x="130" y="138"/>
      <point x="130" y="250" type="curve"/>
      <point x="130" y="475"/>
      <point x="268" y="604"/>
      <point x="485" y="675" type="curve"/>
      <point x="464" y="732"/>
      <point x="485" y="675"/>
      <point x="464" y="732" type="curve"/>
      <point x="221" y="656"/>
      <point x="57" y="509"/>
      <point x="57" y="247" type="curve"/>
      <point x="57" y="93"/>
      <point x="137" y="-8"/>
      <point x="286" y="-8" type="curve"/>
      <point x="419" y="-8"/>
      <point x="494" y="78"/>
      <point x="494" y="213" type="curve"/>
      <point x="494" y="345"/>
      <point x="421" y="427"/>
      <point x="295" y="427" type="curve"/>
      <point x="176" y="427"/>
      <point x="103" y="338"/>
      <point x="76" y="244" type="curve"/>
      <point x="119" y="223"/>
      <point x="77" y="244"/>
    </contour>
  </outline>
</glyph>
<glyph name="seven" format="1">
  <advance width="507"/>
  <unicode hex="0037"/>
  <outline>
    <contour>
      <point x="115" y="563" type="curve"/>
      <point x="115" y="672" type="curve"/>
      <point x="54" y="672" type="curve"/>
      <point x="54" y="563" type="curve"/>
    </contour>
    <contour>
      <point x="54" y="662" type="curve"/>
      <point x="488" y="662" type="curve"/>
      <point x="488" y="722" type="curve"/>
      <point x="54" y="722" type="curve"/>
    </contour>
    <contour>
      <point x="443" y="722" type="curve"/>
      <point x="77" y="0" type="curve"/>
      <point x="158" y="0" type="curve"/>
      <point x="488" y="662" type="curve"/>
    </contour>
  </outline>
</glyph>
<glyph name="eight" format="1">
  <advance width="539"/>
  <unicode hex="0038"/>
  <outline>
    <contour>
      <point x="79" y="552" type="curve"/>
      <point x="79" y="445"/>
      <point x="152" y="407"/>
      <point x="248" y="356" type="curve"/>
      <point x="335" y="309"/>
      <point x="401" y="272"/>
      <point x="401" y="180" type="curve"/>
      <point x="401" y="100"/>
      <point x="352" y="57"/>
      <point x="269" y="57" type="curve"/>
      <point x="186" y="57"/>
      <point x="138" y="100"/>
      <point x="138" y="180" type="curve"/>
      <point x="138" y="274"/>
      <point x="206" y="307"/>
      <point x="294" y="356" type="curve"/>
      <point x="387" y="408"/>
      <point x="460" y="445"/>
      <point x="460" y="550" type="curve"/>
      <point x="460" y="667"/>
      <point x="391" y="727"/>
      <point x="269" y="727" type="curve"/>
      <point x="151" y="727"/>
      <point x="79" y="666"/>
      <point x="79" y="552" type="curve"/>
      <point x="155" y="552"/>
      <point x="79" y="552"/>
      <point x="155" y="552" type="curve"/>
      <point x="155" y="622"/>
      <point x="195" y="665"/>
      <point x="267" y="665" type="curve"/>
      <point x="343" y="665"/>
      <point x="384" y="625"/>
      <point x="384" y="550" type="curve"/>
      <point x="384" y="470"/>
      <point x="323" y="440"/>
      <point x="247" y="399" type="curve"/>
      <point x="142" y="341"/>
      <point x="62" y="298"/>
      <point x="62" y="180" type="curve"/>
      <point x="62" y="58"/>
      <point x="139" y="-5"/>
      <point x="266" y="-5" type="curve"/>
      <point x="395" y="-5"/>
      <point x="477" y="55"/>
      <point x="477" y="180" type="curve"/>
      <point x="477" y="297"/>
      <point x="398" y="342"/>
      <point x="295" y="400" type="curve"/>
      <point x="218" y="443"/>
      <point x="155" y="470"/>
      <point x="155" y="552" type="curve"/>
      <point x="79" y="552"/>
      <point x="155" y="552"/>
    </contour>
  </outline>
</glyph>
<glyph name="nine" format="1">
  <advance width="553"/>
  <unicode hex="0039"/>
  <outline>
    <contour>
      <point x="438" y="486" type="curve"/>
      <point x="406" y="410"/>
      <point x="359" y="358"/>
      <point x="272" y="358" type="curve"/>
      <point x="182" y="358"/>
      <point x="134" y="418"/>
      <point x="134" y="512" type="curve"/>
      <point x="134" y="601"/>
      <point x="180" y="660"/>
      <point x="264" y="660" type="curve"/>
      <point x="371" y="660"/>
      <point x="423" y="584"/>
      <point x="423" y="472" type="curve"/>
      <point x="423" y="248"/>
      <point x="294" y="118"/>
      <point x="74" y="47" type="curve"/>
      <point x="100" y="-14"/>
      <point x="74" y="47"/>
      <point x="100" y="-14" type="curve"/>
      <point x="342" y="60"/>
      <point x="496" y="213"/>
      <point x="496" y="475" type="curve"/>
      <point x="496" y="629"/>
      <point x="417" y="730"/>
      <point x="267" y="730" type="curve"/>
      <point x="134" y="730"/>
      <point x="60" y="644"/>
      <point x="60" y="509" type="curve"/>
      <point x="60" y="377"/>
      <point x="134" y="295"/>
      <point x="265" y="295" type="curve"/>
      <point x="379" y="295"/>
      <point x="440" y="372"/>
      <point x="476" y="469" type="curve"/>
      <point x="438" y="486"/>
      <point x="476" y="469"/>
    </contour>
  </outline>
</glyph>
<glyph name="colon" format="1">
  <advance width="246"/>
  <unicode hex="003A"/>
  <outline>
    <contour>
      <point x="166" y="394" type="curve"/>
      <point x="166" y="421"/>
      <point x="148" y="434"/>
      <point x="122" y="434" type="curve"/>
      <point x="96" y="434"/>
      <point x="79" y="419"/>
      <point x="79" y="394" type="curve"/>
      <point x="163" y="394"/>
      <point x="83" y="394"/>
      <point x="166" y="394" type="curve"/>
      <point x="166" y="366"/>
      <point x="148" y="353"/>
      <point x="122" y="353" type="curve"/>
      <point x="96" y="353"/>
      <point x="79" y="367"/>
      <point x="79" y="394" type="curve"/>
      <point x="163" y="394"/>
      <point x="83" y="394"/>
    </contour>
    <contour>
      <point x="166" y="35" type="curve"/>
      <point x="166" y="62"/>
      <point x="148" y="76"/>
      <point x="122" y="76" type="curve"/>
      <point x="96" y="76"/>
      <point x="79" y="61"/>
      <point x="79" y="35" type="curve"/>
      <point x="163" y="35"/>
      <point x="83" y="35"/>
      <point x="166" y="35" type="curve"/>
      <point x="166" y="8"/>
      <point x="148" y="-5"/>
      <point x="122" y="-5" type="curve"/>
      <point x="96" y="-5"/>
      <point x="79" y="9"/>
      <point x="79" y="35" type="curve"/>
      <point x="163" y="35"/>
      <point x="83" y="35"/>
    </contour>
  </outline>
</glyph>
<glyph name="semicolon" format="1">
  <advance width="276"/>
  <unicode hex="003B"/>
  <outline>
    <contour>
      <point x="73" y="-144" type="line"/>
      <point x="149" y="-144"/>
      <point x="189" y="-86"/>
      <point x="189" y="-15" type="curve"/>
      <point x="189" y="38"/>
      <point x="170" y="74"/>
      <point x="135" y="74" type="curve"/>
      <point x="107" y="74"/>
      <point x="89" y="60"/>
      <point x="89" y="33" type="curve"/>
      <point x="89" y="10"/>
      <point x="103" y="-6"/>
      <point x="129" y="-9" type="curve"/>
      <point x="129" y="-35"/>
      <point x="127" y="-92"/>
      <point x="73" y="-97" type="curve"/>
    </contour>
    <contour>
      <point x="181" y="406" type="curve"/>
      <point x="181" y="433"/>
      <point x="162" y="447"/>
      <point x="136" y="447" type="curve"/>
      <point x="110" y="447"/>
      <point x="93" y="432"/>
      <point x="93" y="406" type="curve"/>
      <point x="177" y="406"/>
      <point x="97" y="406"/>
      <point x="181" y="406" type="curve"/>
      <point x="181" y="379"/>
      <point x="162" y="366"/>
      <point x="136" y="366" type="curve"/>
      <point x="110" y="366"/>
      <point x="93" y="380"/>
      <point x="93" y="406" type="curve"/>
      <point x="177" y="406"/>
      <point x="97" y="406"/>
    </contour>
  </outline>
</glyph>
<glyph name="less" format="1">
  <advance width="645"/>
  <unicode hex="003C"/>
  <outline>
    <contour>
      <point x="576" y="603" type="curve"/>
      <point x="397" y="513"/>
      <point x="218" y="423"/>
      <point x="39" y="333" type="curve"/>
      <point x="39" y="267"/>
      <point x="39" y="333"/>
      <point x="39" y="267" type="curve"/>
      <point x="218" y="357"/>
      <point x="397" y="447"/>
      <point x="576" y="537" type="curve"/>
      <point x="576" y="603"/>
      <point x="576" y="537"/>
    </contour>
    <contour>
      <point x="585" y="69" type="curve"/>
      <point x="403" y="157"/>
      <point x="221" y="245"/>
      <point x="39" y="333" type="curve"/>
      <point x="39" y="267"/>
      <point x="39" y="333"/>
      <point x="39" y="267" type="curve"/>
      <point x="221" y="179"/>
      <point x="403" y="91"/>
      <point x="585" y="3" type="curve"/>
      <point x="585" y="69"/>
      <point x="585" y="3"/>
    </contour>
  </outline>
</glyph>
<glyph name="equal" format="1">
  <advance width="718"/>
  <unicode hex="003D"/>
  <outline>
    <contour>
      <point x="82" y="186" type="curve"/>
      <point x="266" y="186"/>
      <point x="451" y="186"/>
      <point x="636" y="186" type="curve"/>
      <point x="636" y="249"/>
      <point x="636" y="186"/>
      <point x="636" y="249" type="curve"/>
      <point x="451" y="249"/>
      <point x="266" y="249"/>
      <point x="82" y="249" type="curve"/>
      <point x="82" y="186"/>
      <point x="82" y="249"/>
    </contour>
    <contour>
      <point x="82" y="408" type="curve"/>
      <point x="266" y="408"/>
      <point x="451" y="408"/>
      <point x="636" y="408" type="curve"/>
      <point x="636" y="471"/>
      <point x="636" y="408"/>
      <point x="636" y="471" type="curve"/>
      <point x="451" y="471"/>
      <point x="266" y="471"/>
      <point x="82" y="471" type="curve"/>
      <point x="82" y="408"/>
      <point x="82" y="471"/>
    </contour>
  </outline>
</glyph>
<glyph name="greater" format="1">
  <advance width="645"/>
  <unicode hex="003E"/>
  <outline>
    <contour>
      <point x="69" y="3" type="curve"/>
      <point x="248" y="93"/>
      <point x="427" y="183"/>
      <point x="606" y="273" type="curve"/>
      <point x="606" y="339"/>
      <point x="606" y="273"/>
      <point x="606" y="339" type="curve"/>
      <point x="427" y="249"/>
      <point x="248" y="159"/>
      <point x="69" y="69" type="curve"/>
      <point x="69" y="3"/>
      <point x="69" y="69"/>
    </contour>
    <contour>
      <point x="60" y="537" type="curve"/>
      <point x="241" y="449"/>
      <point x="424" y="361"/>
      <point x="606" y="273" type="curve"/>
      <point x="606" y="339"/>
      <point x="606" y="273"/>
      <point x="606" y="339" type="curve"/>
      <point x="424" y="427"/>
      <point x="241" y="515"/>
      <point x="60" y="603" type="curve"/>
      <point x="60" y="537"/>
      <point x="60" y="603"/>
    </contour>
  </outline>
</glyph>
<glyph name="question" format="1">
  <advance width="484"/>
  <unicode hex="003F"/>
  <outline>
    <contour>
      <point x="183" y="354" type="curve"/>
      <point x="183" y="317"/>
      <point x="183" y="258"/>
      <point x="183" y="221" type="curve"/>
      <point x="255" y="221"/>
      <point x="183" y="221"/>
      <point x="255" y="221" type="curve"/>
      <point x="255" y="258"/>
      <point x="255" y="317"/>
      <point x="255" y="354" type="curve"/>
      <point x="183" y="354"/>
      <point x="255" y="354"/>
    </contour>
    <contour>
      <point x="93" y="603" type="line"/>
      <point x="123" y="638"/>
      <point x="162" y="665"/>
      <point x="217" y="665" type="curve"/>
      <point x="304" y="665"/>
      <point x="354" y="607"/>
      <point x="354" y="519" type="curve"/>
      <point x="354" y="420"/>
      <point x="293" y="354"/>
      <point x="192" y="354" type="curve"/>
      <point x="192" y="326"/>
      <point x="192" y="323"/>
      <point x="192" y="295" type="curve"/>
      <point x="335" y="295"/>
      <point x="427" y="382"/>
      <point x="427" y="519" type="curve"/>
      <point x="427" y="647"/>
      <point x="346" y="728"/>
      <point x="221" y="728" type="curve"/>
      <point x="145" y="728"/>
      <point x="91" y="698"/>
      <point x="51" y="649" type="curve"/>
    </contour>
    <contour>
      <point x="263" y="28" type="curve"/>
      <point x="263" y="55"/>
      <point x="245" y="68"/>
      <point x="219" y="68" type="curve"/>
      <point x="193" y="68"/>
      <point x="177" y="53"/>
      <point x="177" y="28" type="curve"/>
      <point x="263" y="28"/>
      <point x="177" y="28"/>
      <point x="263" y="28" type="curve"/>
      <point x="263" y="1"/>
      <point x="245" y="-12"/>
      <point x="219" y="-12" type="curve"/>
      <point x="193" y="-12"/>
      <point x="177" y="2"/>
      <point x="177" y="28" type="curve"/>
      <point x="263" y="28"/>
      <point x="177" y="28"/>
    </contour>
  </outline>
</glyph>
<glyph name="at" format="1">
  <advance width="768"/>
  <unicode hex="0040"/>
  <outline>
    <contour>
      <point x="525" y="-56" type="curve"/>
      <point x="481" y="-81"/>
      <point x="448" y="-89"/>
      <point x="397" y="-89" type="curve"/>
      <point x="221" y="-89"/>
      <point x="125" y="23"/>
      <point x="125" y="204" type="curve"/>
      <point x="125" y="380"/>
      <point x="220" y="490"/>
      <point x="391" y="490" type="curve"/>
      <point x="553" y="490"/>
      <point x="641" y="380"/>
      <point x="641" y="213" type="curve"/>
      <point x="641" y="143"/>
      <point x="635" y="84"/>
      <point x="592" y="84" type="curve"/>
      <point x="544" y="84"/>
      <point x="537" y="140"/>
      <point x="537" y="209" type="curve"/>
      <point x="537" y="317"/>
      <point x="486" y="391"/>
      <point x="383" y="391" type="curve"/>
      <point x="272" y="391"/>
      <point x="219" y="320"/>
      <point x="219" y="208" type="curve"/>
      <point x="219" y="92"/>
      <point x="266" y="15"/>
      <point x="375" y="15" type="curve"/>
      <point x="473" y="15"/>
      <point x="511" y="90"/>
      <point x="526" y="194" type="curve"/>
      <point x="478" y="206"/>
      <point x="526" y="194"/>
      <point x="478" y="206" type="curve"/>
      <point x="462" y="136"/>
      <point x="448" y="75"/>
      <point x="384" y="75" type="curve"/>
      <point x="314" y="75"/>
      <point x="288" y="132"/>
      <point x="288" y="211" type="curve"/>
      <point x="288" y="282"/>
      <point x="313" y="331"/>
      <point x="378" y="331" type="curve"/>
      <point x="446" y="331"/>
      <point x="468" y="279"/>
      <point x="468" y="206" type="curve"/>
      <point x="468" y="105"/>
      <point x="494" y="27"/>
      <point x="586" y="27" type="curve"/>
      <point x="682" y="27"/>
      <point x="709" y="108"/>
      <point x="709" y="216" type="curve"/>
      <point x="709" y="423"/>
      <point x="598" y="553"/>
      <point x="394" y="553" type="curve"/>
      <point x="176" y="553"/>
      <point x="55" y="421"/>
      <point x="55" y="201" type="curve"/>
      <point x="55" y="-17"/>
      <point x="177" y="-149"/>
      <point x="393" y="-149" type="curve"/>
      <point x="458" y="-149"/>
      <point x="501" y="-139"/>
      <point x="554" y="-108" type="curve"/>
      <point x="525" y="-56"/>
      <point x="554" y="-108"/>
    </contour>
  </outline>
</glyph>
<glyph name="B" format="1">
  <advance width="631"/>
  <unicode hex="0042"/>
  <outline>
    <contour>
      <point x="185" y="722" type="curve"/>
      <point x="138" y="722"/>
      <point x="99" y="722"/>
      <point x="52" y="722" type="curve"/>
      <point x="52" y="662"/>
      <point x="52" y="722"/>
      <point x="52" y="662" type="curve"/>
      <point x="194" y="662"/>
      <point x="43" y="662"/>
      <point x="185" y="662" type="curve"/>
      <point x="185" y="722"/>
      <point x="185" y="662"/>
    </contour>
    <contour>
      <point x="184" y="60" type="curve"/>
      <point x="42" y="60"/>
      <point x="192" y="60"/>
      <point x="51" y="60" type="curve"/>
      <point x="51" y="0"/>
      <point x="51" y="60"/>
      <point x="51" y="0" type="curve"/>
      <point x="98" y="0"/>
      <point x="137" y="0"/>
      <point x="184" y="0" type="curve"/>
      <point x="184" y="60"/>
      <point x="184" y="0"/>
    </contour>
    <contour>
      <point x="175" y="662" type="curve"/>
      <point x="235" y="662"/>
      <point x="283" y="662"/>
      <point x="342" y="662" type="curve"/>
      <point x="416" y="662"/>
      <point x="458" y="619"/>
      <point x="458" y="546" type="curve"/>
      <point x="458" y="475"/>
      <point x="408" y="437"/>
      <point x="335" y="437" type="curve"/>
      <point x="278" y="437"/>
      <point x="232" y="437"/>
      <point x="175" y="437" type="curve"/>
      <point x="175" y="405"/>
      <point x="175" y="410"/>
      <point x="175" y="377" type="curve"/>
      <point x="221" y="377"/>
      <point x="260" y="377"/>
      <point x="306" y="377" type="curve"/>
      <point x="420" y="377"/>
      <point x="533" y="425"/>
      <point x="533" y="544" type="curve"/>
      <point x="533" y="658"/>
      <point x="461" y="722"/>
      <point x="345" y="722" type="curve"/>
      <point x="285" y="722"/>
      <point x="236" y="722"/>
      <point x="175" y="722" type="curve"/>
      <point x="175" y="689"/>
      <point x="175" y="695"/>
    </contour>
    <contour>
      <point x="224" y="0" type="curve"/>
      <point x="224" y="241"/>
      <point x="224" y="481"/>
      <point x="224" y="722" type="curve"/>
      <point x="145" y="722"/>
      <point x="224" y="722"/>
      <point x="145" y="722" type="curve"/>
      <point x="145" y="481"/>
      <point x="145" y="241"/>
      <point x="145" y="0" type="curve"/>
      <point x="224" y="0"/>
      <point x="145" y="0"/>
    </contour>
    <contour>
      <point x="175" y="377" type="curve"/>
      <point x="232" y="377"/>
      <point x="278" y="377"/>
      <point x="335" y="377" type="curve"/>
      <point x="439" y="377"/>
      <point x="499" y="317"/>
      <point x="499" y="214" type="curve"/>
      <point x="499" y="116"/>
      <point x="442" y="60"/>
      <point x="344" y="60" type="curve"/>
      <point x="283" y="60"/>
      <point x="236" y="60"/>
      <point x="175" y="60" type="curve"/>
      <point x="175" y="27"/>
      <point x="175" y="33"/>
      <point x="175" y="0" type="curve"/>
      <point x="237" y="0"/>
      <point x="285" y="0"/>
      <point x="347" y="0" type="curve"/>
      <point x="487" y="0"/>
      <point x="575" y="75"/>
      <point x="575" y="213" type="curve"/>
      <point x="575" y="366"/>
      <point x="455" y="437"/>
      <point x="306" y="437" type="curve"/>
      <point x="260" y="437"/>
      <point x="221" y="437"/>
      <point x="175" y="437" type="curve"/>
      <point x="175" y="405"/>
      <point x="175" y="410"/>
    </contour>
  </outline>
</glyph>
<glyph name="C" format="1">
  <advance width="646"/>
  <unicode hex="0043"/>
  <outline>
    <contour>
      <point x="525" y="655" type="curve"/>
      <point x="525" y="535"/>
      <point x="525" y="649"/>
      <point x="525" y="529" type="curve"/>
      <point x="586" y="529"/>
      <point x="525" y="529"/>
      <point x="586" y="529" type="curve"/>
      <point x="586" y="649"/>
      <point x="586" y="535"/>
      <point x="586" y="655" type="curve"/>
      <point x="525" y="655"/>
      <point x="586" y="655"/>
    </contour>
    <contour>
      <point x="586" y="655" type="curve"/>
      <point x="524" y="696"/>
      <point x="453" y="727"/>
      <point x="371" y="727" type="curve"/>
      <point x="159" y="727"/>
      <point x="61" y="573"/>
      <point x="61" y="344" type="curve"/>
      <point x="61" y="135"/>
      <point x="154" y="-5"/>
      <point x="352" y="-5" type="curve"/>
      <point x="459" y="-5"/>
      <point x="527" y="30"/>
      <point x="599" y="96" type="curve"/>
      <point x="558" y="143"/>
      <point x="599" y="96"/>
      <point x="558" y="143" type="curve"/>
      <point x="495" y="89"/>
      <point x="440" y="59"/>
      <point x="355" y="59" type="curve"/>
      <point x="199" y="59"/>
      <point x="136" y="178"/>
      <point x="136" y="347" type="curve"/>
      <point x="136" y="531"/>
      <point x="202" y="664"/>
      <point x="368" y="664" type="curve"/>
      <point x="435" y="664"/>
      <point x="494" y="641"/>
      <point x="544" y="607" type="curve"/>
      <point x="586" y="655"/>
      <point x="544" y="607"/>
    </contour>
    <contour>
      <point x="365" y="806" type="move" name="top"/>
    </contour>
    <contour>
      <point x="369" y="2" type="move" name="bottom"/>
    </contour>
  </outline>
</glyph>
<glyph name="D" format="1">
  <advance width="727"/>
  <unicode hex="0044"/>
  <outline>
    <contour>
      <point x="187" y="60" type="curve"/>
      <point x="44" y="60"/>
      <point x="195" y="60"/>
      <point x="52" y="60" type="curve"/>
      <point x="52" y="0"/>
      <point x="52" y="60"/>
      <point x="52" y="0" type="curve"/>
      <point x="100" y="0"/>
      <point x="139" y="0"/>
      <point x="187" y="0" type="curve"/>
      <point x="187" y="60"/>
      <point x="187" y="0"/>
    </contour>
    <contour>
      <point x="187" y="722" type="curve"/>
      <point x="139" y="722"/>
      <point x="100" y="722"/>
      <point x="52" y="722" type="curve"/>
      <point x="52" y="662"/>
      <point x="52" y="722"/>
      <point x="52" y="662" type="curve"/>
      <point x="195" y="662"/>
      <point x="44" y="662"/>
      <point x="187" y="662" type="curve"/>
      <point x="187" y="722"/>
      <point x="187" y="662"/>
    </contour>
    <contour>
      <point x="147" y="722" type="curve"/>
      <point x="147" y="481"/>
      <point x="147" y="241"/>
      <point x="147" y="0" type="curve"/>
      <point x="223" y="0"/>
      <point x="147" y="0"/>
      <point x="223" y="0" type="curve"/>
      <point x="223" y="241"/>
      <point x="223" y="481"/>
      <point x="223" y="722" type="curve"/>
      <point x="147" y="722"/>
      <point x="223" y="722"/>
    </contour>
    <contour>
      <point x="187" y="0" type="curve"/>
      <point x="244" y="0"/>
      <point x="294" y="0"/>
      <point x="351" y="0" type="curve"/>
      <point x="566" y="0"/>
      <point x="668" y="133"/>
      <point x="668" y="354" type="curve"/>
      <point x="668" y="583"/>
      <point x="564" y="722"/>
      <point x="344" y="722" type="curve"/>
      <point x="289" y="722"/>
      <point x="241" y="722"/>
      <point x="187" y="722" type="curve"/>
      <point x="187" y="668"/>
      <point x="187" y="716"/>
      <point x="187" y="662" type="curve"/>
      <point x="240" y="662"/>
      <point x="287" y="662"/>
      <point x="340" y="662" type="curve"/>
      <point x="518" y="662"/>
      <point x="593" y="541"/>
      <point x="593" y="353" type="curve"/>
      <point x="593" y="175"/>
      <point x="525" y="60"/>
      <point x="358" y="60" type="curve"/>
      <point x="299" y="60"/>
      <point x="246" y="60"/>
      <point x="187" y="60" type="curve"/>
      <point x="187" y="6"/>
      <point x="187" y="54"/>
    </contour>
    <contour>
      <point x="325" y="806" type="move" name="top"/>
    </contour>
  </outline>
</glyph>
<glyph name="F" format="1">
  <advance width="578"/>
  <unicode hex="0046"/>
  <outline>
    <contour>
      <point x="185" y="0" type="curve"/>
      <point x="233" y="0"/>
      <point x="185" y="0"/>
      <point x="329" y="0" type="curve"/>
      <point x="329" y="60"/>
      <point x="329" y="0"/>
      <point x="329" y="60" type="curve"/>
      <point x="185" y="60"/>
      <point x="329" y="60"/>
      <point x="185" y="60" type="curve"/>
      <point x="185" y="0"/>
      <point x="185" y="60"/>
    </contour>
    <contour>
      <point x="185" y="722" type="curve"/>
      <point x="138" y="722"/>
      <point x="99" y="722"/>
      <point x="51" y="722" type="curve"/>
      <point x="51" y="662"/>
      <point x="51" y="722"/>
      <point x="51" y="662" type="curve"/>
      <point x="194" y="662"/>
      <point x="43" y="662"/>
      <point x="185" y="662" type="curve"/>
      <point x="185" y="722"/>
      <point x="185" y="662"/>
    </contour>
    <contour>
      <point x="185" y="60" type="curve"/>
      <point x="43" y="60"/>
      <point x="194" y="60"/>
      <point x="51" y="60" type="curve"/>
      <point x="51" y="0"/>
      <point x="51" y="60"/>
      <point x="51" y="0" type="curve"/>
      <point x="99" y="0"/>
      <point x="138" y="0"/>
      <point x="185" y="0" type="curve"/>
      <point x="185" y="60"/>
      <point x="185" y="0"/>
    </contour>
    <contour>
      <point x="477" y="692" type="curve"/>
      <point x="477" y="572"/>
      <point x="477" y="696"/>
      <point x="477" y="576" type="curve"/>
      <point x="538" y="576"/>
      <point x="477" y="576"/>
      <point x="538" y="576" type="curve"/>
      <point x="538" y="696"/>
      <point x="538" y="572"/>
      <point x="538" y="692" type="curve"/>
      <point x="477" y="692"/>
      <point x="538" y="692"/>
    </contour>
    <contour>
      <point x="189" y="343" type="curve"/>
      <point x="284" y="343"/>
      <point x="378" y="343"/>
      <point x="473" y="343" type="curve"/>
      <point x="473" y="403"/>
      <point x="473" y="343"/>
      <point x="473" y="403" type="curve"/>
      <point x="378" y="403"/>
      <point x="284" y="403"/>
      <point x="189" y="403" type="curve"/>
      <point x="189" y="343"/>
      <point x="189" y="403"/>
    </contour>
    <contour>
      <point x="224" y="0" type="curve"/>
      <point x="224" y="722" type="line"/>
      <point x="148" y="722"/>
      <point x="224" y="722"/>
      <point x="148" y="722" type="curve"/>
      <point x="148" y="481"/>
      <point x="148" y="241"/>
      <point x="148" y="0" type="curve"/>
      <point x="224" y="0"/>
      <point x="148" y="0"/>
    </contour>
    <contour>
      <point x="176" y="662" type="curve"/>
      <point x="296" y="662"/>
      <point x="417" y="662"/>
      <point x="538" y="662" type="curve"/>
      <point x="538" y="722"/>
      <point x="538" y="662"/>
      <point x="538" y="722" type="curve"/>
      <point x="417" y="722"/>
      <point x="296" y="722"/>
      <point x="176" y="722" type="curve"/>
      <point x="176" y="662"/>
      <point x="176" y="722"/>
    </contour>
  </outline>
</glyph>
<glyph name="G" format="1">
  <advance width="717"/>
  <unicode hex="0047"/>
  <outline>
    <contour>
      <point x="574" y="643" type="curve"/>
      <point x="574" y="517"/>
      <point x="574" y="643"/>
      <point x="574" y="517" type="curve"/>
      <point x="635" y="517"/>
      <point x="574" y="517"/>
      <point x="635" y="517" type="curve"/>
      <point x="635" y="643"/>
      <point x="635" y="517"/>
      <point x="635" y="643" type="curve"/>
      <point x="574" y="643"/>
      <point x="635" y="643"/>
    </contour>
    <contour>
      <point x="628" y="341" type="curve"/>
      <point x="564" y="341"/>
      <point x="499" y="341"/>
      <point x="434" y="341" type="curve"/>
      <point x="434" y="281"/>
      <point x="434" y="341"/>
      <point x="434" y="281" type="curve"/>
      <point x="499" y="281"/>
      <point x="564" y="281"/>
      <point x="628" y="281" type="curve"/>
      <point x="628" y="341"/>
      <point x="628" y="281"/>
    </contour>
    <contour>
      <point x="649" y="78" type="curve"/>
      <point x="649" y="166"/>
      <point x="649" y="253"/>
      <point x="649" y="341" type="curve"/>
      <point x="580" y="341"/>
      <point x="649" y="341"/>
      <point x="580" y="341" type="curve"/>
      <point x="580" y="253"/>
      <point x="580" y="166"/>
      <point x="580" y="78" type="curve"/>
      <point x="649" y="78"/>
      <point x="580" y="78"/>
    </contour>
    <contour>
      <point x="635" y="643" type="curve"/>
      <point x="553" y="700"/>
      <point x="476" y="727"/>
      <point x="377" y="727" type="curve"/>
      <point x="165" y="727"/>
      <point x="59" y="585"/>
      <point x="59" y="363" type="curve"/>
      <point x="59" y="136"/>
      <point x="170" y="-5"/>
      <point x="386" y="-5" type="curve"/>
      <point x="493" y="-5"/>
      <point x="560" y="23"/>
      <point x="649" y="78" type="curve"/>
      <point x="610" y="124"/>
      <point x="649" y="78"/>
      <point x="610" y="124" type="curve"/>
      <point x="541" y="81"/>
      <point x="475" y="58"/>
      <point x="387" y="58" type="curve"/>
      <point x="212" y="58"/>
      <point x="135" y="182"/>
      <point x="135" y="369" type="curve"/>
      <point x="135" y="545"/>
      <point x="211" y="664"/>
      <point x="377" y="664" type="curve"/>
      <point x="462" y="664"/>
      <point x="527" y="640"/>
      <point x="596" y="593" type="curve"/>
      <point x="635" y="643"/>
      <point x="596" y="593"/>
    </contour>
    <contour>
      <point x="375" y="806" type="move" name="top"/>
    </contour>
    <contour>
      <point x="406" y="-32" type="move" name="bottom"/>
    </contour>
  </outline>
</glyph>
<glyph name="H" format="1">
  <advance width="792"/>
  <unicode hex="0048"/>
  <outline>
    <contour>
      <point x="618" y="662" type="curve"/>
      <point x="764" y="662"/>
      <point x="606" y="662"/>
      <point x="752" y="662" type="curve"/>
      <point x="752" y="722"/>
      <point x="752" y="662"/>
      <point x="752" y="722" type="curve"/>
      <point x="703" y="722"/>
      <point x="666" y="722"/>
      <point x="618" y="722" type="curve"/>
      <point x="618" y="662"/>
      <point x="618" y="722"/>
    </contour>
    <contour>
      <point x="618" y="0" type="curve"/>
      <point x="666" y="0"/>
      <point x="703" y="0"/>
      <point x="752" y="0" type="curve"/>
      <point x="752" y="60"/>
      <point x="752" y="0"/>
      <point x="752" y="60" type="curve"/>
      <point x="606" y="60"/>
      <point x="764" y="60"/>
      <point x="618" y="60" type="curve"/>
      <point x="618" y="0"/>
      <point x="618" y="60"/>
    </contour>
    <contour>
      <point x="618" y="60" type="curve"/>
      <point x="472" y="60"/>
      <point x="630" y="60"/>
      <point x="484" y="60" type="curve"/>
      <point x="484" y="0"/>
      <point x="484" y="60"/>
      <point x="484" y="0" type="curve"/>
      <point x="532" y="0"/>
      <point x="569" y="0"/>
      <point x="618" y="0" type="curve"/>
      <point x="618" y="60"/>
      <point x="618" y="0"/>
    </contour>
    <contour>
      <point x="618" y="722" type="curve"/>
      <point x="569" y="722"/>
      <point x="532" y="722"/>
      <point x="484" y="722" type="curve"/>
      <point x="484" y="662"/>
      <point x="484" y="722"/>
      <point x="484" y="662" type="curve"/>
      <point x="630" y="662"/>
      <point x="472" y="662"/>
      <point x="618" y="662" type="curve"/>
      <point x="618" y="722"/>
      <point x="618" y="662"/>
    </contour>
    <contour>
      <point x="175" y="662" type="curve"/>
      <point x="321" y="662"/>
      <point x="163" y="662"/>
      <point x="309" y="662" type="curve"/>
      <point x="309" y="722"/>
      <point x="309" y="662"/>
      <point x="309" y="722" type="curve"/>
      <point x="260" y="722"/>
      <point x="223" y="722"/>
      <point x="175" y="722" type="curve"/>
      <point x="175" y="662"/>
      <point x="175" y="722"/>
    </contour>
    <contour>
      <point x="175" y="722" type="curve"/>
      <point x="126" y="722"/>
      <point x="89" y="722"/>
      <point x="40" y="722" type="curve"/>
      <point x="40" y="662"/>
      <point x="40" y="722"/>
      <point x="40" y="662" type="curve"/>
      <point x="186" y="662"/>
      <point x="28" y="662"/>
      <point x="175" y="662" type="curve"/>
      <point x="175" y="722"/>
      <point x="175" y="662"/>
    </contour>
    <contour>
      <point x="175" y="0" type="curve"/>
      <point x="223" y="0"/>
      <point x="163" y="0"/>
      <point x="309" y="0" type="curve"/>
      <point x="309" y="60"/>
      <point x="309" y="0"/>
      <point x="309" y="60" type="curve"/>
      <point x="163" y="60"/>
      <point x="321" y="60"/>
      <point x="175" y="60" type="curve"/>
      <point x="175" y="0"/>
      <point x="175" y="60"/>
    </contour>
    <contour>
      <point x="175" y="60" type="curve"/>
      <point x="28" y="60"/>
      <point x="186" y="60"/>
      <point x="40" y="60" type="curve"/>
      <point x="40" y="0"/>
      <point x="40" y="60"/>
      <point x="40" y="0" type="curve"/>
      <point x="89" y="0"/>
      <point x="126" y="0"/>
      <point x="175" y="0" type="curve"/>
      <point x="175" y="60"/>
      <point x="175" y="0"/>
    </contour>
    <contour>
      <point x="213" y="0" type="curve"/>
      <point x="213" y="722" type="line"/>
      <point x="137" y="722"/>
      <point x="213" y="722"/>
      <point x="137" y="722" type="curve"/>
      <point x="137" y="481"/>
      <point x="137" y="241"/>
      <point x="137" y="0" type="curve"/>
      <point x="213" y="0"/>
      <point x="137" y="0"/>
    </contour>
    <contour>
      <point x="615" y="393" type="curve"/>
      <point x="468" y="393"/>
      <point x="321" y="393"/>
      <point x="175" y="393" type="curve"/>
      <point x="175" y="333"/>
      <point x="175" y="393"/>
      <point x="175" y="333" type="curve"/>
      <point x="321" y="333"/>
      <point x="468" y="333"/>
      <point x="615" y="333" type="curve"/>
      <point x="615" y="393"/>
      <point x="615" y="333"/>
    </contour>
    <contour>
      <point x="655" y="21" type="curve"/>
      <point x="655" y="247"/>
      <point x="655" y="475"/>
      <point x="655" y="701" type="curve"/>
      <point x="579" y="701"/>
      <point x="655" y="701"/>
      <point x="579" y="701" type="curve"/>
      <point x="579" y="21" type="line"/>
      <point x="655" y="21"/>
      <point x="579" y="21"/>
    </contour>
  </outline>
</glyph>
<glyph name="I" format="1">
  <advance width="350"/>
  <unicode hex="0049"/>
  <outline>
    <contour>
      <point x="176" y="722" type="curve"/>
      <point x="127" y="722"/>
      <point x="90" y="722"/>
      <point x="41" y="722" type="curve"/>
      <point x="41" y="662"/>
      <point x="41" y="722"/>
      <point x="41" y="662" type="curve"/>
      <point x="187" y="662"/>
      <point x="29" y="662"/>
      <point x="176" y="662" type="curve"/>
      <point x="176" y="722"/>
      <point x="176" y="662"/>
    </contour>
    <contour>
      <point x="176" y="662" type="curve"/>
      <point x="322" y="662"/>
      <point x="164" y="662"/>
      <point x="310" y="662" type="curve"/>
      <point x="310" y="722"/>
      <point x="310" y="662"/>
      <point x="310" y="722" type="curve"/>
      <point x="261" y="722"/>
      <point x="224" y="722"/>
      <point x="176" y="722" type="curve"/>
      <point x="176" y="662"/>
      <point x="176" y="722"/>
    </contour>
    <contour>
      <point x="176" y="0" type="curve"/>
      <point x="224" y="0"/>
      <point x="261" y="0"/>
      <point x="310" y="0" type="curve"/>
      <point x="310" y="60"/>
      <point x="310" y="0"/>
      <point x="310" y="60" type="curve"/>
      <point x="164" y="60"/>
      <point x="322" y="60"/>
      <point x="176" y="60" type="curve"/>
      <point x="176" y="0"/>
      <point x="176" y="60"/>
    </contour>
    <contour>
      <point x="176" y="60" type="curve"/>
      <point x="29" y="60"/>
      <point x="187" y="60"/>
      <point x="41" y="60" type="curve"/>
      <point x="41" y="0"/>
      <point x="41" y="60"/>
      <point x="41" y="0" type="curve"/>
      <point x="90" y="0"/>
      <point x="127" y="0"/>
      <point x="176" y="0" type="curve"/>
      <point x="176" y="60"/>
      <point x="176" y="0"/>
    </contour>
    <contour>
      <point x="213" y="0" type="curve"/>
      <point x="213" y="241"/>
      <point x="213" y="481"/>
      <point x="213" y="722" type="curve"/>
      <point x="137" y="722"/>
      <point x="213" y="722"/>
      <point x="137" y="722" type="curve"/>
      <point x="137" y="481"/>
      <point x="137" y="241"/>
      <point x="137" y="0" type="curve"/>
      <point x="213" y="0"/>
      <point x="137" y="0"/>
    </contour>
    <contour>
      <point x="176" y="806" type="move" name="top"/>
    </contour>
    <contour>
      <point x="209" y="2" type="move" name="bottom"/>
    </contour>
  </outline>
</glyph>
<glyph name="J" format="1">
  <advance width="442"/>
  <unicode hex="004A"/>
  <outline>
    <contour>
      <point x="287" y="722" type="curve"/>
      <point x="239" y="722"/>
      <point x="204" y="722"/>
      <point x="156" y="722" type="curve"/>
      <point x="156" y="662"/>
      <point x="156" y="722"/>
      <point x="156" y="662" type="curve"/>
      <point x="299" y="662"/>
      <point x="144" y="662"/>
      <point x="287" y="662" type="curve"/>
      <point x="287" y="722"/>
      <point x="287" y="662"/>
    </contour>
    <contour>
      <point x="287" y="662" type="curve"/>
      <point x="429" y="662"/>
      <point x="275" y="662"/>
      <point x="417" y="662" type="curve"/>
      <point x="417" y="722"/>
      <point x="417" y="662"/>
      <point x="417" y="722" type="curve"/>
      <point x="370" y="722"/>
      <point x="334" y="722"/>
      <point x="287" y="722" type="curve"/>
      <point x="287" y="662"/>
      <point x="287" y="722"/>
    </contour>
    <contour>
      <point x="16" y="42" type="curve"/>
      <point x="46" y="19"/>
      <point x="85" y="-4"/>
      <point x="136" y="-4" type="curve"/>
      <point x="267" y="-4"/>
      <point x="324" y="81"/>
      <point x="324" y="228" type="curve"/>
      <point x="324" y="402"/>
      <point x="324" y="548"/>
      <point x="324" y="722" type="curve"/>
      <point x="254" y="722"/>
      <point x="318" y="722"/>
      <point x="248" y="722" type="curve"/>
      <point x="248" y="548"/>
      <point x="248" y="402"/>
      <point x="248" y="228" type="curve"/>
      <point x="248" y="130"/>
      <point x="224" y="57"/>
      <point x="136" y="57" type="curve"/>
      <point x="100" y="57"/>
      <point x="78" y="72"/>
      <point x="52" y="89" type="curve"/>
      <point x="20" y="46"/>
      <point x="48" y="84"/>
    </contour>
  </outline>
</glyph>
<glyph name="K" format="1">
  <advance width="681"/>
  <unicode hex="004B"/>
  <outline>
    <contour>
      <point x="517" y="722" type="curve"/>
      <point x="467" y="722"/>
      <point x="422" y="722"/>
      <point x="373" y="722" type="curve"/>
      <point x="373" y="662"/>
      <point x="373" y="722"/>
      <point x="373" y="662" type="curve"/>
      <point x="521" y="662"/>
      <point x="370" y="662"/>
      <point x="517" y="662" type="curve"/>
      <point x="517" y="722"/>
      <point x="517" y="662"/>
    </contour>
    <contour>
      <point x="529" y="0" type="curve"/>
      <point x="583" y="0"/>
      <point x="600" y="0"/>
      <point x="655" y="0" type="curve"/>
      <point x="655" y="60"/>
      <point x="655" y="0"/>
      <point x="655" y="60" type="curve"/>
      <point x="492" y="60"/>
      <point x="692" y="60"/>
      <point x="529" y="60" type="curve"/>
      <point x="529" y="0"/>
      <point x="529" y="60"/>
    </contour>
    <contour>
      <point x="508" y="662" type="curve"/>
      <point x="651" y="662"/>
      <point x="485" y="662"/>
      <point x="629" y="662" type="curve"/>
      <point x="629" y="722"/>
      <point x="629" y="662"/>
      <point x="629" y="722" type="curve"/>
      <point x="581" y="722"/>
      <point x="556" y="722"/>
      <point x="508" y="722" type="curve"/>
      <point x="508" y="662"/>
      <point x="508" y="722"/>
    </contour>
    <contour>
      <point x="173" y="722" type="curve"/>
      <point x="125" y="722"/>
      <point x="89" y="722"/>
      <point x="40" y="722" type="curve"/>
      <point x="40" y="662"/>
      <point x="40" y="722"/>
      <point x="40" y="662" type="curve"/>
      <point x="185" y="662"/>
      <point x="28" y="662"/>
      <point x="173" y="662" type="curve"/>
      <point x="173" y="722"/>
      <point x="173" y="662"/>
    </contour>
    <contour>
      <point x="173" y="662" type="curve"/>
      <point x="317" y="662"/>
      <point x="148" y="662"/>
      <point x="292" y="662" type="curve"/>
      <point x="292" y="722"/>
      <point x="292" y="662"/>
      <point x="292" y="722" type="curve"/>
      <point x="243" y="722"/>
      <point x="221" y="722"/>
      <point x="173" y="722" type="curve"/>
      <point x="173" y="662"/>
      <point x="173" y="722"/>
    </contour>
    <contour>
      <point x="173" y="0" type="curve"/>
      <point x="224" y="0"/>
      <point x="146" y="0"/>
      <point x="297" y="0" type="curve"/>
      <point x="297" y="60"/>
      <point x="297" y="0"/>
      <point x="297" y="60" type="curve"/>
      <point x="146" y="60"/>
      <point x="324" y="60"/>
      <point x="173" y="60" type="curve"/>
      <point x="173" y="0"/>
      <point x="173" y="60"/>
    </contour>
    <contour>
      <point x="173" y="60" type="curve"/>
      <point x="28" y="60"/>
      <point x="185" y="60"/>
      <point x="40" y="60" type="curve"/>
      <point x="40" y="0"/>
      <point x="40" y="60"/>
      <point x="40" y="0" type="curve"/>
      <point x="89" y="0"/>
      <point x="125" y="0"/>
      <point x="173" y="0" type="curve"/>
      <point x="173" y="60"/>
      <point x="173" y="0"/>
    </contour>
    <contour>
      <point x="498" y="722" type="curve"/>
      <point x="193" y="380" type="line"/>
      <point x="283" y="380"/>
      <point x="191" y="380"/>
      <point x="281" y="380" type="curve"/>
      <point x="567" y="697" type="line"/>
      <point x="487" y="697"/>
      <point x="578" y="722"/>
    </contour>
    <contour>
      <point x="212" y="0" type="curve"/>
      <point x="212" y="722" type="line"/>
      <point x="136" y="722"/>
      <point x="212" y="722"/>
      <point x="136" y="722" type="curve"/>
      <point x="136" y="481"/>
      <point x="136" y="241"/>
      <point x="136" y="0" type="curve"/>
      <point x="212" y="0"/>
      <point x="136" y="0"/>
    </contour>
    <contour>
      <point x="593" y="22" type="curve"/>
      <point x="281" y="380" type="line"/>
      <point x="191" y="380"/>
      <point x="283" y="380"/>
      <point x="193" y="380" type="curve"/>
      <point x="518" y="0" type="line"/>
      <point x="605" y="0"/>
      <point x="507" y="22"/>
    </contour>
    <contour>
      <point x="377" y="-33" type="move" name="bottom"/>
    </contour>
  </outline>
</glyph>
<glyph name="M" format="1">
  <advance width="914"/>
  <unicode hex="004D"/>
  <outline>
    <contour>
      <point x="760" y="0" type="curve"/>
      <point x="808" y="0"/>
      <point x="844" y="0"/>
      <point x="891" y="0" type="curve"/>
      <point x="891" y="60"/>
      <point x="891" y="0"/>
      <point x="891" y="60" type="curve"/>
      <point x="748" y="60"/>
      <point x="903" y="60"/>
      <point x="760" y="60" type="curve"/>
      <point x="760" y="0"/>
      <point x="760" y="60"/>
    </contour>
    <contour>
      <point x="760" y="60" type="curve"/>
      <point x="620" y="60"/>
      <point x="772" y="60"/>
      <point x="632" y="60" type="curve"/>
      <point x="632" y="0"/>
      <point x="632" y="60"/>
      <point x="632" y="0" type="curve"/>
      <point x="679" y="0"/>
      <point x="713" y="0"/>
      <point x="760" y="0" type="curve"/>
      <point x="760" y="60"/>
      <point x="760" y="0"/>
    </contour>
    <contour>
      <point x="155" y="60" type="curve"/>
      <point x="11" y="60"/>
      <point x="167" y="60"/>
      <point x="23" y="60" type="curve"/>
      <point x="23" y="0"/>
      <point x="23" y="60"/>
      <point x="23" y="0" type="curve"/>
      <point x="71" y="0"/>
      <point x="107" y="0"/>
      <point x="155" y="0" type="curve"/>
      <point x="155" y="60"/>
      <point x="155" y="0"/>
    </contour>
    <contour>
      <point x="206" y="722" type="curve"/>
      <point x="158" y="722"/>
      <point x="122" y="722"/>
      <point x="74" y="722" type="curve"/>
      <point x="74" y="662"/>
      <point x="74" y="722"/>
      <point x="74" y="662" type="curve"/>
      <point x="218" y="662"/>
      <point x="62" y="662"/>
      <point x="206" y="662" type="curve"/>
      <point x="206" y="722"/>
      <point x="206" y="662"/>
    </contour>
    <contour>
      <point x="708" y="662" type="curve"/>
      <point x="851" y="662"/>
      <point x="696" y="662"/>
      <point x="839" y="662" type="curve"/>
      <point x="839" y="722"/>
      <point x="839" y="662"/>
      <point x="839" y="722" type="curve"/>
      <point x="791" y="722"/>
      <point x="755" y="722"/>
      <point x="708" y="722" type="curve"/>
      <point x="708" y="662"/>
      <point x="708" y="722"/>
    </contour>
    <contour>
      <point x="155" y="0" type="curve"/>
      <point x="201" y="0"/>
      <point x="143" y="0"/>
      <point x="283" y="0" type="curve"/>
      <point x="283" y="60"/>
      <point x="283" y="0"/>
      <point x="283" y="60" type="curve"/>
      <point x="143" y="60"/>
      <point x="295" y="60"/>
      <point x="155" y="60" type="curve"/>
      <point x="155" y="0"/>
      <point x="155" y="60"/>
    </contour>
    <contour>
      <point x="801" y="0" type="curve"/>
      <point x="783" y="241"/>
      <point x="762" y="481"/>
      <point x="744" y="722" type="curve"/>
      <point x="675" y="722"/>
      <point x="744" y="722"/>
      <point x="675" y="722" type="curve"/>
      <point x="692" y="481"/>
      <point x="708" y="241"/>
      <point x="725" y="0" type="curve"/>
      <point x="801" y="0"/>
      <point x="725" y="0"/>
    </contour>
    <contour>
      <point x="188" y="0" type="curve"/>
      <point x="204" y="241"/>
      <point x="221" y="481"/>
      <point x="237" y="722" type="curve"/>
      <point x="170" y="722"/>
      <point x="237" y="722"/>
      <point x="170" y="722" type="curve"/>
      <point x="152" y="481"/>
      <point x="135" y="241"/>
      <point x="118" y="0" type="curve"/>
      <point x="188" y="0"/>
      <point x="118" y="0"/>
    </contour>
    <contour>
      <point x="488" y="0" type="curve"/>
      <point x="405" y="241"/>
      <point x="322" y="481"/>
      <point x="240" y="722" type="curve"/>
      <point x="172" y="722"/>
      <point x="239" y="722"/>
      <point x="172" y="722" type="curve"/>
      <point x="254" y="481"/>
      <point x="336" y="241"/>
      <point x="419" y="0" type="curve"/>
      <point x="488" y="0"/>
      <point x="419" y="0"/>
    </contour>
    <contour>
      <point x="496" y="0" type="curve"/>
      <point x="577" y="241"/>
      <point x="658" y="481"/>
      <point x="739" y="722" type="curve"/>
      <point x="671" y="722"/>
      <point x="738" y="722"/>
      <point x="671" y="722" type="curve"/>
      <point x="589" y="481"/>
      <point x="507" y="241"/>
      <point x="426" y="0" type="curve"/>
      <point x="496" y="0"/>
      <point x="426" y="0"/>
    </contour>
  </outline>
</glyph>
<glyph name="N" format="1">
  <advance width="811"/>
  <unicode hex="004E"/>
  <outline>
    <contour>
      <point x="175" y="722" type="curve"/>
      <point x="126" y="722"/>
      <point x="90" y="722"/>
      <point x="41" y="722" type="curve"/>
      <point x="41" y="662"/>
      <point x="41" y="722"/>
      <point x="41" y="662" type="curve"/>
      <point x="187" y="662"/>
      <point x="30" y="662"/>
      <point x="175" y="662" type="curve"/>
      <point x="175" y="722"/>
      <point x="175" y="662"/>
    </contour>
    <contour>
      <point x="650" y="662" type="curve"/>
      <point x="795" y="662"/>
      <point x="638" y="662"/>
      <point x="783" y="662" type="curve"/>
      <point x="783" y="722"/>
      <point x="783" y="662"/>
      <point x="783" y="722" type="curve"/>
      <point x="735" y="722"/>
      <point x="698" y="722"/>
      <point x="650" y="722" type="curve"/>
      <point x="650" y="662"/>
      <point x="650" y="722"/>
    </contour>
    <contour>
      <point x="652" y="722" type="curve"/>
      <point x="605" y="722"/>
      <point x="569" y="722"/>
      <point x="521" y="722" type="curve"/>
      <point x="521" y="662"/>
      <point x="521" y="722"/>
      <point x="521" y="662" type="curve"/>
      <point x="664" y="662"/>
      <point x="509" y="662"/>
      <point x="652" y="662" type="curve"/>
      <point x="652" y="722"/>
      <point x="652" y="662"/>
    </contour>
    <contour>
      <point x="174" y="60" type="curve"/>
      <point x="29" y="60"/>
      <point x="186" y="60"/>
      <point x="41" y="60" type="curve"/>
      <point x="40" y="0"/>
      <point x="41" y="60"/>
      <point x="40" y="0" type="curve"/>
      <point x="89" y="0"/>
      <point x="125" y="0"/>
      <point x="174" y="0" type="curve"/>
      <point x="174" y="60"/>
      <point x="174" y="0"/>
    </contour>
    <contour>
      <point x="174" y="0" type="curve"/>
      <point x="221" y="0"/>
      <point x="162" y="0"/>
      <point x="305" y="0" type="curve"/>
      <point x="305" y="60"/>
      <point x="305" y="0"/>
      <point x="305" y="60" type="curve"/>
      <point x="162" y="60"/>
      <point x="317" y="60"/>
      <point x="174" y="60" type="curve"/>
      <point x="174" y="0"/>
      <point x="174" y="60"/>
    </contour>
    <contour>
      <point x="689" y="0" type="curve"/>
      <point x="531" y="241"/>
      <point x="375" y="481"/>
      <point x="218" y="722" type="curve"/>
      <point x="133" y="722"/>
      <point x="218" y="722"/>
      <point x="133" y="722" type="curve"/>
      <point x="290" y="481"/>
      <point x="447" y="241"/>
      <point x="604" y="0" type="curve"/>
      <point x="688" y="0"/>
      <point x="604" y="0"/>
    </contour>
    <contour>
      <point x="613" y="722" type="curve"/>
      <point x="613" y="481"/>
      <point x="613" y="241"/>
      <point x="613" y="0" type="curve"/>
      <point x="689" y="0"/>
      <point x="613" y="0"/>
      <point x="689" y="0" type="curve"/>
      <point x="689" y="241"/>
      <point x="689" y="481"/>
      <point x="689" y="722" type="curve"/>
      <point x="613" y="722"/>
      <point x="689" y="722"/>
    </contour>
    <contour>
      <point x="212" y="0" type="curve"/>
      <point x="212" y="241"/>
      <point x="212" y="481"/>
      <point x="212" y="722" type="curve"/>
      <point x="136" y="722"/>
      <point x="212" y="722"/>
      <point x="136" y="722" type="curve"/>
      <point x="136" y="481"/>
      <point x="136" y="241"/>
      <point x="136" y="0" type="curve"/>
      <point x="212" y="0"/>
      <point x="136" y="0"/>
    </contour>
    <contour>
      <point x="414" y="806" type="move" name="top"/>
    </contour>
    <contour>
      <point x="433" y="-33" type="move" name="bottom"/>
    </contour>
  </outline>
</glyph>
<glyph name="P" format="1">
  <advance width="591"/>
  <unicode hex="0050"/>
  <outline>
    <contour>
      <point x="186" y="722" type="curve"/>
      <point x="139" y="722"/>
      <point x="100" y="722"/>
      <point x="52" y="722" type="curve"/>
      <point x="52" y="662"/>
      <point x="52" y="722"/>
      <point x="52" y="662" type="curve"/>
      <point x="195" y="662"/>
      <point x="43" y="662"/>
      <point x="186" y="662" type="curve"/>
      <point x="186" y="722"/>
      <point x="186" y="662"/>
    </contour>
    <contour>
      <point x="186" y="60" type="curve"/>
      <point x="43" y="60"/>
      <point x="195" y="60"/>
      <point x="52" y="60" type="curve"/>
      <point x="52" y="0"/>
      <point x="52" y="60"/>
      <point x="52" y="0" type="curve"/>
      <point x="100" y="0"/>
      <point x="139" y="0"/>
      <point x="186" y="0" type="curve"/>
      <point x="186" y="60"/>
      <point x="186" y="0"/>
    </contour>
    <contour>
      <point x="186" y="0" type="curve"/>
      <point x="234" y="0"/>
      <point x="178" y="0"/>
      <point x="320" y="0" type="curve"/>
      <point x="320" y="60"/>
      <point x="320" y="0"/>
      <point x="320" y="60" type="curve"/>
      <point x="178" y="60"/>
      <point x="329" y="60"/>
      <point x="186" y="60" type="curve"/>
      <point x="186" y="0"/>
      <point x="186" y="60"/>
    </contour>
    <contour>
      <point x="176" y="313" type="curve"/>
      <point x="224" y="286"/>
      <point x="276" y="267"/>
      <point x="334" y="267" type="curve"/>
      <point x="464" y="269"/>
      <point x="543" y="349"/>
      <point x="543" y="487" type="curve"/>
      <point x="543" y="630"/>
      <point x="450" y="722"/>
      <point x="306" y="722" type="curve"/>
      <point x="267" y="722"/>
      <point x="228" y="722"/>
      <point x="189" y="722" type="curve"/>
      <point x="189" y="662"/>
      <point x="189" y="722"/>
      <point x="189" y="662" type="curve"/>
      <point x="224" y="662"/>
      <point x="260" y="662"/>
      <point x="295" y="662" type="curve"/>
      <point x="402" y="662"/>
      <point x="467" y="594"/>
      <point x="467" y="488" type="curve"/>
      <point x="467" y="391"/>
      <point x="417" y="326"/>
      <point x="327" y="326" type="curve"/>
      <point x="277" y="326"/>
      <point x="243" y="340"/>
      <point x="200" y="364" type="curve"/>
      <point x="176" y="314"/>
      <point x="200" y="364"/>
    </contour>
    <contour>
      <point x="223" y="0" type="curve"/>
      <point x="223" y="241"/>
      <point x="223" y="481"/>
      <point x="223" y="722" type="curve"/>
      <point x="147" y="722"/>
      <point x="223" y="722"/>
      <point x="147" y="722" type="curve"/>
      <point x="147" y="481"/>
      <point x="147" y="241"/>
      <point x="147" y="0" type="curve"/>
      <point x="223" y="0"/>
      <point x="147" y="0"/>
    </contour>
  </outline>
</glyph>
<glyph name="Q" format="1">
  <advance width="714"/>
  <unicode hex="0051"/>
  <outline>
    <contour>
      <point x="328" y="14" type="curve"/>
      <point x="418" y="-157"/>
      <point x="527" y="-228"/>
      <point x="709" y="-228" type="curve"/>
      <point x="709" y="-165"/>
      <point x="709" y="-228"/>
      <point x="709" y="-165" type="curve"/>
      <point x="557" y="-165"/>
      <point x="470" y="-101"/>
      <point x="393" y="44" type="curve"/>
      <point x="328" y="14"/>
      <point x="393" y="44"/>
    </contour>
    <contour>
      <point x="136" y="360" type="curve"/>
      <point x="136" y="530"/>
      <point x="196" y="662"/>
      <point x="351" y="662" type="curve"/>
      <point x="507" y="662"/>
      <point x="569" y="532"/>
      <point x="569" y="362" type="curve"/>
      <point x="569" y="191"/>
      <point x="512" y="58"/>
      <point x="356" y="58" type="curve"/>
      <point x="198" y="58"/>
      <point x="136" y="189"/>
      <point x="136" y="360" type="curve"/>
      <point x="60" y="360"/>
      <point x="136" y="360"/>
      <point x="60" y="360" type="curve"/>
      <point x="60" y="149"/>
      <point x="155" y="-5"/>
      <point x="353" y="-5" type="curve"/>
      <point x="552" y="-5"/>
      <point x="645" y="152"/>
      <point x="645" y="365" type="curve"/>
      <point x="645" y="575"/>
      <point x="553" y="729"/>
      <point x="356" y="729" type="curve"/>
      <point x="156" y="729"/>
      <point x="60" y="573"/>
      <point x="60" y="360" type="curve"/>
      <point x="136" y="360"/>
      <point x="60" y="360"/>
    </contour>
  </outline>
</glyph>
<glyph name="T" format="1">
  <advance width="622"/>
  <unicode hex="0054"/>
  <outline>
    <contour>
      <point x="38" y="691" type="curve"/>
      <point x="38" y="571"/>
      <point x="38" y="696"/>
      <point x="38" y="576" type="curve"/>
      <point x="98" y="576"/>
      <point x="38" y="576"/>
      <point x="98" y="576" type="curve"/>
      <point x="98" y="696"/>
      <point x="98" y="571"/>
      <point x="98" y="691" type="curve"/>
      <point x="38" y="691"/>
      <point x="98" y="691"/>
    </contour>
    <contour>
      <point x="524" y="691" type="curve"/>
      <point x="524" y="571"/>
      <point x="524" y="696"/>
      <point x="524" y="576" type="curve"/>
      <point x="585" y="576"/>
      <point x="524" y="576"/>
      <point x="585" y="576" type="curve"/>
      <point x="585" y="696"/>
      <point x="585" y="571"/>
      <point x="585" y="691" type="curve"/>
      <point x="524" y="691"/>
      <point x="585" y="691"/>
    </contour>
    <contour>
      <point x="310" y="0" type="curve"/>
      <point x="357" y="0"/>
      <point x="399" y="0"/>
      <point x="445" y="0" type="curve"/>
      <point x="445" y="60"/>
      <point x="445" y="0"/>
      <point x="445" y="60" type="curve"/>
      <point x="306" y="60"/>
      <point x="449" y="60"/>
      <point x="310" y="60" type="curve"/>
      <point x="310" y="0"/>
      <point x="310" y="60"/>
    </contour>
    <contour>
      <point x="310" y="60" type="curve"/>
      <point x="172" y="60"/>
      <point x="314" y="60"/>
      <point x="176" y="60" type="curve"/>
      <point x="176" y="0"/>
      <point x="176" y="60"/>
      <point x="176" y="0" type="curve"/>
      <point x="222" y="0"/>
      <point x="264" y="0"/>
      <point x="310" y="0" type="curve"/>
      <point x="310" y="60"/>
      <point x="310" y="0"/>
    </contour>
    <contour>
      <point x="349" y="0" type="curve"/>
      <point x="349" y="237"/>
      <point x="349" y="473"/>
      <point x="349" y="710" type="curve"/>
      <point x="273" y="710"/>
      <point x="349" y="710"/>
      <point x="273" y="710" type="curve"/>
      <point x="273" y="473"/>
      <point x="273" y="237"/>
      <point x="273" y="0" type="curve"/>
      <point x="349" y="0"/>
      <point x="273" y="0"/>
    </contour>
    <contour>
      <point x="38" y="658" type="curve"/>
      <point x="220" y="658"/>
      <point x="403" y="658"/>
      <point x="585" y="658" type="curve"/>
      <point x="585" y="724"/>
      <point x="585" y="656"/>
      <point x="585" y="722" type="curve"/>
      <point x="403" y="722"/>
      <point x="220" y="722"/>
      <point x="38" y="722" type="curve"/>
      <point x="38" y="656"/>
      <point x="38" y="724"/>
    </contour>
    <contour>
      <point x="310" y="806" type="move" name="top"/>
    </contour>
    <contour>
      <point x="337" y="-33" type="move" name="bottom"/>
    </contour>
  </outline>
</glyph>
<glyph name="X" format="1">
  <advance width="685"/>
  <unicode hex="0058"/>
  <outline>
    <contour>
      <point x="141" y="0" type="curve"/>
      <point x="187" y="0"/>
      <point x="137" y="0"/>
      <point x="276" y="0" type="curve"/>
      <point x="276" y="60"/>
      <point x="276" y="0"/>
      <point x="276" y="60" type="curve"/>
      <point x="137" y="60"/>
      <point x="280" y="60"/>
      <point x="141" y="60" type="curve"/>
      <point x="141" y="0"/>
      <point x="141" y="60"/>
    </contour>
    <contour>
      <point x="135" y="60" type="curve"/>
      <point x="2" y="60"/>
      <point x="139" y="60"/>
      <point x="6" y="60" type="curve"/>
      <point x="6" y="0"/>
      <point x="6" y="60"/>
      <point x="6" y="0" type="curve"/>
      <point x="50" y="0"/>
      <point x="91" y="0"/>
      <point x="135" y="0" type="curve"/>
      <point x="135" y="60"/>
      <point x="135" y="0"/>
    </contour>
    <contour>
      <point x="546" y="0" type="curve"/>
      <point x="591" y="0"/>
      <point x="632" y="0"/>
      <point x="676" y="0" type="curve"/>
      <point x="676" y="60"/>
      <point x="676" y="0"/>
      <point x="676" y="60" type="curve"/>
      <point x="543" y="60"/>
      <point x="679" y="60"/>
      <point x="546" y="60" type="curve"/>
      <point x="546" y="0"/>
      <point x="546" y="60"/>
    </contour>
    <contour>
      <point x="540" y="60" type="curve"/>
      <point x="402" y="60"/>
      <point x="544" y="60"/>
      <point x="406" y="60" type="curve"/>
      <point x="406" y="0"/>
      <point x="406" y="60"/>
      <point x="406" y="0" type="curve"/>
      <point x="452" y="0"/>
      <point x="494" y="0"/>
      <point x="540" y="0" type="curve"/>
      <point x="540" y="60"/>
      <point x="540" y="0"/>
    </contour>
    <contour>
      <point x="525" y="662" type="curve"/>
      <point x="658" y="662"/>
      <point x="521" y="662"/>
      <point x="654" y="662" type="curve"/>
      <point x="654" y="722"/>
      <point x="654" y="662"/>
      <point x="654" y="722" type="curve"/>
      <point x="610" y="722"/>
      <point x="569" y="722"/>
      <point x="525" y="722" type="curve"/>
      <point x="525" y="662"/>
      <point x="525" y="722"/>
    </contour>
    <contour>
      <point x="530" y="722" type="curve"/>
      <point x="483" y="722"/>
      <point x="439" y="722"/>
      <point x="392" y="722" type="curve"/>
      <point x="392" y="662"/>
      <point x="392" y="722"/>
      <point x="392" y="662" type="curve"/>
      <point x="534" y="662"/>
      <point x="388" y="662"/>
      <point x="530" y="662" type="curve"/>
      <point x="530" y="722"/>
      <point x="530" y="662"/>
    </contour>
    <contour>
      <point x="161" y="722" type="curve"/>
      <point x="117" y="722"/>
      <point x="76" y="722"/>
      <point x="32" y="722" type="curve"/>
      <point x="32" y="662"/>
      <point x="32" y="722"/>
      <point x="32" y="662" type="curve"/>
      <point x="165" y="662"/>
      <point x="28" y="662"/>
      <point x="161" y="662" type="curve"/>
      <point x="161" y="722"/>
      <point x="161" y="662"/>
    </contour>
    <contour>
      <point x="156" y="662" type="curve"/>
      <point x="298" y="662"/>
      <point x="153" y="662"/>
      <point x="294" y="662" type="curve"/>
      <point x="294" y="722"/>
      <point x="294" y="662"/>
      <point x="294" y="722" type="curve"/>
      <point x="247" y="722"/>
      <point x="204" y="722"/>
      <point x="156" y="722" type="curve"/>
      <point x="156" y="662"/>
      <point x="156" y="722"/>
    </contour>
    <contour>
      <point x="512" y="722" type="curve"/>
      <point x="367" y="483"/>
      <point x="221" y="245"/>
      <point x="76" y="6" type="curve"/>
      <point x="154" y="6"/>
      <point x="76" y="0"/>
      <point x="154" y="0" type="curve"/>
      <point x="299" y="239"/>
      <point x="442" y="478"/>
      <point x="587" y="717" type="curve"/>
      <point x="512" y="717"/>
      <point x="587" y="722"/>
    </contour>
    <contour>
      <point x="101" y="717" type="curve"/>
      <point x="244" y="478"/>
      <point x="387" y="239"/>
      <point x="530" y="0" type="curve"/>
      <point x="608" y="0"/>
      <point x="530" y="4"/>
      <point x="608" y="4" type="curve"/>
      <point x="464" y="244"/>
      <point x="320" y="482"/>
      <point x="176" y="722" type="curve"/>
      <point x="101" y="722"/>
      <point x="176" y="717"/>
    </contour>
  </outline>
</glyph>
<glyph name="bracketleft" format="1">
  <advance width="287"/>
  <unicode hex="005B"/>
  <outline>
    <contour>
      <point x="244" y="770" type="curve"/>
      <point x="200" y="770"/>
      <point x="155" y="770"/>
      <point x="110" y="770" type="curve"/>
      <point x="101" y="770"/>
      <point x="86" y="770"/>
      <point x="78" y="770" type="curve"/>
      <point x="78" y="762"/>
      <point x="78" y="751"/>
      <point x="78" y="743" type="curve"/>
      <point x="78" y="464"/>
      <point x="78" y="185"/>
      <point x="78" y="-94" type="curve"/>
      <point x="78" y="-102"/>
      <point x="78" y="-109"/>
      <point x="78" y="-119" type="curve"/>
      <point x="85" y="-119"/>
      <point x="100" y="-119"/>
      <point x="109" y="-119" type="curve"/>
      <point x="154" y="-119"/>
      <point x="199" y="-119"/>
      <point x="244" y="-119" type="curve"/>
      <point x="244" y="-53"/>
      <point x="244" y="-119"/>
      <point x="244" y="-53" type="curve"/>
      <point x="199" y="-53"/>
      <point x="154" y="-53"/>
      <point x="109" y="-53" type="curve"/>
      <point x="154" y="-53"/>
      <point x="109" y="-53"/>
      <point x="154" y="-53" type="curve"/>
      <point x="154" y="-94"/>
      <point x="154" y="-53"/>
      <point x="154" y="-94" type="curve"/>
      <point x="154" y="185"/>
      <point x="154" y="464"/>
      <point x="154" y="743" type="curve"/>
      <point x="154" y="705"/>
      <point x="154" y="743"/>
      <point x="154" y="705" type="curve"/>
      <point x="110" y="705"/>
      <point x="154" y="705"/>
      <point x="110" y="705" type="curve"/>
      <point x="155" y="705"/>
      <point x="200" y="705"/>
      <point x="244" y="705" type="curve"/>
      <point x="244" y="770"/>
      <point x="244" y="705"/>
    </contour>
  </outline>
</glyph>
<glyph name="backslash" format="1">
  <advance width="495"/>
  <unicode hex="005C"/>
  <outline>
    <contour>
      <point x="460" y="-68" type="curve"/>
      <point x="345" y="236"/>
      <point x="230" y="540"/>
      <point x="115" y="844" type="curve"/>
      <point x="35" y="844"/>
      <point x="115" y="844"/>
      <point x="35" y="844" type="curve"/>
      <point x="150" y="540"/>
      <point x="266" y="236"/>
      <point x="381" y="-68" type="curve"/>
      <point x="460" y="-68"/>
      <point x="381" y="-68"/>
    </contour>
  </outline>
</glyph>
<glyph name="bracketright" format="1">
  <advance width="288"/>
  <unicode hex="005D"/>
  <outline>
    <contour>
      <point x="43" y="705" type="curve"/>
      <point x="88" y="705"/>
      <point x="133" y="705"/>
      <point x="178" y="705" type="curve"/>
      <point x="171" y="711"/>
      <point x="160" y="714"/>
      <point x="153" y="721" type="curve"/>
      <point x="146" y="728"/>
      <point x="140" y="736"/>
      <point x="134" y="743" type="curve"/>
      <point x="134" y="464"/>
      <point x="133" y="185"/>
      <point x="134" y="-94" type="curve"/>
      <point x="141" y="-86"/>
      <point x="148" y="-79"/>
      <point x="156" y="-71" type="curve"/>
      <point x="162" y="-64"/>
      <point x="172" y="-61"/>
      <point x="179" y="-53" type="curve"/>
      <point x="133" y="-53"/>
      <point x="88" y="-53"/>
      <point x="43" y="-53" type="curve"/>
      <point x="43" y="-119"/>
      <point x="43" y="-53"/>
      <point x="43" y="-119" type="curve"/>
      <point x="88" y="-119"/>
      <point x="133" y="-119"/>
      <point x="179" y="-119" type="curve"/>
      <point x="210" y="-119"/>
      <point x="179" y="-119"/>
      <point x="210" y="-119" type="curve"/>
      <point x="210" y="-94"/>
      <point x="210" y="-119"/>
      <point x="210" y="-94" type="curve"/>
      <point x="210" y="185"/>
      <point x="210" y="464"/>
      <point x="210" y="743" type="curve"/>
      <point x="210" y="770"/>
      <point x="210" y="743"/>
      <point x="210" y="770" type="curve"/>
      <point x="178" y="770"/>
      <point x="210" y="770"/>
      <point x="178" y="770" type="curve"/>
      <point x="133" y="770"/>
      <point x="88" y="770"/>
      <point x="43" y="770" type="curve"/>
      <point x="43" y="705"/>
      <point x="43" y="770"/>
    </contour>
  </outline>
</glyph>
<glyph name="asciicircum" format="1">
  <advance width="508"/>
  <unicode hex="005E"/>
  <outline>
    <contour>
      <point x="138" y="460" type="curve"/>
      <point x="189" y="569"/>
      <point x="241" y="677"/>
      <point x="292" y="786" type="curve"/>
      <point x="216" y="786"/>
      <point x="291" y="786"/>
      <point x="216" y="786" type="curve"/>
      <point x="164" y="677"/>
      <point x="113" y="569"/>
      <point x="62" y="460" type="curve"/>
      <point x="138" y="460"/>
      <point x="62" y="460"/>
    </contour>
    <contour>
      <point x="447" y="460" type="curve"/>
      <point x="397" y="566"/>
      <point x="343" y="680"/>
      <point x="292" y="786" type="curve"/>
      <point x="216" y="786"/>
      <point x="292" y="786"/>
      <point x="216" y="786" type="curve"/>
      <point x="266" y="680"/>
      <point x="320" y="566"/>
      <point x="371" y="460" type="curve"/>
      <point x="447" y="460"/>
      <point x="371" y="460"/>
    </contour>
  </outline>
</glyph>
<glyph name="underscore" format="1">
  <advance width="602"/>
  <unicode hex="005F"/>
  <outline>
    <contour>
      <point x="0" y="-198" type="curve"/>
      <point x="201" y="-198"/>
      <point x="402" y="-198"/>
      <point x="602" y="-198" type="curve"/>
      <point x="602" y="-139"/>
      <point x="602" y="-198"/>
      <point x="602" y="-139" type="curve"/>
      <point x="402" y="-139"/>
      <point x="201" y="-139"/>
      <point x="0" y="-139" type="curve"/>
      <point x="0" y="-198"/>
      <point x="0" y="-139"/>
    </contour>
  </outline>
</glyph>
<glyph name="grave" format="1">
  <advance width="373"/>
  <unicode hex="0060"/>
  <outline>
    <contour>
      <point x="253" y="584" type="line"/>
      <point x="153" y="750" type="line"/>
      <point x="57" y="750" type="line"/>
      <point x="178" y="584" type="line"/>
    </contour>
    <contour>
      <point x="213" y="584" type="move" name="_top"/>
    </contour>
  </outline>
</glyph>
<glyph name="b" format="1">
  <advance width="614"/>
  <unicode hex="0062"/>
  <outline>
    <contour>
      <point x="153" y="800" type="curve"/>
      <point x="106" y="800"/>
      <point x="65" y="800"/>
      <point x="19" y="800" type="curve"/>
      <point x="18" y="748"/>
      <point x="19" y="792"/>
      <point x="18" y="740" type="curve"/>
      <point x="146" y="740"/>
      <point x="26" y="740"/>
      <point x="153" y="740" type="curve"/>
      <point x="153" y="792"/>
      <point x="153" y="748"/>
    </contour>
    <contour>
      <point x="170" y="377" type="curve"/>
      <point x="200" y="422"/>
      <point x="258" y="476"/>
      <point x="335" y="476" type="curve"/>
      <point x="439" y="476"/>
      <point x="484" y="382"/>
      <point x="484" y="265" type="curve"/>
      <point x="484" y="152"/>
      <point x="435" y="56"/>
      <point x="335" y="57" type="curve"/>
      <point x="268" y="57"/>
      <point x="215" y="94"/>
      <point x="176" y="149" type="curve"/>
      <point x="140" y="124"/>
      <point x="171" y="143"/>
      <point x="134" y="117" type="curve"/>
      <point x="186" y="45"/>
      <point x="249" y="-5"/>
      <point x="344" y="-5" type="curve"/>
      <point x="486" y="-5"/>
      <point x="560" y="110"/>
      <point x="560" y="267" type="curve"/>
      <point x="560" y="422"/>
      <point x="488" y="538"/>
      <point x="344" y="538" type="curve"/>
      <point x="246" y="538"/>
      <point x="177" y="476"/>
      <point x="137" y="414" type="curve"/>
      <point x="166" y="386"/>
      <point x="142" y="405"/>
    </contour>
    <contour>
      <point x="189" y="0" type="curve"/>
      <point x="189" y="272"/>
      <point x="189" y="528"/>
      <point x="189" y="800" type="curve"/>
      <point x="124" y="800"/>
      <point x="178" y="800"/>
      <point x="113" y="800" type="curve"/>
      <point x="113" y="528"/>
      <point x="113" y="272"/>
      <point x="113" y="0" type="curve"/>
      <point x="178" y="0"/>
      <point x="124" y="0"/>
    </contour>
    <contour>
      <point x="153" y="60" type="curve"/>
      <point x="26" y="60"/>
      <point x="146" y="60"/>
      <point x="19" y="60" type="curve"/>
      <point x="19" y="8"/>
      <point x="19" y="52"/>
      <point x="19" y="0" type="curve"/>
      <point x="65" y="0"/>
      <point x="106" y="0"/>
      <point x="153" y="0" type="curve"/>
      <point x="153" y="52"/>
      <point x="153" y="8"/>
    </contour>
  </outline>
</glyph>
<glyph name="c" format="1">
  <advance width="506"/>
  <unicode hex="0063"/>
  <outline>
    <contour>
      <point x="387" y="471" type="curve"/>
      <point x="387" y="346"/>
      <point x="387" y="476"/>
      <point x="387" y="351" type="curve"/>
      <point x="449" y="351"/>
      <point x="387" y="351"/>
      <point x="449" y="351" type="curve"/>
      <point x="449" y="476"/>
      <point x="449" y="346"/>
      <point x="449" y="471" type="curve"/>
      <point x="387" y="471"/>
      <point x="449" y="471"/>
    </contour>
    <contour>
      <point x="449" y="471" type="curve"/>
      <point x="405" y="508"/>
      <point x="349" y="538"/>
      <point x="289" y="538" type="curve"/>
      <point x="131" y="538"/>
      <point x="54" y="435"/>
      <point x="54" y="267" type="curve"/>
      <point x="54" y="99"/>
      <point x="129" y="-5"/>
      <point x="287" y="-5" type="curve"/>
      <point x="355" y="-5"/>
      <point x="418" y="28"/>
      <point x="457" y="87" type="curve"/>
      <point x="408" y="126"/>
      <point x="457" y="87"/>
      <point x="408" y="126" type="curve"/>
      <point x="379" y="90"/>
      <point x="338" y="57"/>
      <point x="290" y="57" type="curve"/>
      <point x="176" y="57"/>
      <point x="130" y="141"/>
      <point x="130" y="267" type="curve"/>
      <point x="130" y="392"/>
      <point x="176" y="476"/>
      <point x="287" y="476" type="curve"/>
      <point x="331" y="476"/>
      <point x="371" y="456"/>
      <point x="404" y="430" type="curve"/>
      <point x="449" y="471"/>
      <point x="404" y="430"/>
    </contour>
    <contour>
      <point x="281" y="645" type="move" name="top"/>
    </contour>
    <contour>
      <point x="298" y="1" type="move" name="bottom"/>
    </contour>
  </outline>
</glyph>
<glyph name="f" format="1">
  <advance width="438"/>
  <unicode hex="0066"/>
  <outline>
    <contour>
      <point x="363" y="772" type="curve"/>
      <point x="363" y="651"/>
      <point x="363" y="777"/>
      <point x="363" y="655" type="curve"/>
      <point x="423" y="655"/>
      <point x="363" y="655"/>
      <point x="423" y="655" type="curve"/>
      <point x="423" y="777"/>
      <point x="423" y="651"/>
      <point x="423" y="772" type="curve"/>
      <point x="363" y="772"/>
      <point x="423" y="772"/>
    </contour>
    <contour>
      <point x="194" y="0" type="curve"/>
      <point x="240" y="0"/>
      <point x="281" y="0"/>
      <point x="328" y="0" type="curve"/>
      <point x="328" y="60"/>
      <point x="328" y="0"/>
      <point x="328" y="60" type="curve"/>
      <point x="187" y="60"/>
      <point x="335" y="60"/>
      <point x="194" y="60" type="curve"/>
      <point x="194" y="0"/>
      <point x="194" y="60"/>
    </contour>
    <contour>
      <point x="194" y="60" type="curve"/>
      <point x="53" y="60"/>
      <point x="201" y="60"/>
      <point x="60" y="60" type="curve"/>
      <point x="60" y="0"/>
      <point x="60" y="60"/>
      <point x="60" y="0" type="curve"/>
      <point x="107" y="0"/>
      <point x="147" y="0"/>
      <point x="194" y="0" type="curve"/>
      <point x="194" y="60"/>
      <point x="194" y="0"/>
    </contour>
    <contour>
      <point x="33" y="473" type="curve"/>
      <point x="387" y="473" type="line"/>
      <point x="387" y="533"/>
      <point x="387" y="473"/>
      <point x="387" y="533" type="curve"/>
      <point x="33" y="533" type="line"/>
      <point x="33" y="473"/>
      <point x="33" y="533"/>
    </contour>
    <contour>
      <point x="232" y="0" type="curve"/>
      <point x="232" y="625" type="line"/>
      <point x="232" y="694"/>
      <point x="255" y="747"/>
      <point x="318" y="747" type="curve"/>
      <point x="345" y="747"/>
      <point x="370" y="737"/>
      <point x="393" y="725" type="curve"/>
      <point x="423" y="772"/>
      <point x="393" y="725"/>
      <point x="423" y="772" type="curve"/>
      <point x="391" y="790"/>
      <point x="355" y="804"/>
      <point x="318" y="804" type="curve"/>
      <point x="214" y="804"/>
      <point x="155" y="731"/>
      <point x="156" y="625" type="curve"/>
      <point x="156" y="0" type="line"/>
      <point x="232" y="0"/>
      <point x="156" y="0"/>
    </contour>
  </outline>
</glyph>
<glyph name="h" format="1">
  <advance width="608"/>
  <unicode hex="0068"/>
  <outline>
    <contour>
      <point x="469" y="0" type="curve"/>
      <point x="516" y="0"/>
      <point x="556" y="0"/>
      <point x="603" y="0" type="curve"/>
      <point x="603" y="60"/>
      <point x="603" y="0"/>
      <point x="603" y="60" type="curve"/>
      <point x="462" y="60"/>
      <point x="611" y="60"/>
      <point x="469" y="60" type="curve"/>
      <point x="469" y="0"/>
      <point x="469" y="60"/>
    </contour>
    <contour>
      <point x="142" y="0" type="curve"/>
      <point x="183" y="0"/>
      <point x="135" y="0"/>
      <point x="259" y="0" type="curve"/>
      <point x="259" y="60"/>
      <point x="259" y="0"/>
      <point x="259" y="60" type="curve"/>
      <point x="135" y="60"/>
      <point x="266" y="60"/>
      <point x="142" y="60" type="curve"/>
      <point x="142" y="0"/>
      <point x="142" y="60"/>
    </contour>
    <contour>
      <point x="142" y="800" type="curve"/>
      <point x="95" y="800"/>
      <point x="54" y="800"/>
      <point x="8" y="800" type="curve"/>
      <point x="7" y="740"/>
      <point x="8" y="800"/>
      <point x="7" y="740" type="curve"/>
      <point x="149" y="740"/>
      <point x="0" y="740"/>
      <point x="142" y="740" type="curve"/>
      <point x="142" y="800"/>
      <point x="142" y="740"/>
    </contour>
    <contour>
      <point x="142" y="60" type="curve"/>
      <point x="0" y="60"/>
      <point x="149" y="60"/>
      <point x="8" y="60" type="curve"/>
      <point x="7" y="0"/>
      <point x="8" y="60"/>
      <point x="7" y="0" type="curve"/>
      <point x="54" y="0"/>
      <point x="95" y="0"/>
      <point x="142" y="0" type="curve"/>
      <point x="142" y="60"/>
      <point x="142" y="0"/>
    </contour>
    <contour>
      <point x="162" y="327" type="curve"/>
      <point x="186" y="405"/>
      <point x="245" y="477"/>
      <point x="323" y="477" type="curve"/>
      <point x="406" y="477"/>
      <point x="432" y="413"/>
      <point x="432" y="325" type="curve"/>
      <point x="432" y="217"/>
      <point x="432" y="109"/>
      <point x="432" y="0" type="curve"/>
      <point x="508" y="0"/>
      <point x="432" y="0"/>
      <point x="508" y="0" type="curve"/>
      <point x="508" y="111"/>
      <point x="508" y="222"/>
      <point x="508" y="333" type="curve"/>
      <point x="508" y="457"/>
      <point x="460" y="536"/>
      <point x="340" y="536" type="curve"/>
      <point x="241" y="536"/>
      <point x="162" y="458"/>
      <point x="135" y="359" type="curve"/>
      <point x="164" y="328"/>
      <point x="134" y="359"/>
    </contour>
    <contour>
      <point x="180" y="0" type="curve"/>
      <point x="180" y="267"/>
      <point x="180" y="533"/>
      <point x="180" y="800" type="curve"/>
      <point x="104" y="800"/>
      <point x="180" y="800"/>
      <point x="104" y="800" type="curve"/>
      <point x="104" y="533"/>
      <point x="104" y="267"/>
      <point x="104" y="0" type="curve"/>
      <point x="180" y="0"/>
      <point x="104" y="0"/>
    </contour>
  </outline>
</glyph>
<glyph name="j" format="1">
  <advance width="285"/>
  <unicode hex="006A"/>
  <outline>
    <contour>
      <point x="156" y="533" type="curve"/>
      <point x="109" y="533"/>
      <point x="65" y="533"/>
      <point x="18" y="533" type="curve"/>
      <point x="18" y="473"/>
      <point x="18" y="533"/>
      <point x="18" y="473" type="curve"/>
      <point x="160" y="473"/>
      <point x="14" y="473"/>
      <point x="156" y="473" type="curve"/>
      <point x="156" y="533"/>
      <point x="156" y="473"/>
    </contour>
    <contour>
      <point x="-3" y="-302" type="curve"/>
      <point x="5" y="-303"/>
      <point x="15" y="-304"/>
      <point x="26" y="-304" type="curve"/>
      <point x="127" y="-304"/>
      <point x="195" y="-235"/>
      <point x="195" y="-133" type="curve"/>
      <point x="195" y="89"/>
      <point x="195" y="311"/>
      <point x="195" y="533" type="curve"/>
      <point x="119" y="533"/>
      <point x="195" y="533"/>
      <point x="119" y="533" type="curve"/>
      <point x="119" y="311"/>
      <point x="119" y="89"/>
      <point x="119" y="-133" type="curve"/>
      <point x="119" y="-193"/>
      <point x="87" y="-245"/>
      <point x="29" y="-245" type="curve"/>
      <point x="22" y="-245"/>
      <point x="14" y="-244"/>
      <point x="8" y="-243" type="curve"/>
      <point x="-3" y="-300"/>
      <point x="8" y="-245"/>
    </contour>
    <contour>
      <point x="201" y="681" type="curve"/>
      <point x="201" y="708"/>
      <point x="182" y="721"/>
      <point x="156" y="721" type="curve"/>
      <point x="130" y="721"/>
      <point x="113" y="706"/>
      <point x="113" y="681" type="curve"/>
      <point x="197" y="681"/>
      <point x="117" y="681"/>
      <point x="201" y="681" type="curve"/>
      <point x="201" y="653"/>
      <point x="182" y="640"/>
      <point x="156" y="640" type="curve"/>
      <point x="130" y="640"/>
      <point x="113" y="654"/>
      <point x="113" y="681" type="curve"/>
      <point x="197" y="681"/>
      <point x="117" y="681"/>
    </contour>
  </outline>
</glyph>
<glyph name="k" format="1">
  <advance width="560"/>
  <unicode hex="006B"/>
  <outline>
    <contour>
      <point x="141" y="60" type="curve"/>
      <point x="0" y="60"/>
      <point x="148" y="60"/>
      <point x="7" y="60" type="curve"/>
      <point x="7" y="0"/>
      <point x="7" y="60"/>
      <point x="7" y="0" type="curve"/>
      <point x="54" y="0"/>
      <point x="94" y="0"/>
      <point x="141" y="0" type="curve"/>
      <point x="141" y="60"/>
      <point x="141" y="0"/>
    </contour>
    <contour>
      <point x="416" y="0" type="curve"/>
      <point x="462" y="0"/>
      <point x="498" y="0"/>
      <point x="544" y="0" type="curve"/>
      <point x="544" y="60"/>
      <point x="544" y="0"/>
      <point x="544" y="60" type="curve"/>
      <point x="408" y="60"/>
      <point x="553" y="60"/>
      <point x="417" y="60" type="curve"/>
      <point x="417" y="0"/>
      <point x="416" y="60"/>
    </contour>
    <contour>
      <point x="408" y="473" type="curve"/>
      <point x="525" y="473"/>
      <point x="399" y="473"/>
      <point x="516" y="473" type="curve"/>
      <point x="516" y="533"/>
      <point x="516" y="473"/>
      <point x="516" y="533" type="curve"/>
      <point x="477" y="533"/>
      <point x="447" y="533"/>
      <point x="408" y="533" type="curve"/>
      <point x="408" y="473"/>
      <point x="408" y="533"/>
    </contour>
    <contour>
      <point x="141" y="0" type="curve"/>
      <point x="181" y="0"/>
      <point x="138" y="0"/>
      <point x="257" y="0" type="curve"/>
      <point x="257" y="60"/>
      <point x="257" y="0"/>
      <point x="257" y="60" type="curve"/>
      <point x="138" y="60"/>
      <point x="260" y="60"/>
      <point x="141" y="60" type="curve"/>
      <point x="141" y="0"/>
      <point x="141" y="60"/>
    </contour>
    <contour>
      <point x="420" y="533" type="curve"/>
      <point x="366" y="533"/>
      <point x="317" y="533"/>
      <point x="264" y="533" type="curve"/>
      <point x="264" y="473"/>
      <point x="264" y="533"/>
      <point x="264" y="473" type="curve"/>
      <point x="425" y="473"/>
      <point x="259" y="473"/>
      <point x="420" y="473" type="curve"/>
      <point x="420" y="533"/>
      <point x="420" y="473"/>
    </contour>
    <contour>
      <point x="143" y="800" type="curve"/>
      <point x="96" y="800"/>
      <point x="55" y="800"/>
      <point x="8" y="800" type="curve"/>
      <point x="8" y="740"/>
      <point x="8" y="800"/>
      <point x="8" y="740" type="curve"/>
      <point x="150" y="740"/>
      <point x="1" y="740"/>
      <point x="143" y="740" type="curve"/>
      <point x="143" y="800"/>
      <point x="143" y="740"/>
    </contour>
    <contour>
      <point x="179" y="0" type="curve"/>
      <point x="179" y="800" type="line"/>
      <point x="103" y="800"/>
      <point x="179" y="800"/>
      <point x="103" y="800" type="curve"/>
      <point x="103" y="533"/>
      <point x="103" y="267"/>
      <point x="103" y="0" type="curve"/>
      <point x="179" y="0"/>
      <point x="103" y="0"/>
    </contour>
    <contour>
      <point x="389" y="533" type="curve"/>
      <point x="160" y="275" type="line"/>
      <point x="246" y="275"/>
      <point x="158" y="275"/>
      <point x="244" y="275" type="curve"/>
      <point x="463" y="512" type="line"/>
      <point x="381" y="512"/>
      <point x="472" y="533"/>
    </contour>
    <contour>
      <point x="482" y="28" type="curve"/>
      <point x="244" y="275" type="line"/>
      <point x="158" y="275"/>
      <point x="245" y="275"/>
      <point x="160" y="275" type="curve"/>
      <point x="411" y="0" type="line"/>
      <point x="492" y="0"/>
      <point x="401" y="28"/>
    </contour>
    <contour>
      <point x="341" y="-34" type="move" name="bottom"/>
    </contour>
  </outline>
</glyph>
<glyph name="m" format="1">
  <advance width="913"/>
  <unicode hex="006D"/>
  <outline>
    <contour>
      <point x="469" y="0" type="curve"/>
      <point x="585" y="0"/>
      <point x="470" y="0"/>
      <point x="586" y="0" type="curve"/>
      <point x="586" y="60"/>
      <point x="586" y="0"/>
      <point x="586" y="60" type="curve"/>
      <point x="470" y="60"/>
      <point x="585" y="60"/>
      <point x="469" y="60" type="curve"/>
      <point x="469" y="0"/>
      <point x="469" y="60"/>
    </contour>
    <contour>
      <point x="763" y="0" type="curve"/>
      <point x="808" y="0"/>
      <point x="849" y="0"/>
      <point x="894" y="0" type="curve"/>
      <point x="894" y="60"/>
      <point x="894" y="0"/>
      <point x="894" y="60" type="curve"/>
      <point x="759" y="60"/>
      <point x="898" y="60"/>
      <point x="763" y="60" type="curve"/>
      <point x="763" y="0"/>
      <point x="763" y="60"/>
    </contour>
    <contour>
      <point x="176" y="60" type="curve"/>
      <point x="38" y="60"/>
      <point x="180" y="60"/>
      <point x="42" y="60" type="curve"/>
      <point x="42" y="0"/>
      <point x="42" y="60"/>
      <point x="42" y="0" type="curve"/>
      <point x="88" y="0"/>
      <point x="130" y="0"/>
      <point x="176" y="0" type="curve"/>
      <point x="176" y="60"/>
      <point x="176" y="0"/>
    </contour>
    <contour>
      <point x="176" y="0" type="curve"/>
      <point x="216" y="0"/>
      <point x="168" y="0"/>
      <point x="289" y="0" type="curve"/>
      <point x="289" y="60"/>
      <point x="289" y="0"/>
      <point x="289" y="60" type="curve"/>
      <point x="168" y="60"/>
      <point x="297" y="60"/>
      <point x="176" y="60" type="curve"/>
      <point x="176" y="0"/>
      <point x="176" y="60"/>
    </contour>
    <contour>
      <point x="176" y="533" type="curve"/>
      <point x="130" y="533"/>
      <point x="88" y="533"/>
      <point x="42" y="533" type="curve"/>
      <point x="42" y="473"/>
      <point x="42" y="533"/>
      <point x="42" y="473" type="curve"/>
      <point x="180" y="473"/>
      <point x="38" y="473"/>
      <point x="176" y="473" type="curve"/>
      <point x="176" y="533"/>
      <point x="176" y="473"/>
    </contour>
    <contour>
      <point x="490" y="317" type="curve"/>
      <point x="518" y="400"/>
      <point x="557" y="477"/>
      <point x="631" y="477" type="curve"/>
      <point x="713" y="477"/>
      <point x="724" y="418"/>
      <point x="724" y="327" type="curve"/>
      <point x="724" y="218"/>
      <point x="724" y="109"/>
      <point x="724" y="0" type="curve"/>
      <point x="800" y="0"/>
      <point x="724" y="0"/>
      <point x="800" y="0" type="curve"/>
      <point x="800" y="111"/>
      <point x="800" y="222"/>
      <point x="800" y="333" type="curve"/>
      <point x="800" y="461"/>
      <point x="773" y="538"/>
      <point x="653" y="538" type="curve"/>
      <point x="553" y="538"/>
      <point x="494" y="458"/>
      <point x="463" y="350" type="curve"/>
      <point x="492" y="318"/>
      <point x="461" y="350"/>
    </contour>
    <contour>
      <point x="197" y="318" type="curve"/>
      <point x="223" y="400"/>
      <point x="262" y="477"/>
      <point x="337" y="477" type="curve"/>
      <point x="419" y="477"/>
      <point x="431" y="418"/>
      <point x="431" y="327" type="curve"/>
      <point x="431" y="218"/>
      <point x="431" y="109"/>
      <point x="431" y="0" type="curve"/>
      <point x="507" y="0"/>
      <point x="431" y="0"/>
      <point x="507" y="0" type="curve"/>
      <point x="507" y="111"/>
      <point x="507" y="222"/>
      <point x="507" y="333" type="curve"/>
      <point x="507" y="461"/>
      <point x="481" y="538"/>
      <point x="360" y="538" type="curve"/>
      <point x="258" y="538"/>
      <point x="204" y="460"/>
      <point x="170" y="351" type="curve"/>
      <point x="199" y="319"/>
      <point x="168" y="350"/>
    </contour>
    <contour>
      <point x="214" y="0" type="curve"/>
      <point x="214" y="178"/>
      <point x="214" y="355"/>
      <point x="214" y="533" type="curve"/>
      <point x="138" y="533"/>
      <point x="214" y="533"/>
      <point x="138" y="533" type="curve"/>
      <point x="138" y="355"/>
      <point x="138" y="178"/>
      <point x="138" y="0" type="curve"/>
      <point x="214" y="0"/>
      <point x="138" y="0"/>
    </contour>
  </outline>
</glyph>
<glyph name="n" format="1">
  <advance width="631"/>
  <unicode hex="006E"/>
  <outline>
    <contour>
      <point x="187" y="308" type="curve"/>
      <point x="207" y="401"/>
      <point x="267" y="476"/>
      <point x="344" y="476" type="curve"/>
      <point x="425" y="476"/>
      <point x="456" y="415"/>
      <point x="456" y="327" type="curve"/>
      <point x="456" y="217"/>
      <point x="456" y="110"/>
      <point x="456" y="0" type="curve"/>
      <point x="520" y="0"/>
      <point x="467" y="0"/>
      <point x="532" y="0" type="curve"/>
      <point x="532" y="112"/>
      <point x="532" y="221"/>
      <point x="532" y="333" type="curve"/>
      <point x="532" y="456"/>
      <point x="486" y="538"/>
      <point x="367" y="538" type="curve"/>
      <point x="265" y="538"/>
      <point x="183" y="463"/>
      <point x="159" y="342" type="curve"/>
      <point x="182" y="313"/>
      <point x="164" y="337"/>
    </contour>
    <contour>
      <point x="493" y="0" type="curve"/>
      <point x="539" y="0"/>
      <point x="580" y="0"/>
      <point x="627" y="0" type="curve"/>
      <point x="627" y="60"/>
      <point x="627" y="0"/>
      <point x="627" y="60" type="curve"/>
      <point x="485" y="60"/>
      <point x="634" y="60"/>
      <point x="493" y="60" type="curve"/>
      <point x="493" y="0"/>
      <point x="493" y="60"/>
    </contour>
    <contour>
      <point x="166" y="60" type="curve"/>
      <point x="24" y="60"/>
      <point x="173" y="60"/>
      <point x="31" y="60" type="curve"/>
      <point x="31" y="0"/>
      <point x="31" y="60"/>
      <point x="31" y="0" type="curve"/>
      <point x="78" y="0"/>
      <point x="119" y="0"/>
      <point x="166" y="0" type="curve"/>
      <point x="166" y="60"/>
      <point x="166" y="0"/>
    </contour>
    <contour>
      <point x="166" y="0" type="curve"/>
      <point x="208" y="0"/>
      <point x="155" y="0"/>
      <point x="284" y="0" type="curve"/>
      <point x="284" y="60"/>
      <point x="284" y="0"/>
      <point x="284" y="60" type="curve"/>
      <point x="155" y="60"/>
      <point x="294" y="60"/>
      <point x="166" y="60" type="curve"/>
      <point x="166" y="0"/>
      <point x="166" y="60"/>
    </contour>
    <contour>
      <point x="204" y="0" type="curve"/>
      <point x="204" y="178"/>
      <point x="204" y="355"/>
      <point x="204" y="533" type="curve"/>
      <point x="128" y="533"/>
      <point x="204" y="533"/>
      <point x="128" y="533" type="curve"/>
      <point x="128" y="355"/>
      <point x="128" y="178"/>
      <point x="128" y="0" type="curve"/>
      <point x="204" y="0"/>
      <point x="128" y="0"/>
    </contour>
    <contour>
      <point x="166" y="533" type="curve"/>
      <point x="119" y="533"/>
      <point x="78" y="533"/>
      <point x="31" y="533" type="curve"/>
      <point x="31" y="473"/>
      <point x="31" y="533"/>
      <point x="31" y="473" type="curve"/>
      <point x="173" y="473"/>
      <point x="24" y="473"/>
      <point x="166" y="473" type="curve"/>
      <point x="166" y="533"/>
      <point x="166" y="473"/>
    </contour>
    <contour>
      <point x="337" y="645" type="move" name="top"/>
    </contour>
    <contour>
      <point x="360" y="-28" type="move" name="bottom"/>
    </contour>
  </outline>
</glyph>
<glyph name="o" format="1">
  <advance width="562"/>
  <unicode hex="006F"/>
  <outline>
    <contour>
      <point x="127" y="267" type="curve"/>
      <point x="127" y="387"/>
      <point x="169" y="477"/>
      <point x="277" y="477" type="curve"/>
      <point x="389" y="477"/>
      <point x="432" y="386"/>
      <point x="432" y="266" type="curve"/>
      <point x="432" y="144"/>
      <point x="390" y="56"/>
      <point x="283" y="56" type="curve"/>
      <point x="167" y="57"/>
      <point x="127" y="145"/>
      <point x="127" y="267" type="curve"/>
      <point x="95" y="267"/>
      <point x="86" y="267"/>
      <point x="54" y="267" type="curve"/>
      <point x="54" y="105"/>
      <point x="126" y="-5"/>
      <point x="280" y="-5" type="curve"/>
      <point x="434" y="-5"/>
      <point x="508" y="103"/>
      <point x="508" y="266" type="curve"/>
      <point x="508" y="427"/>
      <point x="435" y="538"/>
      <point x="280" y="538" type="curve"/>
      <point x="127" y="538"/>
      <point x="54" y="427"/>
      <point x="54" y="267" type="curve"/>
      <point x="86" y="267"/>
      <point x="95" y="267"/>
    </contour>
    <contour>
      <point x="279" y="645" type="move" name="top"/>
    </contour>
  </outline>
</glyph>
<glyph name="p" format="1">
  <advance width="608"/>
  <unicode hex="0070"/>
  <outline>
    <contour>
      <point x="142" y="-240" type="curve"/>
      <point x="-1" y="-240"/>
      <point x="149" y="-240"/>
      <point x="6" y="-240" type="curve"/>
      <point x="6" y="-300"/>
      <point x="6" y="-240"/>
      <point x="6" y="-300" type="curve"/>
      <point x="54" y="-300"/>
      <point x="94" y="-300"/>
      <point x="142" y="-300" type="curve"/>
      <point x="142" y="-240"/>
      <point x="142" y="-300"/>
    </contour>
    <contour>
      <point x="142" y="-300" type="curve"/>
      <point x="187" y="-300"/>
      <point x="224" y="-300"/>
      <point x="269" y="-300" type="curve"/>
      <point x="269" y="-240"/>
      <point x="269" y="-300"/>
      <point x="269" y="-240" type="curve"/>
      <point x="135" y="-240"/>
      <point x="276" y="-240"/>
      <point x="142" y="-240" type="curve"/>
      <point x="142" y="-300"/>
      <point x="142" y="-240"/>
    </contour>
    <contour>
      <point x="143" y="533" type="curve"/>
      <point x="95" y="533"/>
      <point x="55" y="533"/>
      <point x="7" y="533" type="curve"/>
      <point x="7" y="473"/>
      <point x="7" y="533"/>
      <point x="7" y="473" type="curve"/>
      <point x="150" y="473"/>
      <point x="0" y="473"/>
      <point x="143" y="473" type="curve"/>
      <point x="143" y="533"/>
      <point x="143" y="473"/>
    </contour>
    <contour>
      <point x="161" y="360" type="curve"/>
      <point x="190" y="419"/>
      <point x="251" y="478"/>
      <point x="327" y="478" type="curve"/>
      <point x="437" y="478"/>
      <point x="478" y="385"/>
      <point x="478" y="270" type="curve"/>
      <point x="480" y="150"/>
      <point x="436" y="54"/>
      <point x="327" y="55" type="curve"/>
      <point x="257" y="55"/>
      <point x="208" y="90"/>
      <point x="164" y="143" type="curve"/>
      <point x="135" y="115"/>
      <point x="159" y="136"/>
      <point x="131" y="108" type="curve"/>
      <point x="185" y="38"/>
      <point x="248" y="-5"/>
      <point x="339" y="-5" type="curve"/>
      <point x="491" y="-5"/>
      <point x="554" y="117"/>
      <point x="554" y="273" type="curve"/>
      <point x="554" y="422"/>
      <point x="489" y="539"/>
      <point x="341" y="539" type="curve"/>
      <point x="246" y="539"/>
      <point x="175" y="477"/>
      <point x="135" y="409" type="curve"/>
      <point x="158" y="367"/>
      <point x="138" y="402"/>
    </contour>
    <contour>
      <point x="180" y="-300" type="curve"/>
      <point x="180" y="-22"/>
      <point x="180" y="255"/>
      <point x="180" y="533" type="curve"/>
      <point x="104" y="533"/>
      <point x="180" y="533"/>
      <point x="104" y="533" type="curve"/>
      <point x="104" y="255"/>
      <point x="104" y="-22"/>
      <point x="104" y="-300" type="curve"/>
      <point x="180" y="-300"/>
      <point x="104" y="-300"/>
    </contour>
  </outline>
</glyph>
<glyph name="q" format="1">
  <advance width="614"/>
  <unicode hex="0071"/>
  <outline>
    <contour>
      <point x="468" y="473" type="curve"/>
      <point x="587" y="473"/>
      <point x="473" y="473"/>
      <point x="593" y="473" type="curve"/>
      <point x="593" y="525"/>
      <point x="593" y="481"/>
      <point x="593" y="533" type="curve"/>
      <point x="548" y="533"/>
      <point x="512" y="533"/>
      <point x="468" y="533" type="curve"/>
      <point x="468" y="481"/>
      <point x="468" y="525"/>
    </contour>
    <contour>
      <point x="467" y="-240" type="curve"/>
      <point x="339" y="-240"/>
      <point x="461" y="-240"/>
      <point x="333" y="-240" type="curve"/>
      <point x="333" y="-292"/>
      <point x="333" y="-248"/>
      <point x="333" y="-300" type="curve"/>
      <point x="381" y="-300"/>
      <point x="419" y="-300"/>
      <point x="467" y="-300" type="curve"/>
      <point x="467" y="-248"/>
      <point x="467" y="-292"/>
    </contour>
    <contour>
      <point x="467" y="-300" type="curve"/>
      <point x="512" y="-300"/>
      <point x="548" y="-300"/>
      <point x="593" y="-300" type="curve"/>
      <point x="593" y="-248"/>
      <point x="593" y="-292"/>
      <point x="593" y="-240" type="curve"/>
      <point x="473" y="-240"/>
      <point x="587" y="-240"/>
      <point x="467" y="-240" type="curve"/>
      <point x="467" y="-292"/>
      <point x="467" y="-248"/>
    </contour>
    <contour>
      <point x="475" y="417" type="curve"/>
      <point x="427" y="493"/>
      <point x="353" y="538"/>
      <point x="268" y="538" type="curve"/>
      <point x="118" y="538"/>
      <point x="53" y="418"/>
      <point x="53" y="264" type="curve"/>
      <point x="54" y="110"/>
      <point x="123" y="-5"/>
      <point x="273" y="-5" type="curve"/>
      <point x="360" y="-5"/>
      <point x="431" y="53"/>
      <point x="478" y="126" type="curve"/>
      <point x="452" y="156"/>
      <point x="472" y="134"/>
      <point x="447" y="163" type="curve"/>
      <point x="411" y="101"/>
      <point x="352" y="54"/>
      <point x="283" y="54" type="curve"/>
      <point x="174" y="54"/>
      <point x="130" y="149"/>
      <point x="130" y="267" type="curve"/>
      <point x="130" y="383"/>
      <point x="173" y="477"/>
      <point x="280" y="477" type="curve"/>
      <point x="346" y="477"/>
      <point x="405" y="443"/>
      <point x="450" y="378" type="curve"/>
      <point x="469" y="409"/>
      <point x="456" y="385"/>
    </contour>
    <contour>
      <point x="506" y="-300" type="curve"/>
      <point x="506" y="-19"/>
      <point x="506" y="252"/>
      <point x="506" y="533" type="curve"/>
      <point x="438" y="533"/>
      <point x="494" y="533"/>
      <point x="427" y="533" type="curve"/>
      <point x="427" y="252"/>
      <point x="427" y="-19"/>
      <point x="427" y="-300" type="curve"/>
      <point x="494" y="-300"/>
      <point x="438" y="-300"/>
    </contour>
  </outline>
</glyph>
<glyph name="t" format="1">
  <advance width="381"/>
  <unicode hex="0074"/>
  <outline>
    <contour>
      <point x="17" y="473" type="curve"/>
      <point x="357" y="473" type="line"/>
      <point x="357" y="533"/>
      <point x="357" y="473"/>
      <point x="357" y="533" type="curve"/>
      <point x="17" y="533" type="line"/>
      <point x="17" y="473"/>
      <point x="17" y="533"/>
    </contour>
    <contour>
      <point x="329" y="80" type="curve"/>
      <point x="306" y="66"/>
      <point x="287" y="58"/>
      <point x="260" y="58" type="curve"/>
      <point x="207" y="58"/>
      <point x="191" y="97"/>
      <point x="191" y="158" type="curve"/>
      <point x="191" y="681" type="line"/>
      <point x="143" y="651"/>
      <point x="163" y="661"/>
      <point x="115" y="631" type="curve"/>
      <point x="115" y="155" type="line"/>
      <point x="115" y="54"/>
      <point x="157" y="-5"/>
      <point x="250" y="-5" type="curve"/>
      <point x="294" y="-5"/>
      <point x="323" y="7"/>
      <point x="358" y="27" type="curve"/>
      <point x="329" y="80"/>
      <point x="358" y="27"/>
    </contour>
    <contour>
      <point x="269" y="-31" type="move" name="bottom"/>
    </contour>
  </outline>
</glyph>
<glyph name="v" format="1">
  <advance width="617"/>
  <unicode hex="0076"/>
  <outline>
    <contour>
      <point x="131" y="533" type="curve"/>
      <point x="89" y="533"/>
      <point x="51" y="533"/>
      <point x="10" y="533" type="curve"/>
      <point x="10" y="473"/>
      <point x="10" y="533"/>
      <point x="10" y="473" type="curve"/>
      <point x="135" y="473"/>
      <point x="6" y="473"/>
      <point x="131" y="473" type="curve"/>
      <point x="131" y="533"/>
      <point x="131" y="473"/>
    </contour>
    <contour>
      <point x="131" y="473" type="curve"/>
      <point x="256" y="473"/>
      <point x="127" y="473"/>
      <point x="253" y="473" type="curve"/>
      <point x="253" y="533"/>
      <point x="253" y="473"/>
      <point x="253" y="533" type="curve"/>
      <point x="211" y="533"/>
      <point x="173" y="533"/>
      <point x="131" y="533" type="curve"/>
      <point x="131" y="473"/>
      <point x="131" y="533"/>
    </contour>
    <contour>
      <point x="494" y="533" type="curve"/>
      <point x="451" y="533"/>
      <point x="411" y="533"/>
      <point x="368" y="533" type="curve"/>
      <point x="368" y="473"/>
      <point x="368" y="533"/>
      <point x="368" y="473" type="curve"/>
      <point x="498" y="473"/>
      <point x="364" y="473"/>
      <point x="494" y="473" type="curve"/>
      <point x="494" y="533"/>
      <point x="494" y="473"/>
    </contour>
    <contour>
      <point x="494" y="473" type="curve"/>
      <point x="616" y="473"/>
      <point x="490" y="473"/>
      <point x="612" y="473" type="curve"/>
      <point x="612" y="533"/>
      <point x="612" y="473"/>
      <point x="612" y="533" type="curve"/>
      <point x="571" y="533"/>
      <point x="534" y="533"/>
      <point x="494" y="533" type="curve"/>
      <point x="494" y="473"/>
      <point x="494" y="533"/>
    </contour>
    <contour>
      <point x="81" y="533" type="curve"/>
      <point x="142" y="355"/>
      <point x="204" y="178"/>
      <point x="264" y="0" type="curve"/>
      <point x="337" y="0"/>
      <point x="264" y="0"/>
      <point x="337" y="0" type="curve"/>
      <point x="277" y="178"/>
      <point x="219" y="355"/>
      <point x="159" y="533" type="curve"/>
      <point x="81" y="533"/>
      <point x="159" y="533"/>
    </contour>
    <contour>
      <point x="466" y="533" type="curve"/>
      <point x="277" y="0" type="line"/>
      <point x="351" y="0"/>
      <point x="277" y="0"/>
      <point x="351" y="0" type="curve"/>
      <point x="416" y="178"/>
      <point x="479" y="355"/>
      <point x="544" y="533" type="curve"/>
      <point x="466" y="533"/>
      <point x="544" y="533"/>
    </contour>
  </outline>
</glyph>
<glyph name="w" format="1">
  <advance width="904"/>
  <unicode hex="0077"/>
  <outline>
    <contour>
      <point x="770" y="473" type="curve"/>
      <point x="901" y="473"/>
      <point x="766" y="473"/>
      <point x="897" y="473" type="curve"/>
      <point x="897" y="533"/>
      <point x="897" y="473"/>
      <point x="897" y="533" type="curve"/>
      <point x="854" y="533"/>
      <point x="813" y="533"/>
      <point x="770" y="533" type="curve"/>
      <point x="770" y="473"/>
      <point x="770" y="533"/>
    </contour>
    <contour>
      <point x="770" y="533" type="curve"/>
      <point x="726" y="533"/>
      <point x="694" y="533"/>
      <point x="650" y="533" type="curve"/>
      <point x="650" y="473"/>
      <point x="650" y="533"/>
      <point x="650" y="473" type="curve"/>
      <point x="782" y="473"/>
      <point x="638" y="473"/>
      <point x="770" y="473" type="curve"/>
      <point x="770" y="533"/>
      <point x="770" y="473"/>
    </contour>
    <contour>
      <point x="135" y="533" type="curve"/>
      <point x="92" y="533"/>
      <point x="51" y="533"/>
      <point x="8" y="533" type="curve"/>
      <point x="8" y="473"/>
      <point x="8" y="533"/>
      <point x="8" y="473" type="curve"/>
      <point x="139" y="473"/>
      <point x="4" y="473"/>
      <point x="135" y="473" type="curve"/>
      <point x="135" y="533"/>
      <point x="135" y="473"/>
    </contour>
    <contour>
      <point x="135" y="473" type="curve"/>
      <point x="265" y="473"/>
      <point x="127" y="473"/>
      <point x="258" y="473" type="curve"/>
      <point x="258" y="533"/>
      <point x="258" y="473"/>
      <point x="258" y="533" type="curve"/>
      <point x="214" y="533"/>
      <point x="178" y="533"/>
      <point x="135" y="533" type="curve"/>
      <point x="135" y="473"/>
      <point x="135" y="533"/>
    </contour>
    <contour>
      <point x="312" y="0" type="curve"/>
      <point x="372" y="178"/>
      <point x="432" y="355"/>
      <point x="491" y="533" type="curve"/>
      <point x="420" y="533"/>
      <point x="491" y="533"/>
      <point x="420" y="533" type="curve"/>
      <point x="361" y="355"/>
      <point x="302" y="178"/>
      <point x="244" y="0" type="curve"/>
      <point x="312" y="0"/>
      <point x="244" y="0"/>
    </contour>
    <contour>
      <point x="752" y="533" type="curve"/>
      <point x="698" y="355"/>
      <point x="642" y="178"/>
      <point x="588" y="0" type="curve"/>
      <point x="656" y="0"/>
      <point x="588" y="0"/>
      <point x="656" y="0" type="curve"/>
      <point x="712" y="178"/>
      <point x="768" y="355"/>
      <point x="824" y="533" type="curve"/>
      <point x="752" y="533"/>
      <point x="824" y="533"/>
    </contour>
    <contour>
      <point x="426" y="533" type="curve"/>
      <point x="479" y="355"/>
      <point x="533" y="178"/>
      <point x="587" y="0" type="curve"/>
      <point x="655" y="0"/>
      <point x="587" y="0"/>
      <point x="655" y="0" type="curve"/>
      <point x="602" y="178"/>
      <point x="549" y="355"/>
      <point x="496" y="533" type="curve"/>
      <point x="426" y="533"/>
      <point x="496" y="533"/>
    </contour>
    <contour>
      <point x="82" y="533" type="curve"/>
      <point x="136" y="355"/>
      <point x="189" y="178"/>
      <point x="243" y="0" type="curve"/>
      <point x="311" y="0"/>
      <point x="243" y="0"/>
      <point x="311" y="0" type="curve"/>
      <point x="258" y="178"/>
      <point x="206" y="355"/>
      <point x="153" y="533" type="curve"/>
      <point x="82" y="533"/>
      <point x="153" y="533"/>
    </contour>
  </outline>
</glyph>
<glyph name="x" format="1">
  <advance width="618"/>
  <unicode hex="0078"/>
  <outline>
    <contour>
      <point x="126" y="60" type="curve"/>
      <point x="8" y="60"/>
      <point x="131" y="60"/>
      <point x="13" y="60" type="curve"/>
      <point x="13" y="0"/>
      <point x="13" y="60"/>
      <point x="13" y="0" type="curve"/>
      <point x="52" y="0"/>
      <point x="86" y="0"/>
      <point x="126" y="0" type="curve"/>
      <point x="126" y="60"/>
      <point x="126" y="0"/>
    </contour>
    <contour>
      <point x="502" y="60" type="curve"/>
      <point x="357" y="60"/>
      <point x="506" y="60"/>
      <point x="361" y="60" type="curve"/>
      <point x="361" y="0"/>
      <point x="361" y="60"/>
      <point x="361" y="0" type="curve"/>
      <point x="409" y="0"/>
      <point x="454" y="0"/>
      <point x="502" y="0" type="curve"/>
      <point x="502" y="60"/>
      <point x="502" y="0"/>
    </contour>
    <contour>
      <point x="496" y="0" type="curve"/>
      <point x="535" y="0"/>
      <point x="572" y="0"/>
      <point x="611" y="0" type="curve"/>
      <point x="611" y="60"/>
      <point x="611" y="0"/>
      <point x="611" y="60" type="curve"/>
      <point x="494" y="60"/>
      <point x="613" y="60"/>
      <point x="496" y="60" type="curve"/>
      <point x="496" y="0"/>
      <point x="496" y="60"/>
    </contour>
    <contour>
      <point x="120" y="0" type="curve"/>
      <point x="168" y="0"/>
      <point x="115" y="0"/>
      <point x="260" y="0" type="curve"/>
      <point x="260" y="60"/>
      <point x="260" y="0"/>
      <point x="260" y="60" type="curve"/>
      <point x="115" y="60"/>
      <point x="265" y="60"/>
      <point x="120" y="60" type="curve"/>
      <point x="120" y="0"/>
      <point x="120" y="60"/>
    </contour>
    <contour>
      <point x="479" y="473" type="curve"/>
      <point x="600" y="473"/>
      <point x="479" y="473"/>
      <point x="599" y="473" type="curve"/>
      <point x="599" y="533"/>
      <point x="599" y="473"/>
      <point x="599" y="533" type="curve"/>
      <point x="559" y="533"/>
      <point x="519" y="533"/>
      <point x="479" y="533" type="curve"/>
      <point x="479" y="473"/>
      <point x="479" y="533"/>
    </contour>
    <contour>
      <point x="155" y="533" type="curve"/>
      <point x="114" y="533"/>
      <point x="76" y="533"/>
      <point x="35" y="533" type="curve"/>
      <point x="35" y="473"/>
      <point x="35" y="533"/>
      <point x="35" y="473" type="curve"/>
      <point x="159" y="473"/>
      <point x="31" y="473"/>
      <point x="155" y="473" type="curve"/>
      <point x="155" y="533"/>
      <point x="155" y="473"/>
    </contour>
    <contour>
      <point x="142" y="473" type="curve"/>
      <point x="281" y="473"/>
      <point x="130" y="473"/>
      <point x="269" y="473" type="curve"/>
      <point x="269" y="533"/>
      <point x="269" y="473"/>
      <point x="269" y="533" type="curve"/>
      <point x="223" y="533"/>
      <point x="189" y="533"/>
      <point x="142" y="533" type="curve"/>
      <point x="142" y="473"/>
      <point x="142" y="533"/>
    </contour>
    <contour>
      <point x="488" y="533" type="curve"/>
      <point x="442" y="533"/>
      <point x="408" y="533"/>
      <point x="362" y="533" type="curve"/>
      <point x="362" y="473"/>
      <point x="362" y="533"/>
      <point x="362" y="473" type="curve"/>
      <point x="501" y="473"/>
      <point x="349" y="473"/>
      <point x="488" y="473" type="curve"/>
      <point x="488" y="533"/>
      <point x="488" y="473"/>
    </contour>
    <contour>
      <point x="539" y="19" type="curve"/>
      <point x="468" y="122"/>
      <point x="233" y="430"/>
      <point x="162" y="533" type="curve"/>
      <point x="101" y="533"/>
      <point x="161" y="512"/>
      <point x="100" y="512" type="curve"/>
      <point x="170" y="408"/>
      <point x="402" y="103"/>
      <point x="471" y="0" type="curve"/>
      <point x="538" y="0"/>
      <point x="472" y="19"/>
    </contour>
    <contour>
      <point x="470" y="533" type="curve"/>
      <point x="399" y="430"/>
      <point x="155" y="125"/>
      <point x="84" y="22" type="curve"/>
      <point x="149" y="22"/>
      <point x="86" y="0"/>
      <point x="151" y="0" type="curve"/>
      <point x="221" y="103"/>
      <point x="461" y="410"/>
      <point x="532" y="513" type="curve"/>
      <point x="470" y="513"/>
      <point x="532" y="533"/>
    </contour>
  </outline>
</glyph>
<glyph name="y" format="1">
  <advance width="663"/>
  <unicode hex="0079"/>
  <outline>
    <contour>
      <point x="215" y="-240" type="curve"/>
      <point x="92" y="-240"/>
      <point x="219" y="-240"/>
      <point x="95" y="-240" type="curve"/>
      <point x="95" y="-300"/>
      <point x="95" y="-240"/>
      <point x="95" y="-300" type="curve"/>
      <point x="137" y="-300"/>
      <point x="174" y="-300"/>
      <point x="215" y="-300" type="curve"/>
      <point x="215" y="-240"/>
      <point x="215" y="-300"/>
    </contour>
    <contour>
      <point x="138" y="533" type="curve"/>
      <point x="95" y="533"/>
      <point x="55" y="533"/>
      <point x="11" y="533" type="curve"/>
      <point x="11" y="473"/>
      <point x="11" y="533"/>
      <point x="11" y="473" type="curve"/>
      <point x="141" y="474"/>
      <point x="7" y="473"/>
      <point x="138" y="474" type="curve"/>
      <point x="138" y="533"/>
      <point x="138" y="474"/>
    </contour>
    <contour>
      <point x="138" y="474" type="curve"/>
      <point x="273" y="473"/>
      <point x="134" y="474"/>
      <point x="269" y="473" type="curve"/>
      <point x="269" y="533"/>
      <point x="269" y="473"/>
      <point x="269" y="533" type="curve"/>
      <point x="224" y="533"/>
      <point x="183" y="533"/>
      <point x="138" y="533" type="curve"/>
      <point x="138" y="474"/>
      <point x="138" y="533"/>
    </contour>
    <contour>
      <point x="533" y="533" type="curve"/>
      <point x="489" y="533"/>
      <point x="448" y="533"/>
      <point x="404" y="533" type="curve"/>
      <point x="404" y="473"/>
      <point x="404" y="533"/>
      <point x="404" y="473" type="curve"/>
      <point x="537" y="474"/>
      <point x="400" y="473"/>
      <point x="533" y="474" type="curve"/>
      <point x="533" y="533"/>
      <point x="533" y="474"/>
    </contour>
    <contour>
      <point x="533" y="474" type="curve"/>
      <point x="659" y="473"/>
      <point x="529" y="474"/>
      <point x="655" y="473" type="curve"/>
      <point x="655" y="533"/>
      <point x="655" y="473"/>
      <point x="655" y="533" type="curve"/>
      <point x="614" y="533"/>
      <point x="575" y="533"/>
      <point x="533" y="533" type="curve"/>
      <point x="533" y="474"/>
      <point x="533" y="533"/>
    </contour>
    <contour>
      <point x="362" y="-4" type="curve"/>
      <point x="327" y="80"/>
      <point x="197" y="448"/>
      <point x="162" y="533" type="curve"/>
      <point x="82" y="533"/>
      <point x="162" y="533"/>
      <point x="82" y="533" type="curve"/>
      <point x="119" y="449"/>
      <point x="256" y="74"/>
      <point x="292" y="-10" type="curve"/>
      <point x="362" y="-10"/>
      <point x="292" y="-4"/>
    </contour>
    <contour>
      <point x="245" y="-300" type="curve"/>
      <point x="304" y="-171"/>
      <point x="527" y="404"/>
      <point x="586" y="533" type="curve"/>
      <point x="508" y="533"/>
      <point x="586" y="533"/>
      <point x="508" y="533" type="curve"/>
      <point x="448" y="404"/>
      <point x="225" y="-171"/>
      <point x="165" y="-300" type="curve"/>
      <point x="245" y="-300"/>
      <point x="165" y="-300"/>
    </contour>
    <contour>
      <point x="339" y="646" type="move" name="top"/>
    </contour>
  </outline>
</glyph>
<glyph name="z" format="1">
  <advance width="493"/>
  <unicode hex="007A"/>
  <outline>
    <contour>
      <point x="63" y="473" type="curve"/>
      <point x="178" y="473"/>
      <point x="289" y="473"/>
      <point x="405" y="473" type="curve"/>
      <point x="399" y="480"/>
      <point x="389" y="479"/>
      <point x="382" y="485" type="curve"/>
      <point x="377" y="490"/>
      <point x="377" y="499"/>
      <point x="372" y="504" type="curve"/>
      <point x="366" y="498"/>
      <point x="358" y="500"/>
      <point x="353" y="494" type="curve"/>
      <point x="48" y="60" type="line"/>
      <point x="48" y="29"/>
      <point x="48" y="60"/>
      <point x="48" y="29" type="curve"/>
      <point x="48" y="0"/>
      <point x="48" y="29"/>
      <point x="48" y="0" type="curve"/>
      <point x="74" y="0"/>
      <point x="48" y="0"/>
      <point x="74" y="0" type="curve"/>
      <point x="453" y="0"/>
      <point x="324" y="0"/>
      <point x="451" y="0" type="curve"/>
      <point x="451" y="60"/>
      <point x="451" y="0"/>
      <point x="451" y="60" type="curve"/>
      <point x="324" y="60"/>
      <point x="200" y="60"/>
      <point x="74" y="60" type="curve"/>
      <point x="80" y="55"/>
      <point x="88" y="54"/>
      <point x="94" y="50" type="curve"/>
      <point x="100" y="44"/>
      <point x="101" y="35"/>
      <point x="107" y="29" type="curve"/>
      <point x="112" y="35"/>
      <point x="118" y="33"/>
      <point x="123" y="39" type="curve"/>
      <point x="431" y="473" type="line"/>
      <point x="431" y="504"/>
      <point x="431" y="473"/>
      <point x="431" y="504" type="curve"/>
      <point x="431" y="533"/>
      <point x="431" y="504"/>
      <point x="431" y="533" type="curve"/>
      <point x="405" y="533"/>
      <point x="431" y="533"/>
      <point x="405" y="533" type="curve"/>
      <point x="289" y="533"/>
      <point x="178" y="533"/>
      <point x="63" y="533" type="curve"/>
      <point x="63" y="473"/>
      <point x="63" y="533"/>
    </contour>
    <contour>
      <point x="63" y="503" type="curve"/>
      <point x="63" y="383"/>
      <point x="63" y="507"/>
      <point x="63" y="387" type="curve"/>
      <point x="123" y="387"/>
      <point x="63" y="387"/>
      <point x="123" y="387" type="curve"/>
      <point x="123" y="507"/>
      <point x="123" y="383"/>
      <point x="123" y="503" type="curve"/>
      <point x="63" y="503"/>
      <point x="123" y="503"/>
    </contour>
    <contour>
      <point x="451" y="30" type="curve"/>
      <point x="451" y="150"/>
      <point x="451" y="26"/>
      <point x="451" y="146" type="curve"/>
      <point x="390" y="146"/>
      <point x="451" y="146"/>
      <point x="390" y="146" type="curve"/>
      <point x="390" y="26"/>
      <point x="390" y="150"/>
      <point x="390" y="30" type="curve"/>
      <point x="451" y="30"/>
      <point x="390" y="30"/>
    </contour>
    <contour>
      <point x="249" y="645" type="move" name="top"/>
    </contour>
  </outline>
</glyph>
<glyph name="braceright" format="1">
  <advance width="290"/>
  <unicode hex="007D"/>
  <outline>
    <contour>
      <point x="48" y="-117" type="curve"/>
      <point x="140" y="-117"/>
      <point x="185" y="-50"/>
      <point x="185" y="46" type="curve"/>
      <point x="185" y="102"/>
      <point x="185" y="159"/>
      <point x="185" y="216" type="curve"/>
      <point x="185" y="269"/>
      <point x="203" y="308"/>
      <point x="252" y="308" type="curve"/>
      <point x="252" y="371"/>
      <point x="252" y="308"/>
      <point x="252" y="371" type="curve"/>
      <point x="162" y="371"/>
      <point x="116" y="304"/>
      <point x="116" y="210" type="curve"/>
      <point x="116" y="154"/>
      <point x="116" y="99"/>
      <point x="116" y="43" type="curve"/>
      <point x="116" y="-13"/>
      <point x="101" y="-58"/>
      <point x="48" y="-58" type="curve"/>
      <point x="48" y="-117"/>
      <point x="48" y="-58"/>
    </contour>
    <contour>
      <point x="48" y="736" type="curve"/>
      <point x="102" y="736"/>
      <point x="116" y="692"/>
      <point x="116" y="635" type="curve"/>
      <point x="116" y="579"/>
      <point x="116" y="525"/>
      <point x="116" y="470" type="curve"/>
      <point x="116" y="374"/>
      <point x="162" y="308"/>
      <point x="252" y="308" type="curve"/>
      <point x="252" y="371"/>
      <point x="252" y="308"/>
      <point x="252" y="371" type="curve"/>
      <point x="203" y="371"/>
      <point x="185" y="408"/>
      <point x="185" y="461" type="curve"/>
      <point x="185" y="519"/>
      <point x="185" y="577"/>
      <point x="185" y="635" type="curve"/>
      <point x="185" y="730"/>
      <point x="140" y="796"/>
      <point x="48" y="796" type="curve"/>
      <point x="48" y="736"/>
      <point x="48" y="796"/>
    </contour>
  </outline>
</glyph>
<glyph name="asciitilde" format="1">
  <advance width="637"/>
  <unicode hex="007E"/>
  <outline>
    <contour>
      <point x="501" y="359" type="curve"/>
      <point x="486" y="316"/>
      <point x="471" y="270"/>
      <point x="427" y="270" type="curve"/>
      <point x="390" y="270"/>
      <point x="369" y="283"/>
      <point x="342" y="307" type="curve"/>
      <point x="302" y="344"/>
      <point x="272" y="365"/>
      <point x="218" y="365" type="curve"/>
      <point x="133" y="365"/>
      <point x="97" y="315"/>
      <point x="76" y="233" type="curve"/>
      <point x="106" y="223"/>
      <point x="106" y="222"/>
      <point x="136" y="212" type="curve"/>
      <point x="148" y="261"/>
      <point x="167" y="303"/>
      <point x="215" y="303" type="curve"/>
      <point x="248" y="303"/>
      <point x="267" y="290"/>
      <point x="291" y="268" type="curve"/>
      <point x="334" y="230"/>
      <point x="366" y="209"/>
      <point x="424" y="208" type="curve"/>
      <point x="507" y="208"/>
      <point x="536" y="262"/>
      <point x="561" y="339" type="curve"/>
      <point x="530" y="349"/>
      <point x="532" y="350"/>
    </contour>
  </outline>
</glyph>
<glyph name="exclamdown" format="1">
  <advance width="243"/>
  <unicode hex="00A1"/>
  <outline>
    <contour>
      <point x="86" y="301" type="line"/>
      <point x="78" y="-192" type="line"/>
      <point x="164" y="-192" type="line"/>
      <point x="158" y="301" type="line"/>
    </contour>
    <contour>
      <point x="78" y="497" type="curve"/>
      <point x="78" y="470"/>
      <point x="96" y="456"/>
      <point x="122" y="456" type="curve"/>
      <point x="148" y="456"/>
      <point x="165" y="471"/>
      <point x="165" y="497" type="curve"/>
      <point x="82" y="497"/>
      <point x="161" y="497"/>
      <point x="78" y="497" type="curve"/>
      <point x="78" y="524"/>
      <point x="96" y="537"/>
      <point x="123" y="537" type="curve"/>
      <point x="149" y="537"/>
      <point x="165" y="523"/>
      <point x="165" y="497" type="curve"/>
      <point x="82" y="497"/>
      <point x="161" y="497"/>
    </contour>
  </outline>
</glyph>
<glyph name="cent" format="1">
  <advance width="599"/>
  <unicode hex="00A2"/>
  <outline>
    <contour>
      <point x="352" y="-53" type="curve"/>
      <point x="352" y="-13"/>
      <point x="352" y="27"/>
      <point x="352" y="67" type="curve"/>
      <point x="276" y="67"/>
      <point x="352" y="67"/>
      <point x="276" y="67" type="curve"/>
      <point x="276" y="27"/>
      <point x="276" y="-13"/>
      <point x="276" y="-53" type="curve"/>
      <point x="352" y="-53"/>
      <point x="276" y="-53"/>
    </contour>
    <contour>
      <point x="295" y="778" type="curve"/>
      <point x="295" y="742"/>
      <point x="295" y="706"/>
      <point x="295" y="670" type="curve"/>
      <point x="370" y="670"/>
      <point x="295" y="670"/>
      <point x="370" y="670" type="curve"/>
      <point x="370" y="706"/>
      <point x="370" y="742"/>
      <point x="370" y="778" type="curve"/>
      <point x="295" y="778"/>
      <point x="370" y="778"/>
    </contour>
    <contour>
      <point x="541" y="608" type="curve"/>
      <point x="476" y="661"/>
      <point x="420" y="682"/>
      <point x="339" y="682" type="curve"/>
      <point x="155" y="682"/>
      <point x="55" y="555"/>
      <point x="55" y="365" type="curve"/>
      <point x="55" y="182"/>
      <point x="137" y="50"/>
      <point x="310" y="50" type="curve"/>
      <point x="405" y="50"/>
      <point x="469" y="80"/>
      <point x="540" y="146" type="curve"/>
      <point x="494" y="192"/>
      <point x="540" y="146"/>
      <point x="494" y="192" type="curve"/>
      <point x="438" y="142"/>
      <point x="391" y="112"/>
      <point x="317" y="112" type="curve"/>
      <point x="186" y="112"/>
      <point x="131" y="222"/>
      <point x="131" y="368" type="curve"/>
      <point x="131" y="515"/>
      <point x="199" y="620"/>
      <point x="332" y="620" type="curve"/>
      <point x="400" y="620"/>
      <point x="445" y="600"/>
      <point x="500" y="559" type="curve"/>
      <point x="541" y="608"/>
      <point x="500" y="559"/>
    </contour>
    <contour>
      <point x="480" y="608" type="curve"/>
      <point x="480" y="487"/>
      <point x="480" y="598"/>
      <point x="480" y="477" type="curve"/>
      <point x="541" y="477"/>
      <point x="480" y="477"/>
      <point x="541" y="477" type="curve"/>
      <point x="541" y="598"/>
      <point x="541" y="487"/>
      <point x="541" y="608" type="curve"/>
      <point x="480" y="608"/>
      <point x="541" y="608"/>
    </contour>
  </outline>
</glyph>
<glyph name="sterling" format="1">
  <advance width="475"/>
  <unicode hex="00A3"/>
  <outline>
    <contour>
      <point x="405" y="60" type="curve"/>
      <point x="286" y="60"/>
      <point x="166" y="60"/>
      <point x="48" y="60" type="curve"/>
      <point x="48" y="0"/>
      <point x="48" y="60"/>
      <point x="48" y="0" type="curve"/>
      <point x="166" y="0"/>
      <point x="287" y="0"/>
      <point x="405" y="0" type="curve"/>
      <point x="405" y="60"/>
      <point x="405" y="0"/>
    </contour>
    <contour>
      <point x="362" y="406" type="curve"/>
      <point x="267" y="406"/>
      <point x="169" y="406"/>
      <point x="75" y="406" type="curve"/>
      <point x="75" y="346"/>
      <point x="75" y="406"/>
      <point x="75" y="346" type="curve"/>
      <point x="169" y="346"/>
      <point x="267" y="346"/>
      <point x="362" y="346" type="curve"/>
      <point x="362" y="406"/>
      <point x="362" y="346"/>
    </contour>
    <contour>
      <point x="426" y="670" type="curve"/>
      <point x="384" y="707"/>
      <point x="348" y="723"/>
      <point x="295" y="723" type="curve"/>
      <point x="136" y="723"/>
      <point x="103" y="561"/>
      <point x="139" y="370" type="curve"/>
      <point x="170" y="209"/>
      <point x="166" y="60"/>
      <point x="48" y="60" type="curve"/>
      <point x="48" y="0"/>
      <point x="48" y="60"/>
      <point x="48" y="0" type="curve"/>
      <point x="223" y="0"/>
      <point x="248" y="178"/>
      <point x="210" y="382" type="curve"/>
      <point x="183" y="530"/>
      <point x="190" y="665"/>
      <point x="291" y="665" type="curve"/>
      <point x="331" y="665"/>
      <point x="357" y="650"/>
      <point x="387" y="626" type="curve"/>
      <point x="426" y="670"/>
      <point x="387" y="626"/>
    </contour>
  </outline>
</glyph>
<glyph name="currency" format="1">
  <advance width="623"/>
  <unicode hex="00A4"/>
  <outline>
    <contour>
      <point x="218" y="313" type="curve"/>
      <point x="218" y="381"/>
      <point x="246" y="433"/>
      <point x="311" y="433" type="curve"/>
      <point x="377" y="433"/>
      <point x="404" y="383"/>
      <point x="404" y="313" type="curve"/>
      <point x="404" y="243"/>
      <point x="380" y="187"/>
      <point x="315" y="187" type="curve"/>
      <point x="246" y="187"/>
      <point x="218" y="240"/>
      <point x="218" y="313" type="curve"/>
      <point x="142" y="313"/>
      <point x="220" y="313"/>
      <point x="144" y="313" type="curve"/>
      <point x="144" y="201"/>
      <point x="205" y="128"/>
      <point x="314" y="128" type="curve"/>
      <point x="421" y="128"/>
      <point x="479" y="204"/>
      <point x="479" y="315" type="curve"/>
      <point x="479" y="421"/>
      <point x="421" y="493"/>
      <point x="318" y="493" type="curve"/>
      <point x="208" y="493"/>
      <point x="144" y="423"/>
      <point x="144" y="313" type="curve"/>
      <point x="220" y="313"/>
      <point x="142" y="313"/>
    </contour>
    <contour>
      <point x="413" y="382" type="line"/>
      <point x="560" y="521" type="line"/>
      <point x="503" y="579" type="line"/>
      <point x="364" y="432" type="line"/>
    </contour>
    <contour>
      <point x="366" y="195" type="line"/>
      <point x="505" y="48" type="line"/>
      <point x="563" y="105" type="line"/>
      <point x="416" y="244" type="line"/>
    </contour>
    <contour>
      <point x="207" y="245" type="line"/>
      <point x="60" y="106" type="line"/>
      <point x="117" y="48" type="line"/>
      <point x="256" y="195" type="line"/>
    </contour>
    <contour>
      <point x="261" y="432" type="line"/>
      <point x="121" y="580" type="line"/>
      <point x="64" y="522" type="line"/>
      <point x="211" y="383" type="line"/>
    </contour>
  </outline>
</glyph>
<glyph name="yen" format="1">
  <advance width="715"/>
  <unicode hex="00A5"/>
  <outline>
    <contour>
      <point x="552" y="395" type="curve"/>
      <point x="489" y="395"/>
      <point x="427" y="395"/>
      <point x="366" y="395" type="curve"/>
      <point x="366" y="330"/>
      <point x="366" y="395"/>
      <point x="366" y="330" type="curve"/>
      <point x="427" y="330"/>
      <point x="489" y="330"/>
      <point x="552" y="330" type="curve"/>
      <point x="552" y="395"/>
      <point x="552" y="330"/>
    </contour>
    <contour>
      <point x="340" y="395" type="curve"/>
      <point x="279" y="395"/>
      <point x="218" y="395"/>
      <point x="157" y="395" type="curve"/>
      <point x="157" y="330"/>
      <point x="157" y="395"/>
      <point x="157" y="330" type="curve"/>
      <point x="218" y="330"/>
      <point x="279" y="330"/>
      <point x="340" y="330" type="curve"/>
      <point x="340" y="395"/>
      <point x="340" y="330"/>
    </contour>
    <contour>
      <point x="552" y="263" type="curve"/>
      <point x="420" y="263"/>
      <point x="288" y="263"/>
      <point x="157" y="263" type="curve"/>
      <point x="157" y="197"/>
      <point x="157" y="263"/>
      <point x="157" y="197" type="curve"/>
      <point x="288" y="197"/>
      <point x="420" y="197"/>
      <point x="552" y="197" type="curve"/>
      <point x="552" y="263"/>
      <point x="552" y="197"/>
    </contour>
    <contour>
      <point x="351" y="60" type="curve"/>
      <point x="208" y="60"/>
      <point x="355" y="60"/>
      <point x="212" y="60" type="curve"/>
      <point x="212" y="0"/>
      <point x="212" y="60"/>
      <point x="212" y="0" type="curve"/>
      <point x="259" y="0"/>
      <point x="303" y="0"/>
      <point x="351" y="0" type="curve"/>
      <point x="351" y="60"/>
      <point x="351" y="0"/>
    </contour>
    <contour>
      <point x="351" y="0" type="curve"/>
      <point x="398" y="0"/>
      <point x="442" y="0"/>
      <point x="490" y="0" type="curve"/>
      <point x="490" y="60"/>
      <point x="490" y="0"/>
      <point x="490" y="60" type="curve"/>
      <point x="347" y="60"/>
      <point x="493" y="60"/>
      <point x="351" y="60" type="curve"/>
      <point x="351" y="0"/>
      <point x="351" y="60"/>
    </contour>
    <contour>
      <point x="546" y="722" type="curve"/>
      <point x="499" y="722"/>
      <point x="456" y="722"/>
      <point x="410" y="722" type="curve"/>
      <point x="410" y="662"/>
      <point x="410" y="722"/>
      <point x="410" y="662" type="curve"/>
      <point x="550" y="662"/>
      <point x="406" y="662"/>
      <point x="546" y="662" type="curve"/>
      <point x="546" y="722"/>
      <point x="546" y="662"/>
    </contour>
    <contour>
      <point x="161" y="722" type="curve"/>
      <point x="118" y="722"/>
      <point x="78" y="722"/>
      <point x="36" y="722" type="curve"/>
      <point x="35" y="662"/>
      <point x="36" y="722"/>
      <point x="35" y="662" type="curve"/>
      <point x="165" y="662"/>
      <point x="31" y="662"/>
      <point x="161" y="662" type="curve"/>
      <point x="161" y="722"/>
      <point x="161" y="662"/>
    </contour>
    <contour>
      <point x="167" y="662" type="curve"/>
      <point x="307" y="662"/>
      <point x="163" y="662"/>
      <point x="303" y="662" type="curve"/>
      <point x="303" y="722"/>
      <point x="303" y="662"/>
      <point x="303" y="722" type="curve"/>
      <point x="257" y="722"/>
      <point x="213" y="722"/>
      <point x="167" y="722" type="curve"/>
      <point x="167" y="662"/>
      <point x="167" y="722"/>
    </contour>
    <contour>
      <point x="552" y="662" type="curve"/>
      <point x="683" y="662"/>
      <point x="548" y="662"/>
      <point x="679" y="662" type="curve"/>
      <point x="679" y="722"/>
      <point x="679" y="662"/>
      <point x="679" y="722" type="curve"/>
      <point x="636" y="722"/>
      <point x="596" y="722"/>
      <point x="552" y="722" type="curve"/>
      <point x="552" y="662"/>
      <point x="552" y="722"/>
    </contour>
    <contour>
      <point x="108" y="717" type="curve"/>
      <point x="176" y="591"/>
      <point x="243" y="465"/>
      <point x="310" y="337" type="curve"/>
      <point x="388" y="337"/>
      <point x="303" y="337"/>
      <point x="381" y="337" type="curve"/>
      <point x="315" y="466"/>
      <point x="249" y="593"/>
      <point x="182" y="722" type="curve"/>
      <point x="108" y="722"/>
      <point x="182" y="717"/>
    </contour>
    <contour>
      <point x="530" y="722" type="curve"/>
      <point x="459" y="592"/>
      <point x="390" y="466"/>
      <point x="317" y="337" type="curve"/>
      <point x="395" y="337"/>
      <point x="314" y="337"/>
      <point x="391" y="337" type="curve"/>
      <point x="463" y="464"/>
      <point x="533" y="591"/>
      <point x="605" y="718" type="curve"/>
      <point x="530" y="718"/>
      <point x="605" y="722"/>
    </contour>
    <contour>
      <point x="392" y="0" type="curve"/>
      <point x="392" y="115"/>
      <point x="392" y="227"/>
      <point x="392" y="342" type="curve"/>
      <point x="310" y="342"/>
      <point x="392" y="342"/>
      <point x="310" y="342" type="curve"/>
      <point x="310" y="227"/>
      <point x="310" y="115"/>
      <point x="310" y="0" type="curve"/>
      <point x="392" y="0"/>
      <point x="310" y="0"/>
    </contour>
  </outline>
</glyph>
<glyph name="dieresis" format="1">
  <advance width="371"/>
  <unicode hex="00A8"/>
  <outline>
    <contour>
      <point x="129" y="658" type="curve"/>
      <point x="129" y="685"/>
      <point x="110" y="699"/>
      <point x="84" y="699" type="curve"/>
      <point x="58" y="699"/>
      <point x="41" y="684"/>
      <point x="41" y="658" type="curve"/>
      <point x="125" y="658"/>
      <point x="45" y="658"/>
      <point x="129" y="658" type="curve"/>
      <point x="129" y="631"/>
      <point x="110" y="618"/>
      <point x="84" y="618" type="curve"/>
      <point x="58" y="618"/>
      <point x="41" y="632"/>
      <point x="41" y="658" type="curve"/>
      <point x="125" y="658"/>
      <point x="45" y="658"/>
    </contour>
    <contour>
      <point x="278" y="658" type="curve"/>
      <point x="278" y="685"/>
      <point x="259" y="699"/>
      <point x="233" y="699" type="curve"/>
      <point x="207" y="699"/>
      <point x="190" y="684"/>
      <point x="190" y="658" type="curve"/>
      <point x="274" y="658"/>
      <point x="194" y="658"/>
      <point x="278" y="658" type="curve"/>
      <point x="278" y="631"/>
      <point x="260" y="618"/>
      <point x="233" y="618" type="curve"/>
      <point x="207" y="618"/>
      <point x="190" y="632"/>
      <point x="190" y="658" type="curve"/>
      <point x="274" y="658"/>
      <point x="194" y="658"/>
    </contour>
    <contour>
      <point x="160" y="621" type="move" name="_top"/>
    </contour>
  </outline>
</glyph>
<glyph name="ordfeminine" format="1">
  <advance width="428"/>
  <unicode hex="00AA"/>
  <outline>
    <contour>
      <point x="81" y="720" type="curve"/>
      <point x="81" y="676"/>
      <point x="81" y="699"/>
      <point x="81" y="655" type="curve"/>
      <point x="118" y="655"/>
      <point x="89" y="655"/>
      <point x="126" y="655" type="curve"/>
      <point x="126" y="699"/>
      <point x="126" y="676"/>
      <point x="126" y="720" type="curve"/>
      <point x="89" y="720"/>
      <point x="118" y="720"/>
    </contour>
    <contour>
      <point x="319" y="427" type="curve"/>
      <point x="319" y="515"/>
      <point x="319" y="586"/>
      <point x="319" y="674" type="curve"/>
      <point x="319" y="741"/>
      <point x="269" y="770"/>
      <point x="200" y="770" type="curve"/>
      <point x="148" y="770"/>
      <point x="111" y="749"/>
      <point x="81" y="720" type="curve"/>
      <point x="99" y="691"/>
      <point x="87" y="713"/>
      <point x="105" y="683" type="curve"/>
      <point x="125" y="704"/>
      <point x="153" y="725"/>
      <point x="192" y="725" type="curve"/>
      <point x="235" y="725"/>
      <point x="265" y="706"/>
      <point x="265" y="665" type="curve"/>
      <point x="265" y="580"/>
      <point x="265" y="511"/>
      <point x="265" y="427" type="curve"/>
      <point x="310" y="427"/>
      <point x="274" y="427"/>
    </contour>
    <contour>
      <point x="293" y="427" type="curve"/>
      <point x="317" y="427"/>
      <point x="337" y="427"/>
      <point x="361" y="427" type="curve"/>
      <point x="361" y="462"/>
      <point x="361" y="435"/>
      <point x="361" y="471" type="curve"/>
      <point x="313" y="471"/>
      <point x="341" y="471"/>
      <point x="293" y="471" type="curve"/>
      <point x="293" y="435"/>
      <point x="293" y="462"/>
    </contour>
    <contour>
      <point x="290" y="640" type="curve"/>
      <point x="248" y="634"/>
      <point x="220" y="632"/>
      <point x="177" y="626" type="curve"/>
      <point x="112" y="616"/>
      <point x="65" y="588"/>
      <point x="65" y="524" type="curve"/>
      <point x="65" y="460"/>
      <point x="106" y="424"/>
      <point x="173" y="424" type="curve"/>
      <point x="237" y="424"/>
      <point x="269" y="467"/>
      <point x="305" y="517" type="curve"/>
      <point x="283" y="536"/>
      <point x="300" y="521"/>
      <point x="278" y="540" type="curve"/>
      <point x="254" y="500"/>
      <point x="230" y="467"/>
      <point x="184" y="467" type="curve"/>
      <point x="143" y="467"/>
      <point x="119" y="488"/>
      <point x="119" y="526" type="curve"/>
      <point x="119" y="562"/>
      <point x="143" y="582"/>
      <point x="177" y="587" type="curve"/>
      <point x="221" y="593"/>
      <point x="249" y="597"/>
      <point x="292" y="603" type="curve"/>
      <point x="291" y="633"/>
      <point x="292" y="610"/>
    </contour>
  </outline>
</glyph>
<glyph name="guillemotleft" format="1">
  <advance width="556"/>
  <unicode hex="00AB"/>
  <outline>
    <contour>
      <point x="266" y="436" type="curve"/>
      <point x="245" y="422"/>
      <point x="84" y="331"/>
      <point x="63" y="317" type="curve"/>
      <point x="63" y="251"/>
      <point x="63" y="311"/>
      <point x="63" y="245" type="curve"/>
      <point x="84" y="259"/>
      <point x="245" y="353"/>
      <point x="266" y="368" type="curve"/>
      <point x="266" y="433"/>
      <point x="266" y="371"/>
    </contour>
    <contour>
      <point x="266" y="195" type="curve"/>
      <point x="245" y="210"/>
      <point x="84" y="302"/>
      <point x="63" y="317" type="curve"/>
      <point x="63" y="251"/>
      <point x="63" y="311"/>
      <point x="63" y="245" type="curve"/>
      <point x="84" y="230"/>
      <point x="245" y="141"/>
      <point x="266" y="127" type="curve"/>
      <point x="266" y="192"/>
      <point x="266" y="130"/>
    </contour>
    <contour>
      <point x="471" y="436" type="curve"/>
      <point x="450" y="422"/>
      <point x="290" y="331"/>
      <point x="268" y="317" type="curve"/>
      <point x="268" y="251"/>
      <point x="268" y="311"/>
      <point x="268" y="245" type="curve"/>
      <point x="290" y="259"/>
      <point x="450" y="353"/>
      <point x="471" y="368" type="curve"/>
      <point x="471" y="433"/>
      <point x="471" y="371"/>
    </contour>
    <contour>
      <point x="471" y="195" type="curve"/>
      <point x="450" y="210"/>
      <point x="290" y="302"/>
      <point x="268" y="317" type="curve"/>
      <point x="268" y="251"/>
      <point x="268" y="311"/>
      <point x="268" y="245" type="curve"/>
      <point x="290" y="230"/>
      <point x="450" y="141"/>
      <point x="471" y="127" type="curve"/>
      <point x="471" y="192"/>
      <point x="471" y="130"/>
    </contour>
  </outline>
</glyph>
<glyph name="logicalnot" format="1">
  <advance width="645"/>
  <unicode hex="00AC"/>
  <outline>
    <contour>
      <point x="95" y="279" type="curve"/>
      <point x="564" y="279" type="line"/>
      <point x="564" y="344"/>
      <point x="564" y="279"/>
      <point x="564" y="344" type="curve"/>
      <point x="95" y="344" type="line"/>
      <point x="95" y="279"/>
      <point x="95" y="344"/>
    </contour>
    <contour>
      <point x="564" y="147" type="curve"/>
      <point x="564" y="344" type="line"/>
      <point x="489" y="344"/>
      <point x="566" y="344"/>
      <point x="490" y="344" type="curve"/>
      <point x="490" y="147" type="line"/>
      <point x="566" y="147"/>
      <point x="489" y="147"/>
    </contour>
  </outline>
</glyph>
<glyph name="registered" format="1">
  <advance width="725"/>
  <unicode hex="00AE"/>
  <outline>
    <contour>
      <point x="118" y="321" type="curve"/>
      <point x="118" y="485"/>
      <point x="207" y="599"/>
      <point x="366" y="599" type="curve"/>
      <point x="522" y="599"/>
      <point x="608" y="483"/>
      <point x="608" y="319" type="curve"/>
      <point x="608" y="160"/>
      <point x="525" y="45"/>
      <point x="372" y="45" type="curve"/>
      <point x="213" y="45"/>
      <point x="118" y="156"/>
      <point x="118" y="321" type="curve"/>
      <point x="88" y="321"/>
      <point x="91" y="321"/>
      <point x="61" y="321" type="curve"/>
      <point x="61" y="128"/>
      <point x="178" y="-1"/>
      <point x="369" y="-1" type="curve"/>
      <point x="556" y="-1"/>
      <point x="664" y="131"/>
      <point x="664" y="321" type="curve"/>
      <point x="664" y="514"/>
      <point x="553" y="645"/>
      <point x="366" y="645" type="curve"/>
      <point x="176" y="645"/>
      <point x="61" y="515"/>
      <point x="61" y="321" type="curve"/>
      <point x="91" y="321"/>
      <point x="88" y="321"/>
    </contour>
    <contour>
      <point x="443" y="146" type="curve"/>
      <point x="471" y="146"/>
      <point x="488" y="146"/>
      <point x="515" y="146" type="curve"/>
      <point x="515" y="195"/>
      <point x="515" y="146"/>
      <point x="515" y="195" type="curve"/>
      <point x="503" y="195"/>
      <point x="494" y="195"/>
      <point x="482" y="195" type="curve"/>
      <point x="436" y="146"/>
      <point x="489" y="195"/>
    </contour>
    <contour>
      <point x="330" y="499" type="curve"/>
      <point x="295" y="499"/>
      <point x="262" y="499"/>
      <point x="226" y="499" type="curve"/>
      <point x="226" y="448"/>
      <point x="226" y="499"/>
      <point x="226" y="448" type="curve"/>
      <point x="241" y="448"/>
      <point x="253" y="448"/>
      <point x="267" y="448" type="curve"/>
      <point x="330" y="499"/>
      <point x="267" y="448"/>
    </contour>
    <contour>
      <point x="330" y="195" type="curve"/>
      <point x="295" y="195"/>
      <point x="262" y="195"/>
      <point x="226" y="195" type="curve"/>
      <point x="226" y="146"/>
      <point x="226" y="195"/>
      <point x="226" y="146" type="curve"/>
      <point x="241" y="146"/>
      <point x="253" y="146"/>
      <point x="267" y="146" type="curve"/>
      <point x="330" y="195"/>
      <point x="267" y="146"/>
    </contour>
    <contour>
      <point x="266" y="146" type="curve"/>
      <point x="299" y="146"/>
      <point x="329" y="146"/>
      <point x="361" y="146" type="curve"/>
      <point x="361" y="195"/>
      <point x="361" y="146"/>
      <point x="361" y="195" type="curve"/>
      <point x="350" y="195"/>
      <point x="341" y="195"/>
      <point x="330" y="195" type="curve"/>
      <point x="266" y="146"/>
      <point x="330" y="195"/>
    </contour>
    <contour>
      <point x="354" y="313" type="curve"/>
      <point x="374" y="276"/>
      <point x="423" y="183"/>
      <point x="443" y="146" type="curve"/>
      <point x="489" y="195"/>
      <point x="436" y="146"/>
      <point x="482" y="195" type="curve"/>
      <point x="466" y="225"/>
      <point x="435" y="281"/>
      <point x="419" y="311" type="curve"/>
      <point x="343" y="311"/>
      <point x="430" y="314"/>
    </contour>
    <contour>
      <point x="327" y="195" type="curve"/>
      <point x="327" y="296"/>
      <point x="327" y="398"/>
      <point x="327" y="499" type="curve"/>
      <point x="263" y="448"/>
      <point x="330" y="499"/>
      <point x="267" y="448" type="curve"/>
      <point x="267" y="347"/>
      <point x="267" y="246"/>
      <point x="267" y="146" type="curve"/>
      <point x="330" y="195"/>
      <point x="263" y="146"/>
    </contour>
    <contour>
      <point x="300" y="284" type="curve"/>
      <point x="317" y="284"/>
      <point x="335" y="284"/>
      <point x="352" y="284" type="curve"/>
      <point x="428" y="284"/>
      <point x="478" y="316"/>
      <point x="478" y="392" type="curve"/>
      <point x="478" y="459"/>
      <point x="434" y="499"/>
      <point x="367" y="499" type="curve"/>
      <point x="355" y="499"/>
      <point x="342" y="499"/>
      <point x="330" y="499" type="curve"/>
      <point x="267" y="448"/>
      <point x="330" y="499"/>
      <point x="267" y="448" type="curve"/>
      <point x="296" y="448"/>
      <point x="326" y="448"/>
      <point x="355" y="448" type="curve"/>
      <point x="394" y="448"/>
      <point x="419" y="428"/>
      <point x="419" y="389" type="curve"/>
      <point x="419" y="352"/>
      <point x="398" y="334"/>
      <point x="362" y="334" type="curve"/>
      <point x="341" y="334"/>
      <point x="320" y="334"/>
      <point x="300" y="334" type="curve"/>
      <point x="300" y="284"/>
      <point x="300" y="334"/>
    </contour>
  </outline>
</glyph>
<glyph name="macron" format="1">
  <advance width="305"/>
  <unicode hex="00AF"/>
  <outline>
    <contour>
      <point x="226" y="679" type="curve"/>
      <point x="159" y="679"/>
      <point x="93" y="679"/>
      <point x="27" y="679" type="curve"/>
      <point x="27" y="620"/>
      <point x="27" y="679"/>
      <point x="27" y="620" type="curve"/>
      <point x="93" y="620"/>
      <point x="159" y="620"/>
      <point x="226" y="620" type="curve"/>
      <point x="226" y="679"/>
      <point x="226" y="620"/>
    </contour>
    <contour>
      <point x="128" y="620" type="move" name="_top"/>
    </contour>
  </outline>
</glyph>
<glyph name="degree" format="1">
  <advance width="456"/>
  <unicode hex="00B0"/>
  <outline>
    <contour>
      <point x="391" y="497" type="curve"/>
      <point x="391" y="612"/>
      <point x="337" y="692"/>
      <point x="227" y="692" type="curve"/>
      <point x="118" y="692"/>
      <point x="64" y="612"/>
      <point x="64" y="498" type="curve"/>
      <point x="107" y="498"/>
      <point x="87" y="498"/>
      <point x="129" y="498" type="curve"/>
      <point x="129" y="576"/>
      <point x="153" y="637"/>
      <point x="225" y="637" type="curve"/>
      <point x="298" y="637"/>
      <point x="325" y="576"/>
      <point x="325" y="497" type="curve"/>
      <point x="325" y="415"/>
      <point x="301" y="352"/>
      <point x="228" y="352" type="curve"/>
      <point x="153" y="352"/>
      <point x="129" y="417"/>
      <point x="129" y="498" type="curve"/>
      <point x="87" y="498"/>
      <point x="107" y="498"/>
      <point x="64" y="498" type="curve"/>
      <point x="64" y="380"/>
      <point x="115" y="296"/>
      <point x="227" y="296" type="curve"/>
      <point x="339" y="296"/>
      <point x="391" y="379"/>
    </contour>
  </outline>
</glyph>
<glyph name="plusminus" format="1">
  <advance width="668"/>
  <unicode hex="00B1"/>
  <outline>
    <contour>
      <point x="67" y="30" type="line"/>
      <point x="601" y="30" type="line"/>
      <point x="601" y="95" type="line"/>
      <point x="67" y="95" type="line"/>
    </contour>
    <contour>
      <point x="67" y="279" type="curve"/>
      <point x="601" y="279" type="line"/>
      <point x="601" y="344"/>
      <point x="601" y="279"/>
      <point x="601" y="344" type="curve"/>
      <point x="67" y="344" type="line"/>
      <point x="67" y="279"/>
      <point x="67" y="344"/>
    </contour>
    <contour>
      <point x="370" y="30" type="curve"/>
      <point x="370" y="585" type="line"/>
      <point x="294" y="585"/>
      <point x="374" y="585"/>
      <point x="298" y="585" type="curve"/>
      <point x="298" y="30" type="line"/>
      <point x="374" y="30"/>
      <point x="294" y="30"/>
    </contour>
  </outline>
</glyph>
<glyph name="twosuperior" format="1">
  <advance width="454"/>
  <unicode hex="00B2"/>
  <outline>
    <contour>
      <point x="383" y="316" type="curve"/>
      <point x="383" y="356"/>
      <point x="383" y="384"/>
      <point x="383" y="426" type="curve"/>
      <point x="325" y="426"/>
      <point x="389" y="426"/>
      <point x="331" y="426" type="curve"/>
      <point x="331" y="402"/>
      <point x="331" y="392"/>
      <point x="331" y="368" type="curve"/>
      <point x="390" y="317"/>
      <point x="324" y="367"/>
    </contour>
    <contour>
      <point x="73" y="316" type="curve"/>
      <point x="182" y="316"/>
      <point x="288" y="316"/>
      <point x="383" y="316" type="curve"/>
      <point x="324" y="367"/>
      <point x="390" y="317"/>
      <point x="331" y="368" type="curve"/>
      <point x="247" y="368"/>
      <point x="157" y="368"/>
      <point x="73" y="368" type="curve"/>
      <point x="73" y="316"/>
      <point x="73" y="368"/>
    </contour>
    <contour>
      <point x="142" y="622" type="curve"/>
      <point x="162" y="660"/>
      <point x="184" y="687"/>
      <point x="227" y="687" type="curve"/>
      <point x="274" y="687"/>
      <point x="300" y="657"/>
      <point x="300" y="610" type="curve"/>
      <point x="300" y="565"/>
      <point x="273" y="542"/>
      <point x="241" y="510" type="curve"/>
      <point x="185" y="463"/>
      <point x="128" y="416"/>
      <point x="73" y="368" type="curve"/>
      <point x="79" y="316"/>
      <point x="73" y="368"/>
      <point x="79" y="316" type="curve"/>
      <point x="149" y="369"/>
      <point x="222" y="418"/>
      <point x="281" y="469" type="curve"/>
      <point x="328" y="514"/>
      <point x="365" y="548"/>
      <point x="365" y="613" type="curve"/>
      <point x="365" y="693"/>
      <point x="312" y="740"/>
      <point x="231" y="740" type="curve"/>
      <point x="165" y="740"/>
      <point x="120" y="711"/>
      <point x="93" y="645" type="curve"/>
      <point x="142" y="622"/>
      <point x="93" y="645"/>
    </contour>
    <contour>
      <point x="239" y="740" type="move" name="_top"/>
    </contour>
    <contour>
      <point x="221" y="315" type="move" name="_bottom"/>
    </contour>
  </outline>
</glyph>
<glyph name="threesuperior" format="1">
  <advance width="409"/>
  <unicode hex="00B3"/>
  <outline>
    <contour>
      <point x="111" y="648" type="curve"/>
      <point x="132" y="670"/>
      <point x="156" y="686"/>
      <point x="186" y="686" type="curve"/>
      <point x="231" y="686"/>
      <point x="260" y="664"/>
      <point x="260" y="620" type="curve"/>
      <point x="260" y="571"/>
      <point x="206" y="554"/>
      <point x="148" y="550" type="curve"/>
      <point x="148" y="506"/>
      <point x="148" y="550"/>
      <point x="148" y="506" type="curve"/>
      <point x="246" y="508"/>
      <point x="327" y="537"/>
      <point x="327" y="624" type="curve"/>
      <point x="327" y="701"/>
      <point x="272" y="738"/>
      <point x="193" y="738" type="curve"/>
      <point x="145" y="738"/>
      <point x="102" y="716"/>
      <point x="73" y="682" type="curve"/>
      <point x="111" y="648"/>
      <point x="73" y="682"/>
    </contour>
    <contour>
      <point x="70" y="345" type="curve"/>
      <point x="104" y="323"/>
      <point x="138" y="310"/>
      <point x="178" y="310" type="curve"/>
      <point x="274" y="307"/>
      <point x="342" y="345"/>
      <point x="341" y="433" type="curve"/>
      <point x="341" y="524"/>
      <point x="251" y="539"/>
      <point x="148" y="542" type="curve"/>
      <point x="148" y="503"/>
      <point x="148" y="542"/>
      <point x="148" y="503" type="curve"/>
      <point x="217" y="499"/>
      <point x="273" y="483"/>
      <point x="273" y="431" type="curve"/>
      <point x="273" y="383"/>
      <point x="237" y="359"/>
      <point x="185" y="361" type="curve"/>
      <point x="156" y="361"/>
      <point x="129" y="369"/>
      <point x="101" y="385" type="curve"/>
      <point x="70" y="345"/>
      <point x="101" y="385"/>
    </contour>
    <contour>
      <point x="208" y="738" type="move" name="_top"/>
    </contour>
    <contour>
      <point x="197" y="310" type="move" name="_bottom"/>
    </contour>
  </outline>
</glyph>
<glyph name="acute" format="1">
  <advance width="330"/>
  <unicode hex="00B4"/>
  <outline>
    <contour>
      <point x="100" y="590" type="line"/>
      <point x="222" y="756" type="line"/>
      <point x="125" y="756" type="line"/>
      <point x="26" y="590" type="line"/>
    </contour>
    <contour>
      <point x="67" y="590" type="move" name="_top"/>
    </contour>
  </outline>
</glyph>
<glyph name="paragraph" format="1">
  <advance width="697"/>
  <unicode hex="00B6"/>
  <outline>
    <contour>
      <point x="399" y="662" type="curve"/>
      <point x="550" y="662"/>
      <point x="399" y="662"/>
      <point x="550" y="662" type="curve"/>
      <point x="550" y="722"/>
      <point x="550" y="662"/>
      <point x="550" y="722" type="curve"/>
      <point x="500" y="722"/>
      <point x="449" y="722"/>
      <point x="399" y="722" type="curve"/>
      <point x="399" y="662"/>
      <point x="399" y="722"/>
    </contour>
    <contour>
      <point x="399" y="0" type="curve"/>
      <point x="449" y="0"/>
      <point x="500" y="0"/>
      <point x="550" y="0" type="curve"/>
      <point x="550" y="60"/>
      <point x="550" y="0"/>
      <point x="550" y="60" type="curve"/>
      <point x="399" y="60"/>
      <point x="550" y="60"/>
      <point x="399" y="60" type="curve"/>
      <point x="399" y="0"/>
      <point x="399" y="60"/>
    </contour>
    <contour>
      <point x="399" y="60" type="curve"/>
      <point x="261" y="60"/>
      <point x="399" y="60"/>
      <point x="261" y="60" type="curve"/>
      <point x="261" y="0"/>
      <point x="261" y="60"/>
      <point x="261" y="0" type="curve"/>
      <point x="399" y="0"/>
      <point x="353" y="0"/>
      <point x="399" y="0" type="curve"/>
      <point x="399" y="60"/>
      <point x="399" y="0"/>
    </contour>
    <contour>
      <point x="386" y="364" type="curve"/>
      <point x="343" y="340"/>
      <point x="309" y="326"/>
      <point x="259" y="326" type="curve"/>
      <point x="168" y="326"/>
      <point x="118" y="390"/>
      <point x="118" y="485" type="curve"/>
      <point x="118" y="593"/>
      <point x="183" y="662"/>
      <point x="290" y="662" type="curve"/>
      <point x="326" y="662"/>
      <point x="361" y="662"/>
      <point x="396" y="662" type="curve"/>
      <point x="396" y="722"/>
      <point x="396" y="662"/>
      <point x="396" y="722" type="curve"/>
      <point x="358" y="722"/>
      <point x="319" y="722"/>
      <point x="280" y="722" type="curve"/>
      <point x="136" y="722"/>
      <point x="42" y="631"/>
      <point x="42" y="488" type="curve"/>
      <point x="42" y="349"/>
      <point x="129" y="269"/>
      <point x="265" y="267" type="curve"/>
      <point x="319" y="267"/>
      <point x="364" y="287"/>
      <point x="410" y="313" type="curve"/>
      <point x="386" y="364"/>
      <point x="410" y="314"/>
    </contour>
    <contour>
      <point x="438" y="0" type="curve"/>
      <point x="438" y="241"/>
      <point x="438" y="481"/>
      <point x="438" y="722" type="curve"/>
      <point x="362" y="722"/>
      <point x="438" y="722"/>
      <point x="362" y="722" type="curve"/>
      <point x="362" y="481"/>
      <point x="362" y="241"/>
      <point x="362" y="0" type="curve"/>
      <point x="438" y="0"/>
      <point x="362" y="0"/>
    </contour>
    <contour>
      <point x="615" y="0" type="curve"/>
      <point x="615" y="241"/>
      <point x="615" y="481"/>
      <point x="615" y="722" type="curve"/>
      <point x="539" y="722"/>
      <point x="615" y="722"/>
      <point x="539" y="722" type="curve"/>
      <point x="539" y="481"/>
      <point x="539" y="241"/>
      <point x="539" y="0" type="curve"/>
      <point x="615" y="0"/>
      <point x="539" y="0"/>
    </contour>
  </outline>
</glyph>
<glyph name="periodcentered" format="1">
  <advance width="234"/>
  <unicode hex="00B7"/>
  <outline>
    <contour>
      <point x="160" y="440" type="curve"/>
      <point x="160" y="467"/>
      <point x="142" y="481"/>
      <point x="116" y="481" type="curve"/>
      <point x="90" y="481"/>
      <point x="73" y="466"/>
      <point x="73" y="440" type="curve"/>
      <point x="157" y="440"/>
      <point x="77" y="440"/>
      <point x="160" y="440" type="curve"/>
      <point x="160" y="413"/>
      <point x="142" y="400"/>
      <point x="116" y="400" type="curve"/>
      <point x="90" y="400"/>
      <point x="73" y="414"/>
      <point x="73" y="440" type="curve"/>
      <point x="157" y="440"/>
      <point x="77" y="440"/>
    </contour>
  </outline>
</glyph>
<glyph name="cedilla" format="1">
  <advance width="343"/>
  <unicode hex="00B8"/>
  <outline>
    <contour>
      <point x="129" y="81" type="curve"/>
      <point x="116" y="57"/>
      <point x="87" y="0"/>
      <point x="75" y="-24" type="curve"/>
      <point x="127" y="-72"/>
      <point x="75" y="-24"/>
      <point x="127" y="-72" type="curve"/>
      <point x="140" y="-45"/>
      <point x="173" y="13"/>
      <point x="187" y="40" type="curve"/>
      <point x="129" y="81"/>
      <point x="187" y="40"/>
    </contour>
    <contour>
      <point x="127" y="-72" type="curve"/>
      <point x="136" y="-65"/>
      <point x="143" y="-62"/>
      <point x="155" y="-62" type="curve"/>
      <point x="176" y="-62"/>
      <point x="186" y="-77"/>
      <point x="186" y="-100" type="curve"/>
      <point x="186" y="-125"/>
      <point x="169" y="-139"/>
      <point x="142" y="-139" type="curve"/>
      <point x="120" y="-139"/>
      <point x="103" y="-134"/>
      <point x="82" y="-122" type="curve"/>
      <point x="55" y="-166"/>
      <point x="82" y="-122"/>
      <point x="55" y="-166" type="curve"/>
      <point x="82" y="-183"/>
      <point x="106" y="-191"/>
      <point x="139" y="-191" type="curve"/>
      <point x="201" y="-191"/>
      <point x="243" y="-159"/>
      <point x="243" y="-99" type="curve"/>
      <point x="243" y="-41"/>
      <point x="209" y="-5"/>
      <point x="152" y="-5" type="curve"/>
      <point x="123" y="-5"/>
      <point x="101" y="-11"/>
      <point x="75" y="-25" type="curve"/>
      <point x="127" y="-72"/>
      <point x="75" y="-25"/>
    </contour>
    <contour>
      <point x="181" y="40" type="move" name="_bottom"/>
    </contour>
  </outline>
</glyph>
<glyph name="onesuperior" format="1">
  <advance width="360"/>
  <unicode hex="00B9"/>
  <outline>
    <contour>
      <point x="173" y="316" type="curve"/>
      <point x="217" y="316"/>
      <point x="254" y="316"/>
      <point x="297" y="316" type="curve"/>
      <point x="297" y="369"/>
      <point x="297" y="315"/>
      <point x="297" y="368" type="curve"/>
      <point x="276" y="368"/>
      <point x="261" y="368"/>
      <point x="240" y="368" type="curve"/>
      <point x="173" y="315"/>
      <point x="240" y="369"/>
    </contour>
    <contour>
      <point x="240" y="368" type="curve"/>
      <point x="197" y="368"/>
      <point x="158" y="368"/>
      <point x="114" y="368" type="curve"/>
      <point x="114" y="315"/>
      <point x="114" y="369"/>
      <point x="114" y="316" type="curve"/>
      <point x="136" y="316"/>
      <point x="151" y="316"/>
      <point x="174" y="316" type="curve"/>
      <point x="240" y="369"/>
      <point x="174" y="315"/>
    </contour>
    <contour>
      <point x="99" y="589" type="line"/>
      <point x="240" y="726" type="line"/>
      <point x="174" y="731" type="line"/>
      <point x="62" y="628" type="line"/>
    </contour>
    <contour>
      <point x="240" y="368" type="curve"/>
      <point x="240" y="731" type="line"/>
      <point x="174" y="731" type="line"/>
      <point x="174" y="316" type="line"/>
      <point x="240" y="369"/>
      <point x="174" y="315"/>
    </contour>
    <contour>
      <point x="202" y="729" type="move" name="_top"/>
    </contour>
    <contour>
      <point x="208" y="318" type="move" name="_bottom"/>
    </contour>
  </outline>
</glyph>
<glyph name="ordmasculine" format="1">
  <advance width="417"/>
  <unicode hex="00BA"/>
  <outline>
    <contour>
      <point x="115" y="601" type="curve"/>
      <point x="115" y="672"/>
      <point x="142" y="726"/>
      <point x="208" y="726" type="curve"/>
      <point x="274" y="726"/>
      <point x="300" y="672"/>
      <point x="300" y="600" type="curve"/>
      <point x="300" y="523"/>
      <point x="275" y="466"/>
      <point x="213" y="466" type="curve"/>
      <point x="141" y="466"/>
      <point x="115" y="523"/>
      <point x="115" y="601" type="curve"/>
      <point x="91" y="601"/>
      <point x="87" y="601"/>
      <point x="63" y="601" type="curve"/>
      <point x="63" y="494"/>
      <point x="111" y="422"/>
      <point x="210" y="422" type="curve"/>
      <point x="307" y="422"/>
      <point x="355" y="493"/>
      <point x="355" y="600" type="curve"/>
      <point x="355" y="701"/>
      <point x="307" y="770"/>
      <point x="210" y="770" type="curve"/>
      <point x="111" y="770"/>
      <point x="63" y="701"/>
      <point x="63" y="601" type="curve"/>
      <point x="87" y="601"/>
      <point x="91" y="601"/>
    </contour>
  </outline>
</glyph>
<glyph name="guillemotright" format="1">
  <advance width="557"/>
  <unicode hex="00BB"/>
  <outline>
    <contour>
      <point x="290" y="436" type="curve"/>
      <point x="312" y="422"/>
      <point x="472" y="331"/>
      <point x="493" y="317" type="curve"/>
      <point x="493" y="251"/>
      <point x="493" y="311"/>
      <point x="493" y="245" type="curve"/>
      <point x="472" y="259"/>
      <point x="312" y="353"/>
      <point x="290" y="368" type="curve"/>
      <point x="290" y="433"/>
      <point x="290" y="371"/>
    </contour>
    <contour>
      <point x="290" y="195" type="curve"/>
      <point x="311" y="210"/>
      <point x="472" y="302"/>
      <point x="493" y="317" type="curve"/>
      <point x="493" y="251"/>
      <point x="493" y="311"/>
      <point x="493" y="245" type="curve"/>
      <point x="472" y="230"/>
      <point x="311" y="141"/>
      <point x="290" y="127" type="curve"/>
      <point x="290" y="192"/>
      <point x="290" y="130"/>
    </contour>
    <contour>
      <point x="85" y="436" type="curve"/>
      <point x="106" y="422"/>
      <point x="267" y="331"/>
      <point x="288" y="317" type="curve"/>
      <point x="288" y="251"/>
      <point x="288" y="311"/>
      <point x="288" y="245" type="curve"/>
      <point x="267" y="259"/>
      <point x="106" y="353"/>
      <point x="85" y="368" type="curve"/>
      <point x="85" y="433"/>
      <point x="85" y="371"/>
    </contour>
    <contour>
      <point x="85" y="195" type="curve"/>
      <point x="106" y="210"/>
      <point x="267" y="302"/>
      <point x="288" y="317" type="curve"/>
      <point x="288" y="251"/>
      <point x="288" y="311"/>
      <point x="288" y="245" type="curve"/>
      <point x="267" y="230"/>
      <point x="106" y="141"/>
      <point x="85" y="127" type="curve"/>
      <point x="85" y="192"/>
      <point x="85" y="130"/>
    </contour>
  </outline>
</glyph>
<glyph name="onequarter" format="1">
  <advance width="884"/>
  <unicode hex="00BC"/>
  <outline>
    <contour>
      <point x="296" y="-68" type="line"/>
      <point x="673" y="736" type="line"/>
      <point x="600" y="736" type="line"/>
      <point x="224" y="-68" type="line"/>
    </contour>
    <contour>
      <point x="151" y="323" type="curve"/>
      <point x="194" y="323"/>
      <point x="231" y="323"/>
      <point x="274" y="323" type="curve"/>
      <point x="274" y="376"/>
      <point x="274" y="322"/>
      <point x="274" y="375" type="curve"/>
      <point x="253" y="375"/>
      <point x="239" y="375"/>
      <point x="218" y="375" type="curve"/>
      <point x="151" y="322"/>
      <point x="218" y="376"/>
    </contour>
    <contour>
      <point x="218" y="375" type="curve"/>
      <point x="174" y="375"/>
      <point x="136" y="375"/>
      <point x="91" y="375" type="curve"/>
      <point x="91" y="322"/>
      <point x="91" y="376"/>
      <point x="91" y="323" type="curve"/>
      <point x="113" y="323"/>
      <point x="129" y="323"/>
      <point x="151" y="323" type="curve"/>
      <point x="218" y="376"/>
      <point x="151" y="322"/>
    </contour>
    <contour>
      <point x="76" y="596" type="line"/>
      <point x="217" y="733" type="line"/>
      <point x="151" y="738" type="line"/>
      <point x="40" y="635" type="line"/>
    </contour>
    <contour>
      <point x="218" y="375" type="curve"/>
      <point x="218" y="738" type="line"/>
      <point x="151" y="738" type="line"/>
      <point x="151" y="323" type="line"/>
      <point x="218" y="376"/>
      <point x="151" y="322"/>
    </contour>
    <contour>
      <point x="852" y="99" type="line"/>
      <point x="510" y="99" type="line"/>
      <point x="510" y="48" type="line"/>
      <point x="852" y="48" type="line"/>
    </contour>
    <contour>
      <point x="535" y="52" type="line"/>
      <point x="754" y="355" type="line"/>
      <point x="702" y="367" type="line"/>
      <point x="510" y="99" type="line"/>
    </contour>
    <contour>
      <point x="769" y="-68" type="line"/>
      <point x="769" y="367" type="line"/>
      <point x="702" y="367" type="line"/>
      <point x="702" y="-68" type="line"/>
    </contour>
    <contour>
      <point x="735" y="-21" type="line"/>
      <point x="639" y="-21" type="line"/>
      <point x="639" y="-69" type="line"/>
      <point x="735" y="-69" type="line"/>
    </contour>
    <contour>
      <point x="735" y="-69" type="line"/>
      <point x="831" y="-69" type="line"/>
      <point x="831" y="-21" type="line"/>
      <point x="735" y="-21" type="line"/>
    </contour>
  </outline>
</glyph>
<glyph name="onehalf" format="1">
  <advance width="940"/>
  <unicode hex="00BD"/>
  <outline>
    <contour>
      <point x="313" y="-68" type="line"/>
      <point x="689" y="736" type="line"/>
      <point x="617" y="736" type="line"/>
      <point x="241" y="-68" type="line"/>
    </contour>
    <contour>
      <point x="149" y="323" type="curve"/>
      <point x="192" y="323"/>
      <point x="229" y="323"/>
      <point x="273" y="323" type="curve"/>
      <point x="273" y="376"/>
      <point x="273" y="322"/>
      <point x="273" y="375" type="curve"/>
      <point x="252" y="375"/>
      <point x="237" y="375"/>
      <point x="216" y="375" type="curve"/>
      <point x="149" y="322"/>
      <point x="216" y="376"/>
    </contour>
    <contour>
      <point x="216" y="375" type="curve"/>
      <point x="172" y="375"/>
      <point x="134" y="375"/>
      <point x="89" y="375" type="curve"/>
      <point x="89" y="322"/>
      <point x="89" y="376"/>
      <point x="89" y="323" type="curve"/>
      <point x="112" y="323"/>
      <point x="127" y="323"/>
      <point x="149" y="323" type="curve"/>
      <point x="216" y="376"/>
      <point x="149" y="322"/>
    </contour>
    <contour>
      <point x="75" y="596" type="line"/>
      <point x="215" y="733" type="line"/>
      <point x="149" y="738" type="line"/>
      <point x="38" y="635" type="line"/>
    </contour>
    <contour>
      <point x="216" y="375" type="curve"/>
      <point x="216" y="738" type="line"/>
      <point x="149" y="738" type="line"/>
      <point x="149" y="323" type="line"/>
      <point x="216" y="376"/>
      <point x="149" y="322"/>
    </contour>
    <contour>
      <point x="900" y="-68" type="curve"/>
      <point x="900" y="-27"/>
      <point x="900" y="1"/>
      <point x="900" y="43" type="curve"/>
      <point x="843" y="43"/>
      <point x="907" y="43"/>
      <point x="849" y="43" type="curve"/>
      <point x="849" y="19"/>
      <point x="849" y="8"/>
      <point x="849" y="-15" type="curve"/>
      <point x="908" y="-66"/>
      <point x="841" y="-17"/>
    </contour>
    <contour>
      <point x="590" y="-68" type="curve"/>
      <point x="699" y="-68"/>
      <point x="806" y="-68"/>
      <point x="900" y="-68" type="curve"/>
      <point x="841" y="-17"/>
      <point x="908" y="-66"/>
      <point x="849" y="-15" type="curve"/>
      <point x="765" y="-15"/>
      <point x="674" y="-15"/>
      <point x="590" y="-15" type="curve"/>
      <point x="590" y="-68"/>
      <point x="590" y="-15"/>
    </contour>
    <contour>
      <point x="660" y="239" type="curve"/>
      <point x="679" y="277"/>
      <point x="702" y="304"/>
      <point x="745" y="304" type="curve"/>
      <point x="792" y="304"/>
      <point x="818" y="273"/>
      <point x="818" y="227" type="curve"/>
      <point x="818" y="182"/>
      <point x="790" y="158"/>
      <point x="759" y="127" type="curve"/>
      <point x="703" y="79"/>
      <point x="646" y="32"/>
      <point x="590" y="-15" type="curve"/>
      <point x="597" y="-67"/>
      <point x="591" y="-15"/>
      <point x="597" y="-67" type="curve"/>
      <point x="666" y="-15"/>
      <point x="739" y="35"/>
      <point x="799" y="85" type="curve"/>
      <point x="846" y="130"/>
      <point x="883" y="164"/>
      <point x="883" y="229" type="curve"/>
      <point x="883" y="309"/>
      <point x="830" y="357"/>
      <point x="749" y="357" type="curve"/>
      <point x="683" y="357"/>
      <point x="638" y="328"/>
      <point x="611" y="262" type="curve"/>
      <point x="660" y="239"/>
      <point x="611" y="262"/>
    </contour>
  </outline>
</glyph>
<glyph name="questiondown" format="1">
  <advance width="483"/>
  <unicode hex="00BF"/>
  <outline>
    <contour>
      <point x="300" y="365" type="curve"/>
      <point x="300" y="402"/>
      <point x="300" y="460"/>
      <point x="300" y="497" type="curve"/>
      <point x="228" y="497"/>
      <point x="300" y="497"/>
      <point x="228" y="497" type="curve"/>
      <point x="228" y="460"/>
      <point x="228" y="402"/>
      <point x="228" y="365" type="curve"/>
      <point x="300" y="365"/>
      <point x="228" y="365"/>
    </contour>
    <contour>
      <point x="390" y="115" type="line"/>
      <point x="361" y="80"/>
      <point x="321" y="53"/>
      <point x="266" y="53" type="curve"/>
      <point x="179" y="53"/>
      <point x="130" y="112"/>
      <point x="130" y="200" type="curve"/>
      <point x="130" y="299"/>
      <point x="190" y="365"/>
      <point x="291" y="365" type="curve"/>
      <point x="291" y="393"/>
      <point x="292" y="396"/>
      <point x="292" y="424" type="curve"/>
      <point x="148" y="424"/>
      <point x="56" y="337"/>
      <point x="56" y="200" type="curve"/>
      <point x="56" y="72"/>
      <point x="137" y="-10"/>
      <point x="262" y="-10" type="curve"/>
      <point x="338" y="-10"/>
      <point x="392" y="21"/>
      <point x="432" y="69" type="curve"/>
    </contour>
    <contour>
      <point x="220" y="690" type="curve"/>
      <point x="220" y="664"/>
      <point x="239" y="650"/>
      <point x="264" y="650" type="curve"/>
      <point x="290" y="650"/>
      <point x="306" y="665"/>
      <point x="306" y="690" type="curve"/>
      <point x="220" y="690"/>
      <point x="306" y="690"/>
      <point x="220" y="690" type="curve"/>
      <point x="220" y="718"/>
      <point x="238" y="730"/>
      <point x="264" y="730" type="curve"/>
      <point x="290" y="730"/>
      <point x="306" y="716"/>
      <point x="306" y="690" type="curve"/>
      <point x="220" y="690"/>
      <point x="306" y="690"/>
    </contour>
  </outline>
</glyph>
